<svg width="20" height="20" viewBox="0 0 20 20" fill="none" xmlns="http://www.w3.org/2000/svg">
<path d="M2.5 17V3C2.5 2.72386 2.72386 2.5 3 2.5H17C17.2762 2.5 17.5 2.72386 17.5 3V17C17.5 17.2762 17.2762 17.5 17 17.5H3C2.72386 17.5 2.5 17.2762 2.5 17Z" stroke="#2C2D2E" stroke-width="1.5"/>
<path d="M7.4523 5.95144C7.62587 6.252 7.81937 6.61924 8.03254 7.05368C8.2457 7.48838 8.4628 7.94487 8.68384 8.42288C8.90461 8.90116 9.1238 9.38731 9.3409 9.88108C9.55774 10.3751 9.75727 10.8313 9.93871 11.2503C10.1201 10.8313 10.3176 10.3751 10.5307 9.88108C10.7439 9.38731 10.961 8.90142 11.1818 8.42288C11.4028 7.94487 11.6199 7.48838 11.8331 7.05368C12.0462 6.61924 12.2395 6.25174 12.4131 5.95144H13.7573C13.8297 6.55204 13.8979 7.19018 13.9624 7.86586C14.0266 8.54153 14.0848 9.23322 14.137 9.94014C14.1892 10.6473 14.2374 11.3587 14.2817 12.0737C14.326 12.7893 14.3641 13.4865 14.3966 14.1661H12.9283C12.896 13.2099 12.8577 12.226 12.8134 11.2146C12.7691 10.2032 12.7028 9.22325 12.6144 8.27484C12.5274 8.45675 12.4249 8.67409 12.3063 8.92688C12.1881 9.17967 12.0614 9.45425 11.9277 9.75061C11.7932 10.047 11.6571 10.3533 11.519 10.6694C11.3808 10.9854 11.2468 11.2918 11.1165 11.5881C10.9862 11.8845 10.8658 12.1612 10.7555 12.4176C10.6448 12.6746 10.5502 12.8938 10.4712 13.0757H9.3582C9.27928 12.8941 9.18463 12.6728 9.07425 12.4118C8.96334 12.1512 8.84325 11.8724 8.71294 11.576C8.58289 11.2797 8.44838 10.9736 8.31047 10.6576C8.17229 10.3415 8.03595 10.0373 7.90196 9.74458C7.76746 9.45241 7.64134 9.17784 7.52309 8.92059C7.40484 8.66386 7.30206 8.44861 7.21527 8.27457C7.12665 9.22299 7.06005 10.2029 7.016 11.2143C6.97169 12.226 6.93367 13.2098 6.90116 14.1659H5.43286C5.46511 13.4863 5.50339 12.783 5.5477 12.0559C5.59175 11.3288 5.64026 10.6077 5.69243 9.89263C5.74435 9.17757 5.80282 8.48405 5.86706 7.81231C5.93129 7.14057 5.99973 6.52027 6.0721 5.95117H7.4523V5.95144Z" fill="#2C2D2E"/>
</svg>
