<svg width="20" height="20" viewBox="0 0 20 20" fill="none" xmlns="http://www.w3.org/2000/svg">
<path d="M1.66699 13.3334V15.8334" stroke="#2C2D2E" stroke-width="1.5" stroke-linecap="round" stroke-linejoin="round"/>
<path d="M3.33301 7.49996V5.83329C3.33301 4.91282 4.0792 4.16663 4.99967 4.16663H14.9997C15.9202 4.16663 16.6663 4.91282 16.6663 5.83329V7.49996" stroke="#2C2D2E" stroke-width="1.5" stroke-linecap="round" stroke-linejoin="round"/>
<path d="M18.3337 10V9.16667C18.3337 8.24619 17.5875 7.5 16.667 7.5C15.7465 7.5 15.0003 8.24619 15.0003 9.16667V10.8333H5.00033V9.16667C5.00033 8.24619 4.25413 7.5 3.33366 7.5C2.41318 7.5 1.66699 8.24619 1.66699 9.16667V14.1667H10.0003" stroke="#2C2D2E" stroke-width="1.5" stroke-linecap="round" stroke-linejoin="round"/>
<path d="M12.5 14.1667L15 16.6667L19.1667 12.5" stroke="#2C2D2E" stroke-width="1.5" stroke-linecap="round" stroke-linejoin="round"/>
</svg>
