<svg width="20" height="20" viewBox="0 0 20 20" fill="none" xmlns="http://www.w3.org/2000/svg">
<path d="M11.6667 17.0003V12.167C11.6667 11.8908 11.8906 11.667 12.1667 11.667H17.0001C17.2762 11.667 17.5001 11.8908 17.5001 12.167V17.0003C17.5001 17.2765 17.2762 17.5003 17.0001 17.5003H12.1667C11.8906 17.5003 11.6667 17.2765 11.6667 17.0003Z" fill="white" stroke="#FE5A11" stroke-width="1.5"/>
<path d="M2.5 17.0003V12.167C2.5 11.8908 2.72386 11.667 3 11.667H7.83333C8.10948 11.667 8.33333 11.8908 8.33333 12.167V17.0003C8.33333 17.2765 8.10948 17.5003 7.83333 17.5003H3C2.72386 17.5003 2.5 17.2765 2.5 17.0003Z" fill="white" stroke="#FE5A11" stroke-width="1.5"/>
<path d="M11.6667 7.83333V3C11.6667 2.72386 11.8906 2.5 12.1667 2.5H17.0001C17.2762 2.5 17.5001 2.72386 17.5001 3V7.83333C17.5001 8.10947 17.2762 8.33333 17.0001 8.33333H12.1667C11.8906 8.33333 11.6667 8.10947 11.6667 7.83333Z" stroke="#FE5A11" stroke-width="1.5"/>
<path d="M2.5 7.83333V3C2.5 2.72386 2.72386 2.5 3 2.5H7.83333C8.10947 2.5 8.33333 2.72386 8.33333 3V7.83333C8.33333 8.10947 8.10947 8.33333 7.83333 8.33333H3C2.72386 8.33333 2.5 8.10947 2.5 7.83333Z" stroke="#FE5A11" stroke-width="1.5"/>
</svg>
