<svg width="20" height="20" viewBox="0 0 20 20" fill="none" xmlns="http://www.w3.org/2000/svg">
<path d="M3.02872 1.25401C3.0316 1.25385 3.03448 1.2537 3.03736 1.25354C3.5355 1.23008 4.02244 1.40617 4.39036 1.74281C4.75901 2.08045 4.97511 2.54664 4.99674 3.04378C5.0085 3.31398 4.99329 3.59004 5.00464 3.86135C5.13833 3.81634 5.29929 3.77177 5.44075 3.76225C5.83503 3.73571 6.2363 3.75537 6.63174 3.74925C6.79601 3.74672 6.97232 3.7482 7.13355 3.76943C7.27767 3.78896 7.41891 3.82574 7.55425 3.87895C8.01699 4.05908 8.38953 4.41519 8.59033 4.86934C8.7773 5.299 8.8058 5.8088 8.63251 6.24745C9.21144 6.26323 9.85547 6.24986 10.4379 6.24985L13.7483 6.24916C13.7555 5.82598 13.6455 5.21283 14.1506 5.04006C14.337 4.97627 14.7825 4.99952 14.9916 4.9995L16.3126 4.99971L17.5229 4.99914C17.613 4.99903 17.703 4.9975 17.7933 4.99888C17.9568 5.00139 18.1173 4.98859 18.2794 5.02213C18.4283 5.05291 18.5722 5.1659 18.6526 5.29291C18.7212 5.40118 18.7481 5.51562 18.7488 5.64197C18.7523 5.99353 18.7509 6.34516 18.7507 6.69671L18.7505 8.63798V14.6168L18.7509 17.1218L18.7512 17.7867C18.7512 18.1928 18.7904 18.4457 18.4046 18.6845C18.344 18.7122 18.2652 18.7432 18.1985 18.7462C17.9566 18.7574 17.7039 18.7535 17.462 18.7535L16.0803 18.7534L11.566 18.7533L5.07829 18.7531H2.96431C2.60242 18.7531 2.23987 18.7573 1.87829 18.7511C1.66454 18.7501 1.4854 18.6489 1.359 18.478C1.20224 18.266 1.25881 17.9541 1.25001 17.7031C1.24421 17.5376 1.25011 17.361 1.25019 17.1947L1.25052 15.3112L1.25042 9.4177L1.2501 5.0333L1.25007 3.71255C1.25011 3.46583 1.24005 3.12518 1.26797 2.8878C1.31306 2.51535 1.46985 2.16528 1.7177 1.88365C2.05473 1.49375 2.51968 1.2888 3.02872 1.25401ZM2.50032 8.74806L9.05288 8.74948L10.9768 8.74951L11.5495 8.74957C11.8403 8.74961 12.0994 8.71466 12.3201 8.93866C12.4364 9.05675 12.5006 9.21652 12.4981 9.38224C12.4963 9.54991 12.4267 9.70968 12.3051 9.82523C12.2046 9.92142 12.0751 9.98158 11.9368 9.99632C11.7645 10.0157 11.3024 10.0036 11.1118 10.0033H9.52072H6.48973C6.01813 10.0033 5.54495 10.0029 5.07323 10.0057C5.05234 10.0058 5.0217 10.0018 5.00084 9.99886L5.00046 10.8777C5.00045 11.0189 4.9943 11.2248 5.00541 11.3619C5.38858 11.2172 5.83173 11.2493 6.23742 11.2494C6.51991 11.2494 6.8819 11.233 7.15626 11.273C7.32755 11.2988 7.49441 11.3484 7.65203 11.4203C7.86301 11.5166 8.05444 11.6511 8.21676 11.8168C8.55961 12.1788 8.76017 12.648 8.74832 13.15C8.74412 13.3543 8.70515 13.5564 8.63307 13.7476C9.39663 13.7563 10.1688 13.75 10.9333 13.75L13.7483 13.7492L13.7503 9.37213C13.7503 8.76168 13.7397 8.11351 13.7522 7.50641C12.7841 7.49468 11.8036 7.50307 10.8342 7.50302L5.55348 7.50299L3.42451 7.50316L2.84169 7.50427C2.74382 7.50482 2.59361 7.51242 2.50223 7.49814C2.4955 7.9145 2.50475 8.33227 2.50032 8.74806ZM2.50032 17.4981L11.2916 17.4995L13.1282 17.4995C13.2125 17.4995 13.6891 17.5092 13.741 17.494L13.7474 17.4873C13.7635 16.6702 13.7285 15.8162 13.7522 15.0064C12.7841 14.9947 11.8036 15.0031 10.8342 15.0031L5.55348 15.003L3.42451 15.0032L2.84169 15.0042C2.74378 15.0048 2.59368 15.0124 2.50224 14.9982C2.48948 15.8283 2.50922 16.6676 2.50032 17.4981ZM2.50032 13.7481C2.60446 13.7486 3.72319 13.7604 3.74741 13.7373C3.76533 12.8066 3.74004 11.8575 3.7503 10.9249C3.75366 10.6202 3.74521 10.3108 3.75226 10.0064C3.47655 10.0031 3.20081 10.0024 2.92508 10.0041C2.82354 10.0044 2.59106 10.0124 2.50223 9.99818C2.48229 11.2404 2.51291 12.5037 2.50032 13.7481ZM15.0022 11.2482C14.9953 11.6644 15.0048 12.0824 15.0003 12.4981L16.8405 12.5001C16.9304 12.5001 17.4403 12.5097 17.4924 12.4927L17.4974 12.4873C17.5059 12.0784 17.4922 11.663 17.5022 11.2564C16.9178 11.2494 16.327 11.2523 15.742 11.2529L15.3025 11.2547C15.2159 11.2553 15.0843 11.2614 15.0022 11.2482ZM15.0003 14.9981L16.8405 15.0001C16.9303 15.0001 17.4404 15.0097 17.4924 14.9927L17.4974 14.9873C17.5056 14.5786 17.492 14.1625 17.5022 13.7564L15.742 13.7529L15.3025 13.7547C15.2159 13.7553 15.0843 13.7614 15.0022 13.7483C14.9955 14.1646 15.0048 14.5823 15.0003 14.9981ZM17.5022 16.2564C16.9177 16.2494 16.327 16.2523 15.742 16.2529L15.3025 16.2547C15.2159 16.2553 15.0843 16.2614 15.0022 16.2482C14.9955 16.6646 15.0048 17.0823 15.0003 17.4981L16.8405 17.5001C16.9303 17.5001 17.4404 17.5097 17.4924 17.4927L17.4975 17.4873C17.5056 17.0786 17.4921 16.6626 17.5022 16.2564ZM15.0003 9.99808L16.8405 10.0001C16.9304 10.0001 17.4403 10.0097 17.4924 9.99271L17.4974 9.98734C17.5057 9.57837 17.4922 9.16297 17.5022 8.75641C16.9178 8.74937 16.327 8.75224 15.742 8.7529L15.3025 8.75469C15.216 8.75531 15.0842 8.76141 15.0022 8.74817C14.9955 9.16451 15.0048 9.58227 15.0003 9.99808ZM6.86867 6.24847C7.07094 6.23242 7.20983 6.18411 7.34653 6.02567C7.45491 5.90189 7.50842 5.73941 7.49478 5.57545C7.48276 5.41154 7.40558 5.25927 7.28049 5.15268C7.0985 4.99832 6.89187 4.99882 6.66546 5.00244C6.32779 5.00784 5.98381 4.99404 5.64685 5.00441C5.43777 5.01963 5.29113 5.05377 5.14811 5.22199C5.03892 5.35204 4.98696 5.52072 5.00404 5.68966C5.01983 5.85416 5.10205 6.00508 5.23169 6.10755C5.30513 6.16713 5.39146 6.20871 5.48382 6.229C5.57634 6.24907 5.67735 6.25168 5.77179 6.25064C6.13682 6.24666 6.50384 6.255 6.86867 6.24847ZM6.86815 13.7485C7.072 13.7324 7.21201 13.6832 7.34907 13.5228C7.45683 13.3981 7.50929 13.2349 7.49439 13.0707C7.481 12.9052 7.40116 12.7522 7.2731 12.6465C7.08808 12.4943 6.87455 12.4989 6.64689 12.5024C6.31546 12.5076 5.97757 12.4943 5.64689 12.5044C5.43781 12.5197 5.29115 12.5537 5.14811 12.722C5.03892 12.8521 4.98696 13.0207 5.00404 13.1897C5.01982 13.3541 5.10205 13.5051 5.2317 13.6076C5.30515 13.6671 5.39147 13.7087 5.48382 13.729C5.57639 13.7491 5.67731 13.7517 5.77179 13.7506C6.13667 13.7467 6.50347 13.7549 6.86815 13.7485ZM15.0022 6.24822C14.9953 6.66443 15.0048 7.08232 15.0003 7.49806L16.8405 7.50009C16.9303 7.50009 17.4404 7.50972 17.4924 7.49272L17.4974 7.48731C17.5057 7.07838 17.4922 6.66296 17.5022 6.25639L15.742 6.2529L15.288 6.25477C15.2033 6.25542 15.0829 6.2612 15.0022 6.24822ZM3.04359 2.51282C2.77066 2.54661 2.55246 2.74106 2.5137 3.01856C2.49477 3.15407 2.50021 3.29085 2.50022 3.42751L2.50048 4.0128C2.50055 4.75308 2.50845 5.50942 2.50032 6.24809L3.22754 6.24962C3.40004 6.24957 3.57619 6.25146 3.74835 6.24918L3.75078 4.06629L3.75063 3.4637C3.7505 3.17463 3.78549 2.90648 3.56478 2.68505C3.45087 2.5698 3.29515 2.50555 3.1331 2.50694C3.10501 2.50691 3.0709 2.50805 3.04359 2.51282Z" fill="#83888D"/>
</svg>
