<svg width="20" height="20" viewBox="0 0 20 20" fill="none" xmlns="http://www.w3.org/2000/svg">
<path d="M1.09375 3.09455C1.12666 3.03232 1.14451 2.9607 1.17455 2.89437C1.25671 2.71293 1.41849 2.58171 1.60604 2.52028C1.8807 2.43332 2.17534 2.36434 2.45877 2.30862C3.76362 2.05211 5.19038 2.05943 6.40409 2.66013C7.55413 3.22932 8.2871 4.22772 8.68953 5.42743C8.80816 5.78549 8.90022 6.15184 8.96496 6.52347C9.21104 6.53564 9.49074 6.52952 9.73925 6.52953L11.0348 6.52954L14.9924 6.5295L16.1905 6.52945C16.5218 6.5294 16.8916 6.50912 17.2117 6.57768C17.6509 6.67374 18.0491 6.90465 18.3507 7.23816C18.5805 7.49331 18.7391 7.78323 18.8316 8.11576C18.8556 8.20199 18.8808 8.3895 18.9062 8.4596V10.9381C18.8787 11.0031 18.8598 11.0787 18.83 11.1402C18.7026 11.4023 18.4256 11.5527 18.139 11.5511C17.978 11.5501 17.8049 11.5613 17.6459 11.5463C17.707 12.003 17.8193 12.4673 17.8909 12.9234C17.9029 12.9999 17.9187 13.0826 17.9351 13.1583C18.1675 13.1377 18.3988 13.2085 18.58 13.3555C18.6992 13.4532 18.7968 13.5901 18.8501 13.7364C18.871 13.7938 18.8829 13.8877 18.9062 13.9461V15.699C18.8197 16.0337 18.7306 16.2673 18.3892 16.4247C18.1783 16.5218 17.9493 16.6022 17.7303 16.6803C17.2128 16.8674 16.6867 17.0304 16.154 17.1687C12.2594 18.1872 7.7364 18.0748 3.91986 16.7745C3.72147 16.7065 3.52428 16.635 3.32837 16.5601C3.0063 16.4351 2.73688 16.3553 2.57401 16.0186C2.53067 15.9282 2.50347 15.8308 2.49363 15.731C2.47373 15.5401 2.48664 15.1153 2.48653 14.9024L2.48569 14.3325C2.48528 14.1315 2.47238 13.9168 2.54126 13.7254C2.6198 13.5054 2.78455 13.3267 2.99755 13.2309C3.31558 13.085 3.57125 13.1791 3.87573 13.291L4.83798 8.4796C4.58244 8.62928 4.33179 8.78971 4.07653 8.93986C3.55754 9.24871 2.92955 9.26196 2.37415 9.04149C1.75828 8.79702 1.30258 8.23293 1.14726 7.59313C1.13089 7.5257 1.12257 7.42965 1.09375 7.36923V6.90233C1.11492 6.8627 1.14548 6.70238 1.15879 6.64821C1.1987 6.4835 1.26212 6.32542 1.3471 6.17882C1.43053 6.03815 1.54703 5.87746 1.64157 5.74009L2.13975 5.01642C2.19007 4.9433 2.34098 4.7515 2.36166 4.68274C2.3648 4.67231 2.36379 4.67263 2.35989 4.66146C2.33172 4.58068 1.39211 3.86221 1.23959 3.66914C1.16299 3.57218 1.14619 3.46471 1.09375 3.35711V3.09455ZM2.47075 3.36536C2.61518 3.49134 2.76097 3.61575 2.9081 3.73855C3.19973 3.984 3.42493 4.15908 3.45518 4.57693C3.4654 4.72686 3.44025 4.87708 3.38175 5.01548C3.31859 5.16381 3.13138 5.41807 3.03187 5.56254L2.45855 6.39494C2.36763 6.52697 2.25809 6.66747 2.19917 6.81561C1.94522 7.45403 2.50603 8.18682 3.18259 8.13972C3.41332 8.12366 3.55262 8.03572 3.74532 7.91805L4.19503 7.64316C4.50557 7.45346 4.72662 7.30522 5.11787 7.3858C5.28559 7.42046 5.44154 7.49788 5.57062 7.61056C5.86463 7.86504 5.95509 8.21303 5.88016 8.58515C5.82905 8.83903 5.7795 9.09422 5.72883 9.34822L5.42164 10.8874L5.06307 12.6847C5.00852 12.9587 4.94003 13.3661 4.87276 13.6246C5.81685 13.9058 6.65856 14.0781 7.62657 14.2278C7.6507 13.4191 7.99203 12.6524 8.5767 12.0935C9.17158 11.528 9.96773 11.224 10.7878 11.2493C11.6045 11.2732 12.3781 11.6221 12.9369 12.2187C13.0767 12.3703 13.2012 12.5354 13.3085 12.7116C13.5807 13.1729 13.7356 13.6939 13.7598 14.2291C14.0044 14.1789 14.3157 14.1397 14.5735 14.092C15.1621 13.983 15.7452 13.8458 16.3208 13.6809C16.4994 13.6294 16.7582 13.5569 16.9294 13.4935C16.8104 12.7595 16.6581 12.0201 16.5333 11.286C16.4828 11.2384 16.4062 11.1941 16.3477 11.1546C16.2786 11.1077 16.2125 11.0566 16.1497 11.0015C15.726 10.6263 15.4689 10.0977 15.4352 9.53257C15.4223 9.31085 15.4293 9.0418 15.4293 8.81485L15.4289 7.58248C15.0249 7.59666 14.5267 7.5822 14.116 7.58241L13.6637 7.58392C13.5894 7.58452 13.4614 7.59062 13.3918 7.58149C13.3828 7.75964 13.3905 7.94036 13.3872 8.11872C13.3774 8.64395 13.4772 9.1131 13.0398 9.50458C12.8947 9.63576 12.7157 9.7237 12.5232 9.75844C12.3362 9.79304 12.0559 9.78283 11.8575 9.78236L10.9997 9.78193L9.74823 9.78203C9.51825 9.78232 9.27299 9.78702 9.044 9.77897C8.72754 9.76786 8.45613 9.64618 8.24553 9.40496C8.13455 9.27741 8.05758 9.12386 8.02174 8.95856C7.98513 8.79265 7.99464 8.53127 7.99473 8.35395L7.99535 7.60598C7.99552 7.39893 7.99876 7.18204 7.97672 6.97636C7.92002 6.44649 7.78507 5.92799 7.57627 5.43779C6.9765 4.02814 5.94052 3.32027 4.4203 3.20823C4.22095 3.19354 3.97051 3.1978 3.76983 3.20403C3.47286 3.20983 3.19656 3.24726 2.90336 3.29251C2.78449 3.31085 2.58135 3.35825 2.47075 3.36536ZM3.53108 15.5162C7.19686 16.9476 11.5487 17.181 15.375 16.2851C16.1976 16.0943 17.0055 15.845 17.7927 15.5393C17.8123 15.5335 17.8341 15.5302 17.8439 15.5101C17.8759 15.4452 17.8543 14.4506 17.8577 14.286C17.5604 14.3708 17.2257 14.5016 16.9162 14.5968C16.2583 14.799 15.5901 14.9657 14.9143 15.0961C11.7939 15.6945 8.58175 15.6195 5.4926 14.876C5.02716 14.7625 4.56633 14.6308 4.11119 14.4812C3.96504 14.4336 3.67352 14.3409 3.53618 14.2806C3.52452 14.3576 3.52737 14.6813 3.52947 14.7731C3.53487 15.01 3.5213 15.2832 3.53108 15.5162ZM16.4767 7.57652C16.464 7.93757 16.476 8.34557 16.4731 8.70978C16.4713 8.93895 16.4584 9.45695 16.504 9.65159C16.548 9.83622 16.6389 10.0063 16.7679 10.1455C16.9664 10.3603 17.2424 10.4865 17.5346 10.496C17.6375 10.4993 17.7637 10.4934 17.8619 10.4999L17.8633 9.309C17.8633 9.06832 17.8796 8.6281 17.8273 8.41044C17.7804 8.21754 17.6813 8.0413 17.5409 7.90106C17.3347 7.69365 17.0561 7.57308 16.7654 7.58478C16.6916 7.58776 16.5393 7.59009 16.4767 7.57652ZM9.04343 7.58071C9.02666 7.95438 9.05449 8.35543 9.03848 8.72164C9.30283 8.73267 9.58493 8.7274 9.85101 8.72737L11.1604 8.72721L11.9633 8.72752C12.0458 8.7276 12.2752 8.73373 12.342 8.72652L12.3433 7.58147C12.1067 7.59066 11.832 7.58265 11.5913 7.58254L10.1456 7.58236L9.40022 7.58335C9.31512 7.58365 9.11484 7.59171 9.04343 7.58071ZM10.5719 12.3013C9.78775 12.3816 9.18012 12.7647 8.84463 13.5003C8.71054 13.7943 8.68533 14.035 8.66374 14.3496C9.38352 14.4195 10.1065 14.4513 10.8296 14.4452C11.5038 14.4356 12.0487 14.4038 12.7174 14.3534C12.6851 13.718 12.5354 13.2561 12.0471 12.8134C11.6317 12.4368 11.1281 12.2767 10.5719 12.3013Z" fill="#83888D"/>
</svg>
