<svg width="20" height="20" viewBox="0 0 20 20" fill="none" xmlns="http://www.w3.org/2000/svg">
<path d="M5.46305 3.75395C5.97024 3.73461 6.49091 3.75731 6.99977 3.74925C7.25827 3.74516 7.54947 3.74211 7.80526 3.76671C8.49068 3.83633 9.13372 4.13106 9.6339 4.60482C9.77705 4.74076 9.87568 4.86169 10.0011 5.01358C10.1029 4.88455 10.1963 4.76705 10.3132 4.65038C10.8014 4.1681 11.4351 3.86036 12.116 3.77486C12.304 3.7513 12.4713 3.74984 12.6595 3.74952L13.8564 3.74924C14.1243 3.74929 14.4435 3.74065 14.7056 3.76777C15.4181 3.84419 16.0826 4.16338 16.5876 4.67178C17.1108 5.1949 17.4303 5.8875 17.4886 6.62508C17.5104 6.88378 17.5009 7.22078 17.5008 7.48809L17.5007 8.86218C18.3528 9.22102 18.748 9.82323 18.7507 10.7493L18.7508 14.159L18.7512 15.1502C18.7512 15.3453 18.7549 15.5392 18.7369 15.7342C18.7254 15.9341 18.481 16.2015 18.2807 16.2321C18.0366 16.2693 17.6935 16.2529 17.4368 16.2528L15.8057 16.2532H6.50485L3.42439 16.2528L2.46568 16.2539C2.21888 16.2545 1.86356 16.2819 1.63371 16.2015C1.50114 16.155 1.34205 15.9911 1.29444 15.863C1.26951 15.7959 1.25331 15.7128 1.25281 15.6402C1.24721 15.3205 1.25029 14.9973 1.25038 14.6776L1.25041 12.8485L1.2502 11.3301C1.24994 11.0509 1.24318 10.7615 1.25608 10.4842C1.28159 9.93612 1.58939 9.40049 2.04201 9.09351C2.19426 8.99025 2.32854 8.93126 2.49826 8.86467C2.50758 8.38623 2.4951 7.8994 2.50006 7.42031C2.50299 7.13769 2.49008 6.84685 2.51619 6.56594C2.58034 5.91959 2.84363 5.30911 3.26967 4.81882C3.83994 4.1621 4.60324 3.813 5.46305 3.75395ZM10.6253 9.99803L12.3982 9.9993C12.6475 9.9992 12.8973 9.99559 13.1463 10.0036C13.4855 10.0145 13.7512 10.2913 13.7476 10.6314C13.7466 10.8002 13.6762 10.961 13.5528 11.0763C13.4553 11.1689 13.3464 11.2297 13.2125 11.2411C12.9878 11.2602 12.744 11.2533 12.5179 11.2533L11.2345 11.2534L6.91287 11.2533C6.61658 11.2533 5.61484 11.2201 5.39679 11.2957C5.16202 11.377 5.00791 11.6158 5.00161 11.8596C4.99745 12.02 5.05531 12.1815 5.16714 12.2978C5.29636 12.4322 5.44832 12.4876 5.63132 12.4989L11.6535 12.4998H13.5085H14.0574C14.3437 12.4999 14.5953 12.5327 14.8131 12.3135C14.8899 12.2373 14.945 12.142 14.9727 12.0374C15.0159 11.8713 14.9957 11.7038 15.0009 11.5368C15.0124 11.1724 14.9711 10.6823 15.0318 10.3339C15.081 10.0551 15.1905 9.79032 15.3527 9.5583C15.5872 9.21907 15.8743 9.01434 16.248 8.85564C16.2557 8.47656 16.2514 8.06549 16.2506 7.68512C16.2497 7.3124 16.2761 6.75666 16.1897 6.41361C16.1098 6.09752 15.9481 5.80797 15.721 5.57399C15.4047 5.24693 14.9223 5.00974 14.465 5.00896C13.816 5.00785 13.1483 4.98745 12.5006 5.00437C11.9573 5.02651 11.5006 5.1953 11.1245 5.60145C10.9015 5.84117 10.7462 6.13579 10.6743 6.4552C10.6164 6.71065 10.6267 6.94477 10.625 7.20328C10.6191 8.13411 10.6348 9.06745 10.6253 9.99803ZM17.4983 14.9991L17.5004 11.7822L17.5011 11.0635C17.5011 10.8881 17.5131 10.6029 17.4686 10.4412C17.4422 10.3469 17.3915 10.261 17.3217 10.1923C17.0727 9.94276 16.6833 9.94149 16.4391 10.199C16.2283 10.4096 16.2526 10.6614 16.2495 10.9362C16.2456 11.2812 16.2614 11.6355 16.2448 11.9813C16.1982 12.9508 15.3708 13.7449 14.3993 13.7509C13.7123 13.7551 13.0265 13.7532 12.3399 13.7532L8.38078 13.753L6.45417 13.7533C6.16477 13.7537 5.58535 13.7693 5.32002 13.7253C4.94861 13.6632 4.60426 13.4914 4.33125 13.232C3.67353 12.6161 3.74229 11.903 3.75085 11.0847C3.75273 10.9053 3.76403 10.6338 3.71381 10.4647C3.6797 10.3517 3.61601 10.2498 3.52933 10.1696C3.39464 10.0432 3.21826 9.98592 3.03521 10.013C2.75072 10.0519 2.53381 10.2638 2.50938 10.5539C2.49493 10.7254 2.50017 10.898 2.50024 11.0702L2.50056 11.9527L2.50032 14.998L17.4983 14.9991ZM3.75054 8.85627C4.2791 9.08541 4.64737 9.42687 4.85967 9.97176C4.87971 10.0246 4.89829 10.0779 4.91539 10.1317C5.0351 10.0957 5.21486 10.0393 5.33391 10.0237C5.5999 9.98895 5.89418 9.99911 6.16454 9.99911L7.38769 9.9996C8.04011 9.9996 8.72371 10.0107 9.37334 9.99911L9.37541 7.90453L9.37566 7.25063C9.37587 6.96971 9.38507 6.70628 9.31866 6.42979C9.23866 6.10086 9.07037 5.80001 8.83197 5.55967C8.42815 5.15023 7.93949 4.99258 7.378 5.00316C6.80168 5.01402 6.19619 4.98849 5.6223 5.00449C5.07987 5.02771 4.62521 5.19566 4.24949 5.60144C4.03399 5.83309 3.88155 6.11616 3.80675 6.42357C3.7289 6.73987 3.75015 7.20768 3.75018 7.54651L3.75054 8.85627Z" fill="#FE5A11"/>
</svg>
