<svg width="20" height="20" viewBox="0 0 20 20" fill="none" xmlns="http://www.w3.org/2000/svg">
<path d="M2.5 5.83333V3.33333C2.5 2.8731 2.8731 2.5 3.33333 2.5H16.6668C17.1269 2.5 17.5 2.87305 17.5001 3.33325L17.5004 5.83333H2.5ZM2.5 5.83333L8.04233 10.5839C8.22703 10.7423 8.33334 10.9733 8.33334 11.2166V16.4327C8.33334 16.9748 8.84286 17.3727 9.36878 17.2412L11.0354 16.8245C11.4064 16.7318 11.6667 16.3984 11.6667 16.016V11.2167C11.6667 10.9733 11.7729 10.7423 11.9577 10.5839L17.5004 5.83333H2.5ZM2.5 5.83333H17.5004Z" fill="white"/>
<path d="M2.5 5.83333H17.5004M2.5 5.83333V3.33333C2.5 2.8731 2.8731 2.5 3.33333 2.5H16.6668C17.1269 2.5 17.5 2.87305 17.5001 3.33325L17.5004 5.83333H2.5ZM2.5 5.83333L8.04233 10.5839C8.22703 10.7423 8.33334 10.9733 8.33334 11.2166V16.4327C8.33334 16.9748 8.84286 17.3727 9.36878 17.2412L11.0354 16.8245C11.4064 16.7318 11.6667 16.3984 11.6667 16.016V11.2167C11.6667 10.9733 11.7729 10.7423 11.9577 10.5839L17.5004 5.83333H2.5Z" stroke="#2C2D2E" stroke-width="1.5" stroke-linecap="round" stroke-linejoin="round"/>
</svg>
