<svg width="20" height="20" viewBox="0 0 20 20" fill="none" xmlns="http://www.w3.org/2000/svg">
<path d="M5.46305 3.75401C5.97024 3.73467 6.49091 3.75737 6.99977 3.74931C7.25827 3.74522 7.54947 3.74217 7.80526 3.76678C8.49068 3.83639 9.13372 4.13112 9.6339 4.60488C9.77705 4.74082 9.87568 4.86175 10.0011 5.01364C10.1029 4.88461 10.1963 4.76711 10.3132 4.65044C10.8014 4.16816 11.4351 3.86042 12.116 3.77492C12.304 3.75137 12.4713 3.7499 12.6595 3.74958L13.8564 3.74931C14.1243 3.74935 14.4435 3.74071 14.7056 3.76783C15.4181 3.84425 16.0826 4.16345 16.5876 4.67184C17.1108 5.19496 17.4303 5.88756 17.4886 6.62514C17.5104 6.88385 17.5009 7.22084 17.5008 7.48815L17.5007 8.86224C18.3528 9.22108 18.748 9.82329 18.7507 10.7494L18.7508 14.159L18.7512 15.1502C18.7512 15.3454 18.7549 15.5393 18.7369 15.7342C18.7254 15.9341 18.481 16.2015 18.2807 16.2322C18.0366 16.2694 17.6935 16.253 17.4368 16.2529L15.8057 16.2533H6.50485L3.42439 16.2529L2.46568 16.254C2.21888 16.2545 1.86356 16.282 1.63371 16.2015C1.50114 16.155 1.34205 15.9912 1.29444 15.863C1.26951 15.7959 1.25331 15.7128 1.25281 15.6403C1.24721 15.3206 1.25029 14.9974 1.25038 14.6777L1.25041 12.8486L1.2502 11.3301C1.24994 11.0509 1.24318 10.7616 1.25608 10.4842C1.28159 9.93618 1.58939 9.40055 2.04201 9.09357C2.19426 8.99031 2.32854 8.93132 2.49826 8.86473C2.50758 8.38629 2.4951 7.89946 2.50006 7.42037C2.50299 7.13775 2.49008 6.84691 2.51619 6.566C2.58034 5.91965 2.84363 5.30917 3.26967 4.81888C3.83994 4.16216 4.60324 3.81306 5.46305 3.75401ZM10.6253 9.99809L12.3982 9.99936C12.6475 9.99927 12.8973 9.99565 13.1463 10.0037C13.4855 10.0146 13.7512 10.2914 13.7476 10.6315C13.7466 10.8002 13.6762 10.9611 13.5528 11.0763C13.4553 11.169 13.3464 11.2297 13.2125 11.2412C12.9878 11.2603 12.744 11.2534 12.5179 11.2534L11.2345 11.2535L6.91287 11.2534C6.61658 11.2534 5.61484 11.2202 5.39679 11.2958C5.16202 11.3771 5.00791 11.6159 5.00161 11.8596C4.99745 12.0201 5.05531 12.1816 5.16714 12.2979C5.29636 12.4323 5.44832 12.4876 5.63132 12.499L11.6535 12.4999H13.5085H14.0574C14.3437 12.4999 14.5953 12.5328 14.8131 12.3135C14.8899 12.2374 14.945 12.142 14.9727 12.0374C15.0159 11.8713 14.9957 11.7039 15.0009 11.5369C15.0124 11.1725 14.9711 10.6824 15.0318 10.3339C15.081 10.0551 15.1905 9.79038 15.3527 9.55836C15.5872 9.21913 15.8743 9.0144 16.248 8.8557C16.2557 8.47662 16.2514 8.06556 16.2506 7.68518C16.2497 7.31246 16.2761 6.75672 16.1897 6.41367C16.1098 6.09758 15.9481 5.80804 15.721 5.57405C15.4047 5.24699 14.9223 5.0098 14.465 5.00902C13.816 5.00791 13.1483 4.98751 12.5006 5.00443C11.9573 5.02657 11.5006 5.19536 11.1245 5.60151C10.9015 5.84123 10.7462 6.13585 10.6743 6.45526C10.6164 6.71071 10.6267 6.94483 10.625 7.20334C10.6191 8.13417 10.6348 9.06751 10.6253 9.99809ZM17.4983 14.9992L17.5004 11.7823L17.5011 11.0635C17.5011 10.8881 17.5131 10.603 17.4686 10.4413C17.4422 10.3469 17.3915 10.2611 17.3217 10.1923C17.0727 9.94282 16.6833 9.94155 16.4391 10.1991C16.2283 10.4096 16.2526 10.6615 16.2495 10.9363C16.2456 11.2813 16.2614 11.6356 16.2448 11.9814C16.1982 12.9508 15.3708 13.745 14.3993 13.7509C13.7123 13.7551 13.0265 13.7533 12.3399 13.7533L8.38078 13.7531L6.45417 13.7534C6.16477 13.7538 5.58535 13.7694 5.32002 13.7253C4.94861 13.6632 4.60426 13.4915 4.33125 13.2321C3.67353 12.6162 3.74229 11.9031 3.75085 11.0847C3.75273 10.9053 3.76403 10.6338 3.71381 10.4648C3.6797 10.3518 3.61601 10.2499 3.52933 10.1697C3.39464 10.0433 3.21826 9.98598 3.03521 10.013C2.75072 10.052 2.53381 10.2638 2.50938 10.554C2.49493 10.7254 2.50017 10.8981 2.50024 11.0703L2.50056 11.9528L2.50032 14.9981L17.4983 14.9992ZM3.75054 8.85633C4.2791 9.08547 4.64737 9.42693 4.85967 9.97182C4.87971 10.0247 4.89829 10.078 4.91539 10.1318C5.0351 10.0957 5.21486 10.0394 5.33391 10.0238C5.5999 9.98901 5.89418 9.99917 6.16454 9.99917L7.38769 9.99966C8.04011 9.99966 8.72371 10.0108 9.37334 9.99917L9.37541 7.90459L9.37566 7.25069C9.37587 6.96977 9.38507 6.70635 9.31866 6.42985C9.23866 6.10092 9.07037 5.80007 8.83197 5.55973C8.42815 5.15029 7.93949 4.99264 7.378 5.00322C6.80168 5.01408 6.19619 4.98855 5.6223 5.00455C5.07987 5.02777 4.62521 5.19572 4.24949 5.6015C4.03399 5.83315 3.88155 6.11622 3.80675 6.42363C3.7289 6.73993 3.75015 7.20774 3.75018 7.54657L3.75054 8.85633Z" fill="#83888D"/>
</svg>
