<svg width="20" height="20" viewBox="0 0 20 20" fill="none" xmlns="http://www.w3.org/2000/svg">
<path d="M1.82577 1.25329C1.86494 1.25144 1.90414 1.25027 1.94334 1.2498L7.86429 1.24954L9.76572 1.24936L10.3447 1.24941C10.4605 1.2495 10.5775 1.24774 10.6929 1.25691C10.9618 1.27826 11.2098 1.51065 11.2391 1.78073C11.2595 1.96978 11.2515 2.16919 11.2511 2.36022L11.2502 3.33319L11.2517 6.73844C11.2516 6.806 11.2522 6.87359 11.2438 6.94001C11.1987 7.29328 10.9222 7.50668 10.5722 7.50295C9.81641 7.49488 9.05748 7.51328 8.30206 7.50314C8.3179 7.55957 8.33203 7.62054 8.34566 7.67773C8.43001 8.03188 8.52936 8.38514 8.60889 8.7402C8.72795 8.75644 8.999 8.75008 9.12774 8.75006L10.0691 8.7496L14.6989 8.74956L16.1812 8.74927C16.4333 8.74926 16.7837 8.73934 17.0276 8.75869C17.2063 8.7721 17.3818 8.81162 17.549 8.87599C18.0105 9.0552 18.3832 9.40877 18.5863 9.86034C18.7875 10.3127 18.8013 10.8264 18.6245 11.2888C18.4091 11.8429 18.0328 12.1567 17.5042 12.3901C17.4934 12.5331 17.5003 12.7614 17.5003 12.9114L17.5004 13.8527L17.5007 16.8345L17.5008 17.6827C17.5009 17.8624 17.5088 18.049 17.4861 18.2268C17.448 18.5251 17.1731 18.7505 16.8751 18.7496C16.7069 18.7496 16.546 18.6815 16.4289 18.5607C16.3493 18.4783 16.2705 18.3534 16.2615 18.2391C16.2423 17.9963 16.2499 17.7385 16.25 17.4947L16.2506 16.057L16.25 13.3246C16.25 12.8593 16.2489 12.3921 16.2512 11.9267C16.2515 11.8627 16.265 11.7223 16.2841 11.665C16.3552 11.47 16.5161 11.317 16.7205 11.2714C16.798 11.2555 16.8806 11.249 16.9588 11.2377C17.271 11.1926 17.4979 10.9379 17.4968 10.6206C17.4963 10.4543 17.4285 10.3005 17.3119 10.1819C17.2095 10.0776 17.0897 10.0251 16.945 10.0134C16.7976 9.99901 16.6548 10.0028 16.5071 10.0027L15.8846 10.0028L13.7849 10.0034L6.92871 10.0032H4.30715L3.52963 10.0029C3.36937 10.0027 3.21157 9.99862 3.05159 10.0117C2.75937 10.0355 2.53787 10.2685 2.50558 10.5564C2.48602 10.7217 2.53447 10.8877 2.63982 11.0164C2.7338 11.1328 2.8671 11.2107 3.01459 11.2356C3.17185 11.261 3.65752 11.2502 3.84731 11.2501L5.47607 11.2494L11.6121 11.2496L13.5001 11.2492H14.0673C14.3784 11.2492 14.6489 11.2182 14.8633 11.4884C14.9672 11.6187 15.0145 11.7853 14.9945 11.9509C14.958 12.2615 14.6859 12.4966 14.3762 12.5002C14.1191 12.5031 13.8631 12.5036 13.6061 12.5034L12.1951 12.503L7.81725 12.5031L4.99221 12.5032L4.2203 12.5038C4.0953 12.5046 3.86854 12.5132 3.75084 12.4988L3.75055 16.447L3.75105 17.5879C3.75111 17.7797 3.76457 17.9964 3.74266 18.1875C3.66 18.9081 2.64725 18.9418 2.51251 18.2361C2.4807 18.0695 2.49974 17.7822 2.49985 17.6066L2.50058 16.4648L2.49879 12.3922C2.23074 12.2702 2.04133 12.1794 1.82369 11.9684C1.46366 11.6221 1.25775 11.1457 1.25215 10.6463C1.24568 10.1394 1.4434 9.65128 1.80079 9.29185C2.42014 8.66946 3.09038 8.74845 3.88045 8.74974C3.92589 8.60704 3.96508 8.43315 4.00173 8.28625L4.19768 7.50408L2.59183 7.50367C2.32112 7.50409 2.02168 7.51496 1.75432 7.48752C1.54075 7.46561 1.2813 7.2135 1.26265 6.99744C1.2412 6.74885 1.24979 6.47524 1.24998 6.22049L1.25033 4.66877L1.2501 2.73915L1.25013 2.14822C1.25015 2.04086 1.24402 1.9164 1.25603 1.81071C1.2932 1.48362 1.51138 1.29414 1.82577 1.25329ZM2.50032 6.24804L8.19929 6.24982L9.49418 6.24978C9.56006 6.24977 9.94922 6.25451 9.99229 6.24266L9.99736 6.23726C10.0221 4.99731 9.97354 3.74485 10.0022 2.50637C9.34142 2.49844 8.67277 2.50307 8.01128 2.503L4.6209 2.50294L3.15988 2.50311C3.01316 2.50329 2.61634 2.51528 2.50224 2.49817C2.48172 3.73963 2.51293 5.00408 2.50032 6.24804ZM5.48686 7.5046L5.28127 8.33065C5.25538 8.43493 5.20757 8.65323 5.17242 8.74777L6.84082 8.74969L7.32613 8.75048C7.28829 8.64818 7.21408 8.32825 7.18719 8.21111C7.13937 8.00273 7.05312 7.71318 7.01954 7.51135C6.90164 7.49942 6.76492 7.50107 6.64566 7.50264C6.31731 7.50694 5.98532 7.4969 5.65737 7.50477C5.59798 7.50607 5.54637 7.50691 5.48686 7.5046Z" fill="#83888D"/>
</svg>
