<svg width="20" height="20" viewBox="0 0 20 20" fill="none" xmlns="http://www.w3.org/2000/svg">
<path d="M11.1537 7.50398C11.1703 7.50298 11.187 7.50245 11.2036 7.50235C12.2557 7.4895 13.096 8.28923 13.124 9.34235C13.1335 9.70007 12.8545 10.0064 12.4923 10.0004C12.2145 9.99747 11.9726 9.81016 11.9 9.542C11.8818 9.47421 11.8735 9.37548 11.8649 9.30374C11.7896 8.6215 10.8152 8.56269 10.6476 9.21419C10.6018 9.39196 10.625 9.77618 10.6251 9.97706L10.6253 11.2481L15.8768 11.2496L17.3862 11.2492C17.5952 11.2491 17.9965 11.238 18.1866 11.2568C18.3525 11.2718 18.5053 11.3533 18.6101 11.4829C18.7147 11.6122 18.7631 11.7782 18.744 11.9436C18.7236 12.1252 18.6372 12.2606 18.4961 12.3741C18.3027 12.5298 18.0835 12.5002 17.8503 12.5053C17.7499 12.5075 17.5981 12.5106 17.5009 12.4987L17.5005 16.3985L17.5013 17.5589C17.5014 17.7656 17.5053 17.9711 17.4944 18.1798C17.4805 18.4488 17.2386 18.7118 16.9703 18.7434C16.8296 18.7599 16.6522 18.7532 16.5086 18.7533H15.6754L12.7348 18.7532H6.34075L4.25142 18.7534C3.88606 18.7536 3.52075 18.7546 3.15542 18.752C2.81971 18.7496 2.56407 18.5471 2.5063 18.2113C2.48125 17.9209 2.50006 17.5352 2.50015 17.238L2.50031 15.6418L2.50002 14.7885C2.49983 14.6221 2.48915 14.4267 2.51324 14.2645C2.55853 13.9598 2.81989 13.7549 3.1194 13.7526C3.28643 13.7509 3.44717 13.8162 3.56558 13.934C3.78984 14.1567 3.75073 14.4266 3.75087 14.7188L3.75098 15.3026L3.75031 17.4981L9.37331 17.4991C9.38883 15.8387 9.35583 14.1647 9.37726 12.5064C8.7314 12.4977 8.07411 12.5032 7.42747 12.5032L4.03203 12.5029L2.56321 12.503C2.31375 12.503 2.0415 12.5169 1.79529 12.494C1.49015 12.4658 1.25336 12.1846 1.25166 11.884C1.24928 11.7106 1.31772 11.5437 1.44116 11.4218C1.61432 11.2517 1.79718 11.2503 2.02711 11.2495C2.22078 11.2488 2.41504 11.2494 2.60877 11.2494H4.17739L9.37331 11.2491C9.38076 10.718 9.37122 10.1849 9.37494 9.65345C9.37668 9.40478 9.37012 9.17858 9.42847 8.93282C9.50045 8.63705 9.64252 8.36294 9.84267 8.1336C10.1796 7.74399 10.6448 7.53863 11.1537 7.50398ZM10.6253 17.4981L14.8768 17.4999C15.0324 17.4999 16.1777 17.5153 16.2435 17.4913L16.2474 17.4873C16.2562 17.0383 16.2504 16.5721 16.2504 16.122L16.2503 13.6681C16.2502 13.2863 16.2441 12.8859 16.2522 12.5064C14.9135 12.4903 13.5515 12.5027 12.2111 12.503L11.127 12.5038C11.0143 12.504 10.7193 12.5129 10.6272 12.4982C10.6242 12.9318 10.6235 13.3654 10.6253 13.7991C10.6258 15.0248 10.6381 16.274 10.6253 17.4981Z" fill="#83888D"/>
<path d="M12.4365 14.3788C12.7792 14.3444 13.085 14.594 13.1199 14.9366C13.1549 15.2792 12.9059 15.5854 12.5633 15.621C12.2199 15.6566 11.9128 15.4068 11.8777 15.0633C11.8427 14.7199 12.093 14.4132 12.4365 14.3788Z" fill="#83888D"/>
<path d="M1.82578 1.25326C2.1868 1.23899 2.59926 1.24937 2.96575 1.24944L5.03465 1.24952L11.3633 1.24961L15.9385 1.24967L17.4083 1.24964C17.656 1.24962 17.915 1.24182 18.1613 1.25362C18.5027 1.26998 18.7505 1.55612 18.7501 1.89415C18.7498 2.15139 18.7502 2.41558 18.7502 2.67589L18.7506 4.24917L18.7513 5.18371C18.7514 5.35455 18.7637 5.56381 18.7375 5.72929C18.6865 6.05264 18.406 6.25209 18.0919 6.25194C17.6738 6.25172 17.2638 6.25286 16.8498 6.25291L14.3812 6.25333L13.0829 6.25361C12.918 6.25362 12.7515 6.2528 12.5868 6.25289C12.3803 6.25302 12.2249 6.22283 12.069 6.07597C11.8086 5.83054 11.8147 5.42531 12.0644 5.17457C12.1338 5.10424 12.2206 5.05347 12.316 5.02736C12.47 4.98666 12.7873 4.99876 12.9551 4.99882L13.7158 4.99956L17.4983 4.99909C17.5076 4.16958 17.4914 3.33544 17.5022 2.50633C15.895 2.48598 14.2549 2.50328 12.645 2.50319L11.2868 2.5033C11.1304 2.50342 10.7646 2.51556 10.6259 2.49877L10.6253 4.67325L10.6265 5.29764C10.6269 5.52322 10.6538 5.7762 10.518 5.97023C10.3016 6.2795 10.0436 6.25299 9.70771 6.25332L9.07552 6.25324L6.87934 6.25322L3.48568 6.25288L2.46146 6.25351C2.25488 6.25418 2.05096 6.25616 1.84399 6.24915C1.57298 6.23998 1.28761 6.00787 1.26106 5.73215C1.24081 5.52191 1.24979 5.28449 1.25013 5.06984L1.25067 3.8483L1.25014 2.51105C1.25002 2.42941 1.25012 2.34669 1.24972 2.26528C1.248 1.91693 1.20386 1.5396 1.55398 1.33533C1.64827 1.28032 1.71842 1.26765 1.82578 1.25326ZM9.37236 4.98722C9.38659 4.28653 9.36748 3.581 9.37525 2.87985C9.37663 2.75566 9.37346 2.63038 9.37726 2.50632C7.74519 2.48737 6.08312 2.50279 4.44898 2.50287L3.12815 2.50303C2.98557 2.50322 2.61604 2.51525 2.50222 2.49813C2.48952 3.32823 2.50919 4.16751 2.50032 4.998L7.74288 4.99979L8.90123 4.99974C8.96815 4.99974 9.32421 5.0045 9.36727 4.99262L9.37236 4.98722Z" fill="#83888D"/>
<path d="M7.43651 14.3788C7.77917 14.3444 8.08496 14.594 8.11993 14.9366C8.1549 15.2792 7.90586 15.5854 7.56332 15.621C7.21992 15.6566 6.91277 15.4068 6.87771 15.0633C6.84264 14.7199 7.093 14.4132 7.43651 14.3788Z" fill="#83888D"/>
</svg>
