<svg width="20" height="20" viewBox="0 0 20 20" fill="none" xmlns="http://www.w3.org/2000/svg">
<path d="M3.52537 1.25404C3.77466 1.24503 4.04105 1.24941 4.29152 1.24946L5.54553 1.24958L13.3795 1.2496L15.4807 1.24943C15.7695 1.24928 16.0586 1.25007 16.3474 1.25019C16.7986 1.25037 17.2079 1.38827 17.5614 1.67456C17.9472 1.98912 18.1909 2.44499 18.2385 2.94048C18.2552 3.10376 18.251 3.28115 18.2509 3.44628L18.2506 4.12527L18.251 5.08584C18.2512 5.85305 18.282 6.24299 17.7619 6.8775C18.0333 7.17293 18.2005 7.54905 18.2381 7.94845C18.2555 8.12037 18.2507 8.31689 18.2508 8.49183L18.251 9.2463L18.2509 10.1203C18.2506 10.8794 18.2734 11.2515 17.7619 11.8775C17.8923 12.0199 17.9997 12.1818 18.0802 12.3574C18.1581 12.5269 18.2093 12.7074 18.2319 12.8926C18.2565 13.0978 18.2506 13.3045 18.2508 13.5111L18.2509 14.3388L18.2507 15.2048C18.2507 15.402 18.2564 15.6148 18.2375 15.8095C18.2223 15.9734 18.1845 16.1344 18.125 16.2879C17.9139 16.8407 17.5286 17.1583 17.0042 17.3901C16.9769 17.7456 17.0815 18.2365 16.8672 18.5066C16.7622 18.6387 16.6205 18.7254 16.452 18.7456C16.2862 18.7662 16.1193 18.7187 15.9894 18.6138C15.8376 18.494 15.7764 18.3678 15.7536 18.1803C15.7438 17.9762 15.7498 17.7117 15.7522 17.5064C15.1036 17.4977 14.4441 17.5032 13.7947 17.5032L6.40201 17.5028L4.94154 17.5029C4.77707 17.503 4.39495 17.5165 4.25085 17.4988C4.24966 17.6333 4.25059 17.7728 4.25161 17.9066C4.25356 18.1616 4.26032 18.3652 4.07007 18.5592C3.82031 18.8139 3.43385 18.8134 3.18138 18.5642C2.96865 18.3541 2.9988 18.1113 2.99984 17.8381C3.00073 17.6895 3.00037 17.5408 2.99878 17.3922C2.75955 17.2812 2.60311 17.2122 2.39759 17.0345C2.11615 16.7924 1.91376 16.4715 1.81658 16.1132C1.78402 15.9928 1.76365 15.8693 1.75578 15.7449C1.73388 15.4018 1.75062 14.8875 1.75045 14.5349L1.74984 13.6445C1.74971 13.32 1.73183 12.9802 1.80989 12.666C1.85636 12.479 1.92966 12.3233 2.02203 12.1601C2.03616 12.1231 2.23179 11.891 2.21532 11.8691C1.97238 11.5452 1.79347 11.2182 1.76047 10.8045C1.74518 10.6128 1.75016 10.421 1.75006 10.2301L1.7498 9.3415L1.74992 8.51684C1.75012 8.03416 1.74659 7.57829 2.02416 7.15666C2.27254 6.77936 2.27201 6.97871 2.05004 6.63652C1.88186 6.37458 1.78123 6.07504 1.75716 5.76469C1.74609 5.61033 1.74991 5.43571 1.75001 5.27904L1.75054 4.51707L1.74988 3.60004C1.74978 3.3108 1.73593 2.9811 1.79897 2.70246C1.86987 2.39687 2.01539 2.11361 2.22254 1.87801C2.55959 1.49194 3.01938 1.28994 3.52537 1.25404ZM16.3682 16.2484C16.687 16.2239 16.9285 16.0549 16.987 15.7197C17.0123 15.5749 17.0011 15.3991 17.001 15.2496L17.0002 14.4845L17.0009 13.608C17.0018 13.19 17.0691 12.6188 16.4849 12.5179C16.2945 12.4851 16.0368 12.5025 15.8397 12.5025L14.7856 12.5032L7.24733 12.503C6.96281 12.5031 6.1197 12.5371 5.90221 12.4585C5.68682 12.3808 5.52556 12.1696 5.50379 11.9426C5.48696 11.7711 5.53941 11.5999 5.64948 11.4674C5.78627 11.3042 5.94555 11.2549 6.15187 11.2512C6.32032 11.2482 6.48913 11.2493 6.65752 11.2492L7.70229 11.2494H14.9938L15.9089 11.2502C16.1887 11.2506 16.5185 11.2957 16.7501 11.1178C17.042 10.8937 17.0004 10.5931 17.0006 10.2656L17.0009 9.53364L17.0007 8.60522C17.0006 8.45309 17.0072 8.21035 16.9933 8.06407C16.9772 7.89987 16.8972 7.7486 16.7703 7.64306C16.5853 7.49124 16.4261 7.52763 16.2227 7.47793C15.9742 7.41727 15.7852 7.21465 15.7562 6.95527C15.7355 6.78149 15.786 6.60677 15.8962 6.47074C16.1358 6.17614 16.3871 6.31419 16.6725 6.16965C16.7984 6.10584 16.9354 5.94551 16.9682 5.81005C17.0171 5.60799 17.0005 5.29395 17.0006 5.07825L17.0007 4.18374L17.0006 3.51953C17.0008 3.19216 17.0462 2.86748 16.7664 2.64028C16.5508 2.46517 16.2197 2.5024 15.9587 2.50247L15.2277 2.50291L12.9344 2.50331L5.42149 2.5031L4.25129 2.50305C4.0607 2.50304 3.83559 2.49772 3.6469 2.50439C3.53834 2.51235 3.45131 2.51725 3.35165 2.56452C2.95619 2.75214 2.99924 3.13534 2.99973 3.49769L3.00114 4.29827L2.99995 5.18865C2.99929 5.50861 2.94345 5.86856 3.22137 6.09822C3.46867 6.30259 3.81683 6.25049 4.1263 6.25027L5.19634 6.24955L12.7679 6.24984C13.0458 6.24982 13.8772 6.21788 14.0851 6.2887C14.3087 6.36493 14.4724 6.57765 14.4956 6.81169C14.5124 6.97757 14.4614 7.14317 14.3542 7.27085C14.2381 7.40974 14.0827 7.49146 13.9024 7.49918C13.7123 7.50732 13.5138 7.50379 13.3232 7.5035L12.3058 7.50322L5.04042 7.50345L4.10365 7.50246C3.71087 7.50202 3.22958 7.43128 3.0476 7.8865C2.98165 8.05147 2.99974 8.28726 2.9999 8.46544L3.00061 9.15609L3.00013 10.1185C2.9999 10.2973 2.99677 10.4849 3.00384 10.6624C3.01069 10.8343 3.08986 10.9852 3.21791 11.096C3.40327 11.2564 3.56508 11.2289 3.77691 11.274C4.03799 11.3297 4.23248 11.5693 4.24735 11.8355C4.25699 12.0083 4.20732 12.1472 4.09727 12.2787C3.82215 12.6074 3.52985 12.4132 3.23324 12.636C3.1394 12.7066 3.04415 12.8525 3.0226 12.9655C2.98884 13.1429 2.99987 13.3733 3.00007 13.5566L3.0012 14.4121L3.00014 15.2109C2.99985 15.3559 2.99843 15.5018 3.00223 15.6445C3.01075 15.9644 3.266 16.2268 3.58521 16.2442C3.71286 16.2511 3.83724 16.2504 3.96588 16.2503L4.6096 16.25L6.60784 16.2494L14.3885 16.2496C15.0429 16.2496 15.715 16.2573 16.3682 16.2484Z" fill="#83888D"/>
<path d="M9.32567 13.7533C9.69 13.7383 10.0628 13.7557 10.4279 13.749C10.6417 13.7452 10.8252 13.7457 11.0032 13.8799C11.1341 13.9783 11.2201 14.1251 11.2422 14.2874C11.2653 14.451 11.2222 14.617 11.1222 14.7485C11.0069 14.8993 10.8653 14.9745 10.6792 14.9984C10.3454 15.0105 10.0066 15.0001 9.67226 15.0042C9.54339 15.0058 9.37876 15.0105 9.25407 14.9861C9.16166 14.9688 9.07456 14.9302 8.99972 14.8733C8.86672 14.7729 8.78067 14.6394 8.75773 14.4729C8.73241 14.2992 8.7789 14.1228 8.88647 13.9842C9.00468 13.8323 9.1403 13.7775 9.32567 13.7533Z" fill="#83888D"/>
<path d="M9.32567 8.75327C9.68996 8.73824 10.0628 8.75561 10.4279 8.74902C10.6343 8.7453 10.8168 8.74535 10.9911 8.87091C11.1272 8.96819 11.2177 9.11687 11.2415 9.28248C11.2659 9.44619 11.2238 9.61287 11.1245 9.74531C11.0088 9.89841 10.8674 9.9738 10.6793 9.99831C10.3438 10.0105 10.0035 9.99997 9.66757 10.0042C9.5399 10.0057 9.3776 10.0102 9.25408 9.9861C9.16167 9.96872 9.07456 9.93014 8.99971 9.87321C8.86672 9.77292 8.78068 9.63931 8.75773 9.47286C8.73241 9.29922 8.77889 9.12274 8.88647 8.98411C9.00485 8.83208 9.14032 8.7774 9.32567 8.75327Z" fill="#83888D"/>
<path d="M9.32568 3.75327C9.69 3.73824 10.0628 3.7556 10.4279 3.74903C10.6417 3.74518 10.8252 3.74573 11.0032 3.87982C11.1341 3.97833 11.2201 4.12508 11.2422 4.28738C11.2653 4.45093 11.2222 4.61696 11.1222 4.74845C11.0069 4.89924 10.8653 4.97449 10.6793 4.99827C10.3438 5.01051 10.0035 5.00001 9.66757 5.00416C9.53988 5.00573 9.37763 5.01022 9.25408 4.98607C9.16167 4.96876 9.07456 4.93012 8.99971 4.87321C8.86672 4.77285 8.78068 4.63934 8.75773 4.47286C8.73241 4.29922 8.7789 4.12276 8.88647 3.98411C9.00484 3.83207 9.14033 3.7774 9.32568 3.75327Z" fill="#83888D"/>
</svg>
