<svg width="20" height="20" viewBox="0 0 20 20" fill="none" xmlns="http://www.w3.org/2000/svg">
<path d="M1.82577 1.25335C1.86494 1.2515 1.90414 1.25034 1.94334 1.24986L7.86429 1.2496L9.76572 1.24942L10.3447 1.24947C10.4605 1.24956 10.5775 1.2478 10.6929 1.25697C10.9618 1.27832 11.2098 1.51071 11.2391 1.78079C11.2595 1.96984 11.2515 2.16925 11.2511 2.36028L11.2502 3.33326L11.2517 6.7385C11.2516 6.80606 11.2522 6.87366 11.2438 6.94007C11.1987 7.29334 10.9222 7.50674 10.5722 7.50301C9.81641 7.49494 9.05748 7.51334 8.30206 7.5032C8.3179 7.55963 8.33203 7.6206 8.34566 7.6778C8.43001 8.03194 8.52936 8.3852 8.60889 8.74026C8.72795 8.7565 8.999 8.75014 9.12774 8.75012L10.0691 8.74966L14.6989 8.74962L16.1812 8.74933C16.4333 8.74932 16.7837 8.7394 17.0276 8.75875C17.2063 8.77216 17.3818 8.81168 17.549 8.87605C18.0105 9.05526 18.3832 9.40883 18.5863 9.8604C18.7875 10.3127 18.8013 10.8264 18.6245 11.2888C18.4091 11.8429 18.0328 12.1568 17.5042 12.3902C17.4934 12.5332 17.5003 12.7615 17.5003 12.9115L17.5004 13.8528L17.5007 16.8345L17.5008 17.6828C17.5009 17.8625 17.5088 18.0491 17.4861 18.2269C17.448 18.5251 17.1731 18.7505 16.8751 18.7497C16.7069 18.7497 16.546 18.6816 16.4289 18.5608C16.3493 18.4784 16.2705 18.3535 16.2615 18.2392C16.2423 17.9963 16.2499 17.7385 16.25 17.4948L16.2506 16.0571L16.25 13.3247C16.25 12.8593 16.2489 12.3921 16.2512 11.9268C16.2515 11.8627 16.265 11.7223 16.2841 11.6651C16.3552 11.4701 16.5161 11.317 16.7205 11.2714C16.798 11.2555 16.8806 11.2491 16.9588 11.2377C17.271 11.1926 17.4979 10.9379 17.4968 10.6207C17.4963 10.4543 17.4285 10.3005 17.3119 10.182C17.2095 10.0777 17.0897 10.0251 16.945 10.0134C16.7976 9.99907 16.6548 10.0029 16.5071 10.0028L15.8846 10.0029L13.7849 10.0035L6.92871 10.0033H4.30715L3.52963 10.003C3.36937 10.0028 3.21157 9.99868 3.05159 10.0118C2.75937 10.0356 2.53787 10.2686 2.50558 10.5565C2.48602 10.7217 2.53447 10.8877 2.63982 11.0165C2.7338 11.1329 2.8671 11.2108 3.01459 11.2357C3.17185 11.2611 3.65752 11.2502 3.84731 11.2501L5.47607 11.2495L11.6121 11.2497L13.5001 11.2493H14.0673C14.3784 11.2493 14.6489 11.2182 14.8633 11.4884C14.9672 11.6188 15.0145 11.7854 14.9945 11.9509C14.958 12.2616 14.6859 12.4966 14.3762 12.5002C14.1191 12.5032 13.8631 12.5037 13.6061 12.5035L12.1951 12.5031L7.81725 12.5032L4.99221 12.5033L4.2203 12.5039C4.0953 12.5046 3.86854 12.5132 3.75084 12.4989L3.75055 16.447L3.75105 17.5879C3.75111 17.7797 3.76457 17.9964 3.74266 18.1876C3.66 18.9082 2.64725 18.9418 2.51251 18.2362C2.4807 18.0696 2.49974 17.7823 2.49985 17.6067L2.50058 16.4649L2.49879 12.3922C2.23074 12.2703 2.04133 12.1794 1.82369 11.9684C1.46366 11.6221 1.25775 11.1458 1.25215 10.6463C1.24568 10.1395 1.4434 9.65134 1.80079 9.29191C2.42014 8.66952 3.09038 8.74851 3.88045 8.7498C3.92589 8.6071 3.96508 8.43322 4.00173 8.28631L4.19768 7.50414L2.59183 7.50373C2.32112 7.50415 2.02168 7.51502 1.75432 7.48758C1.54075 7.46567 1.2813 7.21356 1.26265 6.9975C1.2412 6.74891 1.24979 6.4753 1.24998 6.22055L1.25033 4.66883L1.2501 2.73921L1.25013 2.14829C1.25015 2.04092 1.24402 1.91646 1.25603 1.81078C1.2932 1.48369 1.51138 1.2942 1.82577 1.25335ZM2.50032 6.2481L8.19929 6.24989L9.49418 6.24984C9.56006 6.24983 9.94922 6.25457 9.99229 6.24272L9.99736 6.23732C10.0221 4.99737 9.97354 3.74491 10.0022 2.50643C9.34142 2.4985 8.67277 2.50313 8.01128 2.50306L4.6209 2.503L3.15988 2.50317C3.01316 2.50335 2.61634 2.51535 2.50224 2.49823C2.48172 3.73969 2.51293 5.00414 2.50032 6.2481ZM5.48686 7.50466L5.28127 8.33072C5.25538 8.43499 5.20757 8.65329 5.17242 8.74784L6.84082 8.74975L7.32613 8.75054C7.28829 8.64824 7.21408 8.32831 7.18719 8.21117C7.13937 8.0028 7.05312 7.71325 7.01954 7.51141C6.90164 7.49949 6.76492 7.50114 6.64566 7.5027C6.31731 7.507 5.98532 7.49697 5.65737 7.50483C5.59798 7.50613 5.54637 7.50698 5.48686 7.50466Z" fill="#83888D"/>
</svg>
