<svg width="20" height="20" viewBox="0 0 20 20" fill="none" xmlns="http://www.w3.org/2000/svg">
<path d="M3.02539 1.25406C3.31997 1.23797 3.71722 1.24944 4.01671 1.24951L5.86063 1.24957L11.5368 1.24959L15.2395 1.24957L16.3542 1.24941C17.034 1.24917 17.5096 1.21903 18.0742 1.68505C18.4603 2.00583 18.7007 2.46873 18.7411 2.96906C18.7628 3.21671 18.751 3.61591 18.7508 3.87104L18.7505 5.45822L18.7508 10.5916V14.9752L18.7507 16.2963C18.7507 16.5187 18.7604 16.8672 18.7363 17.0798C18.6963 17.4506 18.5457 17.8008 18.3041 18.085C17.9667 18.4858 17.5104 18.7049 16.9927 18.7481C16.6258 18.7609 16.2236 18.7532 15.855 18.7533L13.8881 18.7534L7.92183 18.7533H4.57163L3.5891 18.7535C3.37507 18.7537 3.09366 18.761 2.88667 18.7353C2.5245 18.689 2.18392 18.5373 1.90727 18.299C1.53009 17.9797 1.29628 17.5228 1.25796 17.0301C1.23781 16.7636 1.25 16.3531 1.25025 16.0789L1.25043 14.3682L1.25016 8.96634V4.87585L1.25022 3.65215C1.25024 3.42021 1.24089 3.10417 1.26812 2.88017C1.31586 2.50816 1.47418 2.15904 1.72259 1.87803C2.05969 1.49168 2.51924 1.29009 3.02539 1.25406ZM8.75488 17.4996C8.95776 17.4995 9.17127 17.5027 9.37335 17.4991L9.37531 6.98567L9.37527 4.0399C9.37526 3.54336 9.36361 2.99846 9.37726 2.50642C8.143 2.49131 6.8845 2.50292 5.64853 2.50289L4.01277 2.50291C3.7333 2.50293 3.42581 2.49679 3.14787 2.50433C2.93443 2.52029 2.80313 2.55166 2.65014 2.7165C2.56838 2.8046 2.50538 2.97113 2.50323 3.09107C2.49834 3.36323 2.5005 3.64331 2.5005 3.91621L2.50053 5.52426L2.50061 10.526L2.50071 14.8587L2.50019 16.2141C2.50008 16.4537 2.49468 16.7007 2.5055 16.9401C2.5175 17.2056 2.76993 17.462 3.03258 17.489C3.2358 17.5083 3.47289 17.5003 3.68007 17.5002L4.84961 17.4996H8.75488ZM10.6272 2.4982C10.6205 2.91453 10.6298 3.33228 10.6253 3.74805L15.1186 3.7498L16.6902 3.74973C16.9358 3.74972 17.2607 3.7593 17.4984 3.74837L17.501 3.35847C17.5021 3.10229 17.5112 2.88703 17.3191 2.68893C17.1385 2.5026 16.9362 2.5026 16.6903 2.50238L12.3535 2.50299L11.178 2.50378C11.0602 2.50394 10.72 2.51304 10.6272 2.4982ZM15.0009 4.99884C15.0015 5.6822 15.0654 6.34347 14.5881 6.90034C14.4252 7.09033 14.1981 7.33114 14.0101 7.4965C14.3963 7.51278 14.7912 7.4903 15.1781 7.49935C15.5095 7.50711 15.8362 7.43475 16.0848 7.70554C16.1974 7.82648 16.2561 7.98778 16.2478 8.15275C16.2344 8.41428 16.034 8.68215 15.7646 8.73608C15.6103 8.76696 15.3773 8.7533 15.2151 8.75336L14.3434 8.75359L13.1361 8.75367C12.9256 8.75366 12.706 8.75048 12.4993 8.74948C12.006 8.74709 11.7105 8.20356 11.972 7.79325C12.0782 7.62652 12.3235 7.40935 12.4699 7.26329L13.3214 6.41318C13.4218 6.31291 13.6631 6.09201 13.7021 5.9668C13.7839 5.70547 13.7435 5.29523 13.7522 5.0064C13.0206 4.99758 12.2804 5.00245 11.5481 5.00293L10.9645 5.00441C10.8716 5.00485 10.713 5.01194 10.6272 4.99823C10.6121 5.98464 10.6252 7.00381 10.6254 7.99219L10.6253 14.9981L14.216 14.9996L15.1989 14.9992C15.3224 14.9992 15.6133 14.9929 15.7196 15.0099C15.8529 15.0303 15.9763 15.0929 16.0714 15.1884C16.1873 15.308 16.2505 15.4691 16.2469 15.6355C16.2422 15.8206 16.1811 15.9526 16.0478 16.08C15.9829 16.142 15.8534 16.2258 15.7654 16.2355C15.5198 16.2626 15.2456 16.2533 14.997 16.2533H13.6833H11.6395L10.9887 16.2535C10.8763 16.2538 10.734 16.2642 10.6259 16.2489L10.6253 17.4981L14.9798 17.4993L16.2797 17.5001C16.4516 17.5001 16.8151 17.5102 16.9651 17.4888C17.0961 17.4704 17.2173 17.4095 17.3102 17.3154C17.3754 17.2506 17.4569 17.1332 17.4729 17.0454C17.5153 16.8128 17.5009 16.5456 17.5009 16.3086L17.5004 15.2393L17.5002 8.44762V6.20193C17.5002 5.81765 17.4911 5.38808 17.5022 5.0064C16.9237 5.00228 16.3451 5.00113 15.7665 5.00295L15.3147 5.0046C15.2189 5.00541 15.0929 5.01105 15.0009 4.99884Z" fill="#83888D"/>
<path d="M7.44894 8.7533C7.77613 8.73338 8.08105 8.95751 8.11587 9.29422C8.13594 9.4882 8.13125 9.7495 8.1254 9.94642C8.11855 10.1769 8.15113 10.5193 8.11054 10.7389C8.09349 10.8353 8.05345 10.9262 7.99383 11.0038C7.88007 11.1519 7.739 11.2236 7.55737 11.2489C7.23338 11.2629 6.92059 11.0578 6.88413 10.7144C6.86345 10.5196 6.87027 10.2514 6.87561 10.0535C6.88186 9.8222 6.84878 9.46725 6.8918 9.24699C6.91024 9.15126 6.95085 9.06119 7.01037 8.984C7.12712 8.83264 7.26519 8.77847 7.44894 8.7533Z" fill="#83888D"/>
</svg>
