<svg width="20" height="20" viewBox="0 0 20 20" fill="none" xmlns="http://www.w3.org/2000/svg">
<path d="M5.46364 3.75398C5.55812 3.75079 5.65265 3.74932 5.74719 3.74956L11.9459 3.7496L13.6043 3.74933C14.052 3.74926 14.5734 3.72526 15.0042 3.8144C15.6022 3.93792 16.1509 4.23406 16.5823 4.66619C17.1105 5.19224 17.4324 5.89037 17.4895 6.63365C17.51 6.883 17.5008 7.2105 17.5008 7.4653L17.5004 8.85997C17.8366 9.00512 18.0891 9.15444 18.3247 9.44419C18.5225 9.68521 18.6565 9.97198 18.7146 10.2783C18.7657 10.5509 18.7509 10.9713 18.7508 11.2645L18.7506 12.664L18.7511 13.8247C18.7511 14.0282 18.7568 14.2401 18.7433 14.4418C18.7266 14.6898 18.5234 14.9155 18.2865 14.9781C18.1478 15.0148 17.993 15.0007 17.8505 15.0055C17.7404 15.0069 17.6093 15.0119 17.5009 14.9987L17.5017 15.4065C17.502 15.6606 17.5102 15.8691 17.3171 16.0635C17.0638 16.3188 16.6703 16.31 16.4217 16.0536C16.2308 15.8568 16.2482 15.6523 16.2492 15.3989L16.2522 15.0064C15.3652 14.9954 14.4633 15.003 13.5752 15.003L8.75575 15.0032L6.65064 15.0034L5.98444 15.004C5.85038 15.0042 5.71833 15.0062 5.58516 14.9972C5.24791 14.9745 4.98766 14.6958 5.00236 14.3543C5.00685 14.0516 5.24813 13.7767 5.55616 13.7568C5.81047 13.7404 6.09028 13.749 6.3499 13.7494L7.85954 13.7497L12.9346 13.7496L17.4983 13.7491C17.5065 13.0355 17.4997 12.312 17.5003 11.5976L17.5012 10.9598C17.5014 10.687 17.5324 10.4126 17.3288 10.1986C17.1666 10.0281 16.997 10.0028 16.7687 10.0029C15.7779 10.0034 14.7871 10.0034 13.7962 10.0034L7.73194 10.0033L4.6065 10.0035L3.65436 10.0025C3.32381 10.0018 2.91631 9.94171 2.67363 10.1926C2.46999 10.403 2.49928 10.6624 2.49983 10.9296L2.50095 11.5277L2.50031 13.7481L2.88974 13.749C3.13868 13.7501 3.37019 13.7381 3.56464 13.9291C3.70926 14.0711 3.74943 14.2571 3.7509 14.4528L3.75094 15.1145C3.75145 15.2904 3.76382 15.6285 3.72623 15.7814C3.70064 15.8885 3.64551 15.9862 3.56709 16.0635C3.31225 16.3192 2.92113 16.3095 2.67163 16.0536C2.48469 15.862 2.49842 15.6604 2.49918 15.4125L2.50228 15.0065C2.28863 14.9996 2.07311 15.0114 1.85963 15.0008C1.53398 14.9846 1.25983 14.7351 1.25344 14.4009C1.24865 14.1497 1.24994 13.9009 1.25013 13.6502L1.25016 12.3058L1.24997 11.1502C1.24998 10.9457 1.24262 10.6726 1.25906 10.4725C1.27321 10.2761 1.32028 10.0836 1.39829 9.90294C1.62485 9.3769 1.97622 9.07254 2.498 8.86353C2.50845 8.38564 2.49469 7.89733 2.50008 7.41861C2.50324 7.13747 2.49017 6.85042 2.5158 6.57064C2.57908 5.92246 2.84267 5.31008 3.26995 4.81856C3.83971 4.16251 4.60411 3.81274 5.46364 3.75398ZM4.4888 8.74999C4.32448 8.37435 4.35485 7.82685 4.5021 7.44696C4.6809 6.97987 5.04044 6.60459 5.49943 6.40595C5.654 6.33909 5.81682 6.29322 5.98356 6.26954C6.23231 6.23538 6.63287 6.25092 6.89766 6.24957C7.13259 6.24837 7.51679 6.2401 7.73791 6.26682C7.89725 6.28643 8.05327 6.32715 8.20186 6.38791C8.66403 6.57473 9.03285 6.93778 9.22693 7.39693C9.40126 7.81491 9.42844 8.3242 9.25806 8.74758C9.75163 8.75095 10.2452 8.75175 10.7388 8.74999C10.5776 8.37958 10.6 7.80231 10.7571 7.43413C10.9825 6.90608 11.2933 6.60932 11.8046 6.38117C11.9411 6.33399 12.1048 6.2801 12.2488 6.26801C12.7148 6.22891 13.1901 6.25829 13.6579 6.24968C13.7858 6.24731 13.9256 6.25596 14.051 6.27556C14.228 6.30428 14.4 6.35845 14.5615 6.43641C15.0115 6.65228 15.3565 7.03897 15.52 7.51052C15.6517 7.89153 15.6646 8.37244 15.5081 8.74758C15.7548 8.75022 16.0016 8.75074 16.2483 8.74914L16.2508 7.5805C16.2509 7.22195 16.2728 6.74413 16.1887 6.41148C16.107 6.0883 15.9397 5.79311 15.7045 5.557C15.2646 5.1127 14.8003 5.00352 14.202 5.00293L8.57584 5.00308L6.63698 5.00303C6.31006 5.00304 5.952 4.99605 5.62651 5.00442C5.08305 5.02622 4.62573 5.19516 4.24948 5.60146C4.03015 5.83723 3.87621 6.12619 3.80289 6.43975C3.73176 6.74021 3.75013 7.15032 3.75019 7.46865L3.75042 8.74896C3.99428 8.74849 4.24592 8.75331 4.4888 8.74999ZM7.49315 8.74848C7.697 8.73234 7.837 8.68326 7.97406 8.52275C8.08182 8.39802 8.13429 8.23484 8.11939 8.07068C8.106 7.90518 8.02617 7.75215 7.89809 7.64647C7.71305 7.49423 7.49957 7.49881 7.27189 7.50234C6.94046 7.50749 6.60257 7.49425 6.27189 7.50438C6.06278 7.51959 5.91616 7.55373 5.77311 7.72196C5.66392 7.85201 5.61196 8.02069 5.62904 8.18964C5.64483 8.35414 5.72705 8.50508 5.8567 8.60755C5.93013 8.6671 6.01647 8.70868 6.10882 8.72897C6.20138 8.74905 6.30231 8.75162 6.39679 8.75062C6.76167 8.74671 7.12846 8.75487 7.49315 8.74848ZM13.7432 8.74848C13.9457 8.73243 14.0847 8.68431 14.2215 8.52564C14.3299 8.40187 14.3834 8.23939 14.3697 8.07543C14.3578 7.91151 14.2806 7.75925 14.1555 7.65266C13.9734 7.4983 13.7669 7.4988 13.5404 7.50242C13.2028 7.50782 12.8588 7.49401 12.5219 7.50438C12.3128 7.5196 12.1661 7.55374 12.0231 7.72196C11.914 7.85201 11.862 8.02069 11.879 8.18964C11.8948 8.35414 11.977 8.50508 12.1067 8.60756C12.1802 8.66711 12.2665 8.70868 12.3588 8.72897C12.4514 8.74905 12.5523 8.75162 12.6468 8.75062C13.0117 8.74671 13.3785 8.75487 13.7432 8.74848Z" fill="#FE5A11"/>
</svg>
