<svg width="20" height="20" viewBox="0 0 20 20" fill="none" xmlns="http://www.w3.org/2000/svg">
<path d="M17.3261 10.5062C17.5296 10.3318 17.6313 10.2446 17.6686 10.1409C17.7013 10.0498 17.7013 9.95019 17.6686 9.85913C17.6313 9.75538 17.5296 9.66819 17.3261 9.49382L10.2672 3.4433C9.917 3.14314 9.74191 2.99305 9.59367 2.98938C9.46483 2.98618 9.34177 3.04278 9.26035 3.14268C9.16667 3.25763 9.16667 3.48824 9.16667 3.94947V7.52885C7.38777 7.84006 5.75966 8.74145 4.54976 10.0949C3.23069 11.5704 2.50103 13.4799 2.5 15.4591V15.9691C3.37445 14.9157 4.46626 14.0638 5.70063 13.4716C6.78891 12.9495 7.96535 12.6403 9.16667 12.5588V16.0505C9.16667 16.5117 9.16667 16.7424 9.26035 16.8573C9.34177 16.9572 9.46483 17.0138 9.59367 17.0106C9.74191 17.0069 9.917 16.8568 10.2672 16.5567L17.3261 10.5062Z" stroke="#83888D" stroke-width="1.5" stroke-linecap="round" stroke-linejoin="round"/>
</svg>
