<svg width="20" height="20" viewBox="0 0 20 20" fill="none" xmlns="http://www.w3.org/2000/svg">
<path d="M3.02539 1.25401C3.32306 1.23776 3.72537 1.24939 4.02805 1.24946L5.87936 1.24951L11.5965 1.24955L15.2845 1.24951L16.3756 1.24935C17.0483 1.24912 17.5161 1.22431 18.0742 1.68501C18.4603 2.00576 18.7007 2.46867 18.7411 2.96901C18.7628 3.21725 18.751 3.6178 18.7508 3.87352L18.7505 5.46294L18.7507 10.5944L18.7508 14.976L18.7507 16.2965C18.7507 16.5188 18.7603 16.8672 18.7363 17.0798C18.6962 17.4506 18.5457 17.8008 18.3041 18.0849C17.9667 18.4857 17.5103 18.7049 16.9926 18.748C16.6272 18.7606 16.227 18.7532 15.8599 18.7533L13.8804 18.7534L7.91114 18.7533H4.57163L3.5891 18.7535C3.37504 18.7537 3.0937 18.7609 2.88667 18.7352C2.52449 18.6889 2.18391 18.5373 1.90726 18.299C1.53009 17.9797 1.29629 17.5227 1.25794 17.0301C1.23759 16.7604 1.25001 16.3434 1.25026 16.0661L1.25043 14.3764L1.25016 8.96581L1.25017 4.86848L1.25025 3.64282C1.25027 3.41399 1.2412 3.10094 1.26811 2.88041C1.31578 2.50829 1.47411 2.15907 1.72258 1.87798C2.05966 1.49164 2.51927 1.29003 3.02539 1.25401ZM10.6253 17.498L11.8701 17.4996L15.4213 17.4994L16.4085 17.5002C16.5927 17.5003 16.8059 17.5093 16.9862 17.4855C17.2439 17.4514 17.4783 17.1915 17.4933 16.933C17.5035 16.7554 17.5005 16.5764 17.5006 16.3988V15.4477L17.5003 12.3916L17.5006 3.24984C17.4985 3.01317 17.4822 2.85632 17.3086 2.67966C17.0914 2.45867 16.76 2.50232 16.4723 2.50247L15.7094 2.50322L12.1041 2.50296L11.1061 2.50384C10.9947 2.50402 10.7194 2.51289 10.6272 2.49815C10.6243 2.93031 10.6237 3.36248 10.6255 3.79465L10.6257 6.01915L10.6253 13.748L14.1944 13.7498L15.1842 13.7492C15.4895 13.7491 15.833 13.6995 16.0667 13.9337C16.1844 14.0524 16.2493 14.2134 16.247 14.3805C16.2428 14.6428 16.0494 14.9278 15.7769 14.9837C15.5951 15.0209 15.295 15.0033 15.1026 15.0033H13.9905H11.7371C11.3914 15.0033 11.0439 15.0025 10.698 15.0055C10.6773 15.0057 10.6466 15.0017 10.6259 14.9988L10.6253 17.498ZM2.50032 13.748L8.75488 13.7496C8.95776 13.7495 9.17127 13.7526 9.37334 13.7491L9.37529 5.88966L9.37525 3.68517C9.37524 3.30493 9.36652 2.88301 9.37726 2.50635C8.1419 2.49145 6.88308 2.50286 5.64607 2.50284L4.01195 2.50285C3.73256 2.50287 3.42462 2.49673 3.14689 2.50435C2.80168 2.53006 2.54966 2.68768 2.50712 3.06356C2.49143 3.20216 2.50014 3.35474 2.50011 3.49504L2.50032 4.1932L2.50054 6.391L2.50032 13.748ZM9.37236 17.4873C9.38896 16.6691 9.35437 15.8181 9.37724 15.0063C7.74188 14.9867 6.07401 15.0028 4.43639 15.0029L3.12388 15.003C2.98448 15.0032 2.61608 15.0152 2.50222 14.9982C2.49574 15.4331 2.50176 15.876 2.49988 16.3114C2.49923 16.4624 2.49162 16.895 2.51649 17.0122C2.54082 17.1227 2.59568 17.2242 2.67483 17.3051C2.92173 17.5556 3.26003 17.5005 3.59757 17.5002L7.44784 17.4995L8.68163 17.4997C8.75539 17.4998 9.34745 17.509 9.37236 17.4873Z" fill="#83888D"/>
<path d="M12.4489 6.87827C12.7762 6.85865 13.081 7.08217 13.1159 7.41922C13.1357 7.61055 13.1316 7.8709 13.1254 8.06513C13.118 8.29914 13.1518 8.64172 13.1105 8.86422C13.0934 8.9605 13.0534 9.05126 12.9938 9.12883C12.8801 9.27686 12.739 9.34861 12.5573 9.37381C12.2334 9.3879 11.9206 9.18289 11.8842 8.83941C11.8635 8.64462 11.8703 8.37638 11.8756 8.17846C11.8818 7.94725 11.8487 7.59219 11.8918 7.37198C11.9103 7.27626 11.9509 7.18618 12.0104 7.10898C12.1271 6.95764 12.2652 6.90349 12.4489 6.87827Z" fill="#83888D"/>
<path d="M7.44895 6.87824C7.77615 6.85833 8.08103 7.08244 8.11588 7.41917C8.13596 7.61312 8.13125 7.87445 8.12541 8.07134C8.11857 8.30186 8.15113 8.64419 8.11054 8.86386C8.0935 8.96025 8.05346 9.05113 7.99384 9.12878C7.88009 9.27682 7.739 9.34855 7.55737 9.37375C7.2334 9.38784 6.9206 9.18282 6.88413 8.83936C6.86346 8.64455 6.87027 8.37633 6.87562 8.1784C6.88187 7.94719 6.84878 7.59213 6.8918 7.37192C6.91023 7.2762 6.95086 7.18612 7.01039 7.10892C7.12715 6.95758 7.26519 6.90342 7.44895 6.87824Z" fill="#83888D"/>
</svg>
