<svg width="20" height="20" viewBox="0 0 20 20" fill="none" xmlns="http://www.w3.org/2000/svg">
<path d="M2.5 7.5V15.8333C2.5 16.7538 3.24619 17.5 4.16667 17.5H15.8333C16.7538 17.5 17.5 16.7538 17.5 15.8333V7.5" fill="white"/>
<path d="M2.5 7.5V15.8333C2.5 16.7538 3.24619 17.5 4.16667 17.5H15.8333C16.7538 17.5 17.5 16.7538 17.5 15.8333V7.5" stroke="#2C2D2E" stroke-width="1.5"/>
<path d="M17.0708 2.5H13.7444L14.1611 6.66667C14.1611 6.66667 14.9944 7.5 16.2444 7.5C17.1419 7.5 17.753 7.07037 18.0263 6.82808C18.1352 6.73152 18.1751 6.58409 18.1511 6.44051L17.564 2.9178C17.5238 2.67671 17.3152 2.5 17.0708 2.5Z" fill="white" stroke="#2C2D2E" stroke-width="1.5"/>
<path d="M13.7444 2.5L14.1611 6.66667C14.1611 6.66667 13.3277 7.5 12.0777 7.5C10.8277 7.5 9.99438 6.66667 9.99438 6.66667V2.5H13.7444Z" stroke="#2C2D2E" stroke-width="1.5"/>
<path d="M9.99431 2.5V6.66667C9.99431 6.66667 9.16098 7.5 7.91097 7.5C6.66097 7.5 5.82764 6.66667 5.82764 6.66667L6.2443 2.5H9.99431Z" stroke="#2C2D2E" stroke-width="1.5"/>
<path d="M6.24451 2.5H2.91807C2.67365 2.5 2.46506 2.67671 2.42488 2.9178L1.83775 6.44052C1.81383 6.58409 1.85368 6.73152 1.9626 6.82808C2.23587 7.07037 2.84697 7.5 3.74449 7.5C4.99449 7.5 5.82784 6.66667 5.82784 6.66667L6.24451 2.5Z" stroke="#2C2D2E" stroke-width="1.5"/>
</svg>
