<svg width="20" height="20" viewBox="0 0 20 20" fill="none" xmlns="http://www.w3.org/2000/svg">
<path d="M5.52538 1.25401C5.78035 1.24479 6.05431 1.24935 6.31072 1.24943L7.55415 1.24952L11.3914 1.24955L13.4883 1.2495C13.767 1.24935 14.0467 1.25093 14.3253 1.24968C14.7909 1.24759 15.21 1.38518 15.5728 1.68379C15.959 2.00392 16.1999 2.46634 16.2407 2.96639C16.2631 3.2209 16.2509 3.60846 16.2507 3.87451L16.2504 5.46357L16.2508 10.5802V14.9615L16.2507 16.2983C16.2507 16.5251 16.2606 16.8688 16.2359 17.0829C16.1954 17.4526 16.0449 17.8016 15.8041 18.0849C15.4668 18.4857 15.0104 18.7049 14.4927 18.748C14.2303 18.7572 13.955 18.7532 13.6914 18.7532L12.4216 18.7533H8.55147H6.48908C6.19651 18.7533 5.60469 18.7689 5.34297 18.729C4.99153 18.6751 4.66261 18.5224 4.39448 18.2889C4.02267 17.9679 3.79364 17.5124 3.7578 17.0224C3.73774 16.7487 3.75004 16.3448 3.75022 16.0647L3.75044 14.3369L3.75017 8.9032L3.75018 4.84615L3.75026 3.64881C3.75028 3.41899 3.74111 3.10178 3.76812 2.88039C3.81578 2.50827 3.97411 2.15905 4.22259 1.87798C4.55968 1.49166 5.01926 1.29002 5.52538 1.25401ZM5.00033 7.498C5.40863 7.49996 5.84073 7.50607 6.24835 7.49911L6.24989 6.23497C6.24984 6.01531 6.24331 5.79025 6.25674 5.57164C6.27734 5.23634 6.55546 4.99634 6.88592 5.002C7.05438 5.00507 7.21444 5.07609 7.32973 5.19896C7.57154 5.4551 7.48355 5.78063 7.50083 6.09931C7.50366 6.15132 7.50079 6.20988 7.50078 6.26274L7.50033 7.498C7.90863 7.49997 8.34073 7.50607 8.74835 7.49911L8.74989 6.23497C8.74984 6.01531 8.74331 5.79025 8.75674 5.57164C8.77734 5.23633 9.05545 4.99634 9.38592 5.00201C9.55438 5.00507 9.71444 5.07609 9.82969 5.19896C10.0715 5.45511 9.9836 5.78062 10.0008 6.09931C10.0036 6.15132 10.0008 6.20988 10.0008 6.26274L10.0003 7.498C10.4086 7.49997 10.8407 7.50607 11.2483 7.49911L11.2499 6.24496C11.2498 6.02202 11.2433 5.79353 11.2567 5.57165C11.2772 5.23639 11.5557 4.99634 11.8859 5.002C12.0544 5.00506 12.2145 5.07609 12.3297 5.19896C12.5715 5.45511 12.4835 5.78062 12.5008 6.09931C12.5036 6.15132 12.5008 6.20988 12.5008 6.26274L12.5003 7.49805L12.8805 7.49886C13.1387 7.49863 13.3626 7.48316 13.563 7.68092C13.6818 7.79776 13.7486 7.95766 13.7481 8.12438C13.7484 8.29158 13.681 8.45178 13.561 8.56834C13.3439 8.78274 13.1273 8.7524 12.8457 8.75295L12.2527 8.75324L10.3221 8.75317L6.74525 8.75301L5.63009 8.7535C5.46098 8.75386 5.15953 8.77137 5.00084 8.74879L5.00033 13.748L5.60059 13.7496C6.22457 13.7497 6.87693 13.7599 7.49836 13.7491L7.4999 12.495C7.49984 12.272 7.49325 12.0435 7.50674 11.8217C7.52712 11.4864 7.80563 11.2464 8.13592 11.252C8.30438 11.255 8.46445 11.3261 8.57973 11.449C8.82153 11.7051 8.73356 12.0306 8.75083 12.3493C8.75365 12.4013 8.7508 12.4598 8.75079 12.5128L8.75033 13.748C9.15863 13.75 9.59072 13.7561 9.99834 13.7491L9.9999 12.4849C9.99981 12.2653 9.99336 12.0403 10.0067 11.8217C10.0273 11.4863 10.3055 11.2464 10.6359 11.252C10.8044 11.255 10.9645 11.326 11.0797 11.449C11.3215 11.7051 11.2336 12.0306 11.2509 12.3493C11.2536 12.4013 11.2508 12.4598 11.2508 12.5128L11.2503 13.748C11.6586 13.7499 12.0906 13.7561 12.4983 13.7491L12.4999 12.495C12.4998 12.272 12.4933 12.0435 12.5067 11.8217C12.5272 11.4864 12.8057 11.2464 13.1359 11.252C13.3044 11.255 13.4645 11.3261 13.5797 11.449C13.8215 11.7051 13.7336 12.0306 13.7509 12.3493C13.7536 12.4013 13.7508 12.4598 13.7508 12.5128L13.7503 13.748C14.1586 13.75 14.5907 13.7561 14.9983 13.7491L15.0003 6.43876L15.0002 4.18346L15.0009 3.50399C15.0011 3.36445 15.0062 3.18762 14.9912 3.053C14.9767 2.91538 14.9156 2.78684 14.8184 2.68847C14.6385 2.50463 14.4461 2.50305 14.2047 2.5025L8.66285 2.50304L6.6851 2.50297C6.34909 2.50296 5.97968 2.49521 5.64686 2.50435C5.51796 2.514 5.42767 2.52111 5.31259 2.58506C4.94049 2.7918 5.00039 3.18011 5.00029 3.5448L5.00019 4.40149L5.00033 7.498ZM5.00224 14.9981C4.9957 15.4322 5.00167 15.8748 4.99984 16.3093C4.99924 16.4506 4.99243 16.8872 5.01428 17.0019C5.0375 17.118 5.09462 17.2246 5.17843 17.3082C5.42003 17.5539 5.75419 17.5004 6.08561 17.5003L11.8642 17.4993L13.5958 17.4994C13.7488 17.4994 13.9039 17.5014 14.0568 17.5004C14.3722 17.4981 14.573 17.5367 14.8167 17.3082C15.0118 17.0878 14.9964 16.9615 15.0007 16.6818C15.0094 16.1252 14.9884 15.5623 15.0022 15.0063C14.1472 14.9961 13.2802 15.0031 12.4244 15.0031H7.83885H5.84738C5.67852 15.0027 5.50967 15.0033 5.34082 15.0048C5.24381 15.0055 5.0943 15.0119 5.00224 14.9981Z" fill="#83888D"/>
</svg>
