<svg width="20" height="20" viewBox="0 0 20 20" fill="none" xmlns="http://www.w3.org/2000/svg">
<path d="M0 3.42701C0.0270114 3.3811 0.040183 3.33982 0.062721 3.29262C0.136461 3.13818 0.249492 3.01743 0.419889 2.97362C0.61139 2.92422 0.876215 2.94005 1.0799 2.94027L1.84793 2.94113L4.33753 2.94124L16.4684 2.94092L18.4484 2.94091L19.0617 2.94089C19.3644 2.94087 19.6478 2.90665 19.8572 3.16337C19.9366 3.26061 19.9487 3.33389 20 3.43776V3.63174C19.9772 3.68917 19.9438 3.78943 19.9155 3.839C19.8224 4.00158 19.6772 4.17293 19.5568 4.31683C18.9661 5.01522 18.2233 5.56904 17.3854 5.9358C16.8817 6.1568 16.3501 6.30729 15.8055 6.38301C15.3148 6.45025 14.9427 6.43971 14.4516 6.43973L13.0721 6.43958L11.3702 6.43932C11.1476 6.43936 10.8143 6.45184 10.603 6.44287L10.6032 9.85565L10.6035 10.9472C10.6038 11.1261 10.6115 11.3845 10.6003 11.5564C10.7317 11.5627 10.8681 11.5629 10.9998 11.5616C11.2599 11.5593 11.5013 11.5515 11.6922 11.7624C11.801 11.8847 11.8549 12.0462 11.8413 12.2093C11.8301 12.3696 11.7547 12.5186 11.6323 12.6228C11.4439 12.7838 11.258 12.7725 11.0228 12.7726C10.9081 12.7727 10.7914 12.7732 10.6768 12.7717C10.7343 13.005 10.7771 13.1787 10.8647 13.4052C11.1761 14.2001 11.7421 14.8694 12.4742 15.3086C12.9561 15.5985 13.4968 15.7768 14.0566 15.8306C14.2478 15.8483 14.5076 15.8346 14.6792 15.9074C14.8488 15.9793 14.9748 16.1267 15.0193 16.3056C15.0595 16.4652 15.0335 16.6344 14.9473 16.7746C14.7293 17.1257 14.3371 17.0722 13.9827 17.0391C13.1853 16.9649 12.4012 16.699 11.7272 16.2656C11.1875 15.9184 10.7178 15.4728 10.3426 14.9521C10.2671 14.8482 10.2068 14.7538 10.1398 14.6443C10.1019 14.5823 10.0457 14.4816 10.0007 14.4311C9.99004 14.4355 9.65904 14.9469 9.60916 15.0141C8.83452 16.0586 7.68842 16.7657 6.40749 16.9894C6.1801 17.0287 5.96222 17.045 5.73317 17.0614C5.4348 17.0828 5.13112 16.995 5.00759 16.6944C4.94506 16.5402 4.94638 16.3676 5.01126 16.2143C5.06822 16.0819 5.19469 15.9465 5.33081 15.8975C5.49948 15.8368 5.74239 15.8495 5.92278 15.8324C6.04934 15.8204 6.17584 15.8024 6.29986 15.7787C7.48462 15.5407 8.48991 14.7624 9.01691 13.675C9.16523 13.3646 9.24688 13.1042 9.32062 12.7706C9.19974 12.7723 9.07769 12.7702 8.95655 12.7724C8.72701 12.7764 8.51287 12.7674 8.33718 12.6003C8.09562 12.3706 8.09928 11.9659 8.33354 11.7331C8.52137 11.5437 8.75999 11.5603 9.00772 11.5612L9.39419 11.5633L9.39539 6.44346C8.36908 6.4287 7.32131 6.43928 6.29358 6.43941L5.2832 6.43942C5.07378 6.43919 4.86185 6.44191 4.65295 6.42924C2.84435 6.3195 1.14428 5.37527 0.106807 3.88745C0.0598451 3.82011 0.0385919 3.71368 0 3.65086V3.42701ZM17.3581 4.60041C17.4717 4.52974 17.594 4.45561 17.7036 4.38028C17.8125 4.30539 17.9167 4.22161 18.0267 4.14607C16.9426 4.16316 15.8218 4.14879 14.7341 4.1488L8.50876 4.1489L4.21908 4.14892L2.80407 4.1489C2.54765 4.14889 2.25957 4.15479 2.0063 4.14519L2.0086 4.16855C2.63153 4.67268 3.37183 5.01112 4.16064 5.15239C4.61007 5.23357 5.03407 5.22978 5.4876 5.22979L6.52839 5.2296L10.1917 5.22927L13.5864 5.2292L14.6055 5.22968C14.915 5.22969 15.2233 5.22924 15.5321 5.19575C16.1897 5.12442 16.7785 4.91916 17.3581 4.60041Z" fill="#83888D"/>
</svg>
