<svg width="20" height="20" viewBox="0 0 20 20" fill="none" xmlns="http://www.w3.org/2000/svg">
<path d="M7.41333 2.5039C7.46888 2.50086 7.53388 2.50008 7.58977 2.49971L11.0642 2.49941L12.0342 2.49936C12.2519 2.49935 12.5548 2.48831 12.7601 2.52903C12.996 2.57824 13.2122 2.69588 13.3816 2.86725C13.8081 3.29321 13.7515 3.73807 13.751 4.28943L13.7503 5.4495V9.7948C13.9766 9.87107 14.2628 10.0542 14.4302 10.2195C14.8181 10.6029 14.9952 11.0593 15.0004 11.5987L15.0011 12.3587C15.001 12.5296 15.0093 12.732 14.9896 12.9001C14.9612 13.1408 14.9175 13.386 14.8794 13.626L14.6622 14.9957L14.5016 16.0131C14.4353 16.4325 14.4162 16.8098 14.0896 17.1259C13.7844 17.4214 13.5056 17.4994 13.0927 17.5039C12.6337 17.5088 12.2793 17.4826 11.9332 17.1386C11.7717 16.9794 11.6567 16.7791 11.6007 16.5593C11.5453 16.3375 11.563 15.9044 11.563 15.6586L11.5629 14.4482C11.5613 14.1134 11.5619 13.7786 11.5648 13.4438C10.8384 13.434 10.0977 13.4407 9.37032 13.4406L8.81846 13.4419C8.70649 13.4427 8.54567 13.4494 8.43835 13.4363L8.43814 15.3631C8.43855 15.7426 8.48085 16.375 8.34648 16.7129C8.21956 17.0268 7.97218 17.2768 7.65961 17.4072C7.33138 17.5464 6.64848 17.5408 6.32094 17.4045C6.01299 17.2755 5.76881 17.0296 5.64205 16.7207C5.56633 16.535 5.51103 16.0988 5.47721 15.8847L5.28959 14.698L5.10219 13.5177C5.0678 13.3009 5.01357 13.0423 5.00395 12.8271C4.98875 12.4871 5.00643 12.1338 4.99986 11.7926C4.99658 11.6223 4.99986 11.4383 5.02455 11.2709C5.04662 11.1164 5.08969 10.9657 5.15258 10.8229C5.37413 10.3079 5.73874 9.99978 6.24816 9.7947C6.25583 9.62585 6.25024 9.42223 6.25029 9.25039L6.25041 8.24983L6.2504 5.2107L6.24997 4.20707C6.24987 4.01194 6.24121 3.7183 6.27048 3.53578C6.30581 3.32205 6.39703 3.12148 6.53489 2.95438C6.76912 2.67162 7.05255 2.53962 7.41333 2.5039ZM7.50033 9.6855L11.2755 9.68736C11.3939 9.68735 12.4379 9.69914 12.4936 9.67882L12.4974 9.67474C12.5078 9.14101 12.5004 8.58397 12.5004 8.04899L12.5003 5.13025C12.5002 4.68032 12.4926 4.2046 12.5023 3.75635C11.3114 3.74202 10.1002 3.75257 8.90789 3.75297L7.96074 3.75395C7.85375 3.75415 7.59185 3.76246 7.50223 3.74812C7.47135 5.72287 7.52123 7.70943 7.50033 9.6855ZM6.3602 13.4384C6.41731 13.9305 6.5277 14.5172 6.60666 15.0164L6.7296 15.7932C6.74981 15.9207 6.77302 16.1017 6.80105 16.2235C6.86545 16.2282 7.14958 16.257 7.18567 16.2373C7.19848 15.3134 7.16989 14.3632 7.18975 13.4438C6.9583 13.4413 6.57221 13.4545 6.3602 13.4384ZM12.8129 16.2489C12.9401 16.2484 13.0718 16.2519 13.1977 16.2502C13.2157 16.1254 13.2356 16.0008 13.2569 15.8764L13.6422 13.4442C13.4134 13.4363 13.1835 13.4428 12.9547 13.4434C12.906 13.4436 12.8631 13.4434 12.8148 13.4356C12.8007 14.3682 12.8197 15.3147 12.8129 16.2489ZM13.1104 12.1871C13.3199 12.187 13.5396 12.1903 13.7483 12.1866L13.751 11.8037C13.7523 11.5461 13.7633 11.3252 13.5688 11.1263C13.3738 10.927 13.1615 10.9419 12.9039 10.9404C12.7919 10.9397 12.6763 10.9402 12.5631 10.9403L11.3287 10.9407L7.15404 10.9404C7.07027 10.9405 6.98205 10.9396 6.8986 10.9417C6.75061 10.9525 6.65497 10.9612 6.52525 11.0457C6.17788 11.2717 6.25813 11.6726 6.25012 12.0269C6.24892 12.0801 6.2508 12.1328 6.25033 12.1855L13.1104 12.1871Z" fill="#83888D"/>
</svg>
