<svg width="298" height="111" viewBox="0 0 298 111" fill="none" xmlns="http://www.w3.org/2000/svg">
<path d="M75.3535 110.437V72.807H84.9805L88.0705 92.254H88.9615L92.0515 72.807H101.679V110.437H96.9845V77.56H95.9745L92.8255 96.948H84.2095L81.0595 77.56H80.0495V110.437H75.3535Z" fill="#E61C8B"/>
<path d="M126.347 97.619V103.899C126.347 107.584 123.316 110.733 119.632 110.733H113.631C110.006 110.733 107.035 107.821 107.035 104.137V79.105C107.035 75.42 110.006 72.509 113.631 72.509H119.751C123.435 72.509 126.347 75.421 126.347 79.105V92.23H111.789V103.305C111.789 104.849 113.037 106.098 114.582 106.098H118.86C120.465 106.098 121.653 104.85 121.653 103.305V97.618H126.347V97.619ZM111.789 87.596H121.594V79.937C121.594 78.391 120.405 77.144 118.801 77.144H114.582C113.037 77.144 111.789 78.392 111.789 79.937V87.596Z" fill="#E61C8B"/>
<path d="M176.386 97.619V103.899C176.386 107.584 173.355 110.733 169.671 110.733H163.67C160.045 110.733 157.074 107.821 157.074 104.137V79.105C157.074 75.42 160.045 72.509 163.67 72.509H169.79C173.474 72.509 176.386 75.421 176.386 79.105V92.23H161.828V103.305C161.828 104.849 163.076 106.098 164.621 106.098H168.899C170.504 106.098 171.692 104.85 171.692 103.305V97.618H176.386V97.619ZM161.828 87.596H171.633V79.937C171.633 78.391 170.444 77.144 168.84 77.144H164.621C163.076 77.144 161.828 78.392 161.828 79.937V87.596Z" fill="#E61C8B"/>
<path d="M181.014 106.396L183.034 105.801L185.015 72.806H199.72V110.436H194.966V77.559H189.234L187.194 110.436H181.014V106.396Z" fill="#E61C8B"/>
<path d="M223.874 103.9C223.874 107.585 220.903 110.438 217.278 110.438H204.961V72.808H209.715V86.35H217.278C220.903 86.35 223.874 89.201 223.874 92.886V103.9ZM209.715 105.801H216.327C217.872 105.801 219.12 104.553 219.12 103.008V93.836C219.12 92.291 217.872 91.043 216.327 91.043H209.715V105.801Z" fill="#E61C8B"/>
<path d="M128.202 20.7149V57.2369C128.202 62.0919 124.292 66.002 119.437 66.002H113.951C109.158 66.002 105.186 62.0919 105.186 57.2369V20.7149C105.186 15.8589 109.159 11.95 113.951 11.95H119.437C124.292 11.95 128.202 15.8589 128.202 20.7149ZM123.157 20.7149C123.157 18.6329 121.518 16.994 119.437 16.994H113.951C111.933 16.994 110.23 18.6329 110.23 20.7149V57.2369C110.23 59.3179 111.933 60.9569 113.951 60.9569H119.437C121.518 60.9569 123.157 59.3179 123.157 57.2369V20.7149Z" fill="#551586"/>
<path d="M139.001 59.397C139.001 59.397 137.575 60.089 136.397 60.553C135.287 60.991 134.069 62.118 134.069 62.118L133.957 12.265H144.173L148.272 40.599H149.534L153.633 12.265H163.849V65.687H158.804V17.31H157.732L153.696 45.644H144.111L140.075 17.31H139.003V59.397H139.001Z" fill="#551586"/>
<path d="M192.838 20.7149V57.2369C192.838 62.0919 188.928 66.002 184.073 66.002H178.587C173.794 66.002 169.822 62.0919 169.822 57.2369V20.7149C169.822 15.8589 173.795 11.95 178.587 11.95H184.073C188.928 11.95 192.838 15.8589 192.838 20.7149ZM187.793 20.7149C187.793 18.6329 186.154 16.994 184.073 16.994H178.587C176.569 16.994 174.866 18.6329 174.866 20.7149V57.2369C174.866 59.3179 176.569 60.9569 178.587 60.9569H184.073C186.154 60.9569 187.793 59.3179 187.793 57.2369V20.7149Z" fill="#551586"/>
<path d="M77.1633 17.31H81.2523L78.3263 60.643H75.4253V68.149H80.0283L80.4073 65.688H96.6523L97.0303 68.149H101.659V60.643H99.1363V12.265H77.1643H67.0583C33.1233 12.265 23.1133 16.726 23.1133 34.83C23.1133 34.83 24.1293 34.908 25.6113 35.242C27.1283 35.584 28.1713 35.95 28.1713 35.95C28.1713 21.357 34.8093 17.302 67.0593 17.302L77.1653 17.334L77.1633 17.31ZM94.0903 60.642H83.2433L86.1693 17.309H94.0893V60.642H94.0903Z" fill="#551586"/>
<path d="M269.469 35.95C269.469 35.95 270.512 35.584 272.029 35.242C273.511 34.908 274.527 34.83 274.527 34.83C274.527 16.725 264.517 12.244 230.582 12.244V17.301C262.831 17.302 269.469 21.357 269.469 35.95Z" fill="#551586"/>
<path d="M144.575 72.692C142.652 72.692 139.875 73.774 138.253 75.216H137.483V74.915C137.543 72.632 138.331 70.247 142.475 68.847C146.821 67.379 149.811 63.764 150.72 62.121C151.598 60.533 151.918 59.358 151.918 59.358H147.33C146.56 60.683 144.806 63.507 140.422 65.008C135.784 66.596 132.676 70.65 132.676 74.795V103.884C132.676 107.609 135.86 110.734 139.525 110.734H144.214C147.939 110.734 151.063 107.61 151.063 103.884V79.361C151.064 75.636 148.42 72.692 144.575 72.692ZM146.257 103.164C146.257 104.725 145.056 105.987 143.433 105.987H140.306C138.744 105.987 137.482 104.725 137.482 103.164V80.323C138.143 79.663 141.215 77.5 142.537 77.5H143.433C145.055 77.5 146.257 78.762 146.257 80.323V103.164Z" fill="#E61C8B"/>
<path d="M40.029 68.423L40.172 71.658L43.275 70.735C47.736 69.409 57.618 67.49 67.056 66.746V61.689C58.259 62.331 50.855 63.653 44.763 65.116C43.58 57.763 39.213 46.518 29.88 42.551C26.828 41.256 23.587 40.599 20.248 40.599C9.084 40.599 0 49.682 0 60.847C0 70.057 7.49401 77.551 16.704 77.551C16.708 77.551 16.713 77.55 16.717 77.55C16.732 77.55 16.747 77.549 16.762 77.549C17.165 77.547 17.563 77.525 17.96 77.488C18.131 77.473 18.3 77.449 18.469 77.428C18.698 77.398 18.925 77.364 19.151 77.324C19.36 77.287 19.568 77.247 19.775 77.201C19.931 77.165 20.084 77.123 20.238 77.082C21.103 76.854 21.934 76.547 22.724 76.165C22.763 76.146 22.802 76.127 22.842 76.108L29.776 110.434H67.057V105.377H33.591L27.323 72.585C27.415 72.477 27.508 72.371 27.596 72.259C27.694 72.136 27.785 72.008 27.879 71.881C28.381 71.2 28.82 70.473 29.192 69.705C29.248 69.588 29.308 69.473 29.361 69.355C29.471 69.111 29.57 68.861 29.667 68.61C29.689 68.551 29.717 68.495 29.738 68.436L29.731 68.434C30.275 66.949 30.587 65.354 30.587 63.683H25.53C25.53 64.75 25.33 65.769 24.981 66.716C24.669 67.567 24.231 68.349 23.695 69.045C23.685 69.058 23.676 69.071 23.666 69.083C22.848 70.132 21.805 70.982 20.621 71.571C20.615 71.574 20.609 71.577 20.603 71.579C19.839 71.957 19.016 72.221 18.16 72.365C18.095 72.376 18.03 72.386 17.964 72.395C17.55 72.455 17.131 72.494 16.705 72.494C10.283 72.494 5.05801 67.269 5.05801 60.847C5.05801 52.471 11.872 45.657 20.248 45.657C22.901 45.657 25.475 46.177 27.896 47.202V47.203C38.606 51.75 39.891 65.294 40.029 68.423Z" fill="#551586"/>
<path d="M210.5 7.564C214.174 7.564 217.271 5.18699 218.208 1.80099L214.822 0C214.318 2.016 212.661 3.53 210.5 3.53C208.339 3.53 206.826 2.017 206.25 0L202.793 1.80099C203.801 5.18699 206.755 7.564 210.5 7.564Z" fill="#551586"/>
<path d="M277.39 40.599C274.051 40.599 270.81 41.255 267.758 42.55C258.425 46.517 254.058 57.762 252.875 65.116C247.423 63.807 235.923 61.254 221.852 60.731V12.265H211.762L204.952 60.643H203.943V12.265H198.898V65.687H209.24L215.987 17.31H216.807V65.687C232.718 65.687 249.902 69.409 254.363 70.735L257.466 71.658L257.609 68.423C257.747 65.294 259.032 51.75 269.742 47.202C272.163 46.177 274.736 45.656 277.39 45.656C285.766 45.656 292.58 52.47 292.58 60.846C292.58 67.268 287.355 72.493 280.933 72.493C280.507 72.493 280.087 72.455 279.674 72.394C279.608 72.385 279.543 72.375 279.478 72.364C278.622 72.22 277.799 71.956 277.035 71.578C277.029 71.575 277.023 71.572 277.017 71.57C275.833 70.981 274.79 70.131 273.972 69.082C273.962 69.069 273.953 69.056 273.943 69.044C273.407 68.348 272.969 67.566 272.657 66.715C272.308 65.768 272.108 64.749 272.108 63.682H267.051C267.051 65.353 267.363 66.949 267.907 68.433L267.9 68.435C267.922 68.494 267.949 68.55 267.971 68.609C268.067 68.861 268.166 69.11 268.277 69.354C268.33 69.473 268.39 69.587 268.446 69.704C268.818 70.472 269.257 71.199 269.759 71.88C269.852 72.007 269.944 72.135 270.042 72.258C270.13 72.369 270.223 72.476 270.315 72.584V72.586C270.687 73.016 271.429 73.813 272.465 74.609C273.537 75.432 274.567 75.982 275.086 76.237C275.826 76.582 276.597 76.87 277.401 77.081C277.555 77.122 277.708 77.165 277.864 77.2C278.07 77.247 278.278 77.286 278.488 77.323C278.714 77.364 278.941 77.398 279.17 77.427C279.339 77.448 279.508 77.472 279.679 77.487C280.075 77.523 280.474 77.546 280.877 77.548C280.892 77.548 280.906 77.55 280.922 77.55V77.549C280.926 77.549 280.931 77.55 280.935 77.55C290.145 77.55 297.639 70.056 297.639 60.846C297.638 49.682 288.554 40.599 277.39 40.599Z" fill="#551586"/>
<path d="M268.908 79.907L264.048 105.375H230.582V110.433H267.863L273.348 83.337L268.908 79.907Z" fill="#551586"/>
</svg>
