<svg width="48" height="48" viewBox="0 0 48 48" fill="none" xmlns="http://www.w3.org/2000/svg">
<path d="M9.08509 20.1928L9.08528 15.5091L9.08433 14.1425C9.08322 12.8506 9.09908 11.9403 10.0872 10.9559C10.5755 10.4758 11.2008 10.1592 11.8768 10.0497C12.253 9.99055 12.6615 10.0006 13.0441 10.0007L14.4092 10.0009L19.1921 10.0013L35.4117 10.0014C36.4075 10.0074 37.2393 10.2738 37.9555 10.9983C38.3812 11.4308 38.6812 11.971 38.8235 12.5609C38.9445 13.0837 38.9208 13.5822 38.9202 14.1137L38.9198 15.4273L38.9208 20.1872C39.9194 20.0905 40.9146 20.4007 41.6815 21.0475C42.2213 21.4976 42.6373 22.1313 42.8362 22.8072C42.8931 23.0008 42.9397 23.3182 43 23.4835V24.2837L42.9946 24.301C42.8913 24.645 42.8772 24.9261 42.7209 25.2807C42.5278 25.7191 42.309 26.1374 42.0947 26.5654L40.9811 28.7911L40.0468 30.661C39.8314 31.092 39.5876 31.6251 39.3128 32.0051C38.9898 32.4534 38.569 32.8221 38.0821 33.0833C37.9221 33.1696 37.7652 33.2418 37.6 33.316L37.6164 33.3472C37.7106 33.5253 37.9117 33.8275 38.0247 34.0077L38.7894 35.2254C38.9269 35.4444 39.1519 35.7526 39.2323 36.0021C39.5928 37.1241 38.1752 37.9669 37.3772 37.1232C37.131 36.8631 36.8005 36.2567 36.5934 35.9246L35.1104 33.5501C34.6656 33.5082 33.726 33.5347 33.2451 33.5351L29.6829 33.5355H18.3848H14.7117C14.1921 33.5355 13.4064 33.5605 12.9065 33.5347L11.448 35.8593C11.2873 36.1159 11.1233 36.3745 10.9637 36.6317C10.7268 37.0136 10.5351 37.3307 10.0649 37.4359C9.76798 37.5003 9.45767 37.4418 9.20455 37.2739C8.9569 37.108 8.78748 36.8484 8.73526 36.5549C8.63783 35.9877 8.99571 35.5752 9.28107 35.121L10.0513 33.8941C10.1114 33.7982 10.4042 33.3839 10.3633 33.31C10.067 33.1462 9.78841 33.0269 9.50573 32.8287C8.63447 32.2175 8.26811 31.2932 7.80925 30.3751L6.61432 27.9828L5.7402 26.2357C5.53525 25.8256 5.29336 25.3993 5.16345 24.9638C5.12843 24.8463 5.03924 24.4108 5 24.3439V23.4189C5.06089 23.2867 5.09327 23.071 5.13334 22.9244C5.62241 21.1343 7.2515 20.018 9.08509 20.1928ZM11.3155 21.2278C11.8863 21.8432 12.0656 22.2748 12.433 23.0181C12.5154 23.1849 12.6621 23.4916 12.7599 23.644C13.1572 22.8182 14.035 22.1688 14.8874 21.873C15.2031 21.7614 15.532 21.6918 15.8658 21.666C16.2174 21.6383 16.7092 21.6526 17.073 21.6527L19.1946 21.6537L20.9716 21.6532C21.3445 21.6529 21.8107 21.6398 22.1706 21.6815C22.5381 21.7226 22.8956 21.8272 23.2273 21.9906C23.5896 22.1689 23.731 22.3261 24.0208 22.4998C24.8518 21.6979 25.7621 21.6536 26.8372 21.6532L28.1757 21.653C29.5248 21.6528 30.8758 21.6519 32.2249 21.6555C32.9209 21.6574 33.5247 21.833 34.1108 22.2174C34.696 22.64 34.9434 22.9435 35.2952 23.5764C35.5696 23.0258 35.8349 22.4676 36.1307 21.9294C36.2259 21.7559 36.6703 21.2498 36.6734 21.179C36.71 20.3356 36.6929 19.1252 36.6931 18.3074L36.6934 15.1136C36.6934 14.5408 36.6966 13.9674 36.6884 13.3948C36.6866 13.2527 36.6734 13.1135 36.6242 12.9807C36.4272 12.4498 36.0142 12.2395 35.4724 12.2378C34.9938 12.2364 34.5279 12.2336 34.0566 12.2337L31.5128 12.2347L23.7478 12.2347L16.2696 12.2346L13.7795 12.2345C13.3563 12.2345 12.8822 12.2233 12.4642 12.2373C12.1968 12.2582 12.0392 12.2734 11.8021 12.426C11.2182 12.8018 11.3179 13.4358 11.3107 14.0371C11.3091 14.1687 11.3106 14.3049 11.3106 14.4386L11.3104 16.6435L11.3107 19.6963C11.3108 20.1334 11.2898 20.8107 11.3155 21.2278ZM16.1522 23.8893C15.6149 23.9312 15.2296 24.0756 14.847 24.4884C14.5151 24.8467 14.6584 25.5815 14.6251 26.1006C15.4523 26.109 16.2796 26.1114 17.1069 26.1075L21.3453 26.1067L22.8861 26.1064L22.8903 25.4301C22.8923 24.9719 22.9114 24.5793 22.5683 24.2195C22.2733 23.9101 21.9239 23.8883 21.5224 23.8856L18.3282 23.887C17.625 23.8869 16.8505 23.8702 16.1522 23.8893ZM26.2653 23.8895C24.8916 23.9941 25.1289 25.1063 25.1146 26.1032L32.2476 26.1067C32.6168 26.1071 33.0079 26.1008 33.3753 26.1099C33.2785 25.4386 33.6085 24.6187 32.9339 24.1153C32.5366 23.819 31.9607 23.8848 31.4851 23.8856L30.0952 23.8874L27.6139 23.8867C27.1784 23.8865 26.6979 23.8765 26.2653 23.8895ZM8.53816 22.4213C7.53487 22.5528 6.95438 23.5453 7.36361 24.4854C7.54812 24.9094 7.78363 25.3373 7.99217 25.7525L9.06509 27.8984L9.92326 29.6164C10.089 29.9485 10.2544 30.3023 10.4414 30.6213C10.6811 31.03 11.1758 31.287 11.645 31.2958C12.2621 31.3071 12.8825 31.3026 13.5008 31.3024L17.0023 31.3022L27.702 31.3021H33.8002L35.5265 31.3024C35.6199 31.3024 35.7533 31.2956 35.8425 31.3022C37.39 31.4178 37.5813 30.6128 38.1988 29.3742L39.3742 27.0243C39.5449 26.6829 39.7913 26.1481 39.9758 25.8281C40.1192 25.5317 40.266 25.2369 40.4163 24.9439C40.6859 24.4073 40.8996 23.9947 40.6801 23.3783C40.5473 23.0097 40.2738 22.7089 39.9194 22.5415C39.5676 22.3783 39.1137 22.3685 38.7515 22.5029C38.5111 22.5942 38.2992 22.7481 38.1379 22.9486C37.9424 23.1909 37.7305 23.6807 37.5846 23.9728L36.3732 26.3919C36.2133 26.7131 35.8726 27.4431 35.6952 27.6993C35.5737 27.8741 35.416 28.0205 35.2325 28.1287C34.7304 28.4268 33.9457 28.3404 33.3645 28.3404L31.2883 28.3405L24.9485 28.3404H17.3919L14.9107 28.3405C14.4483 28.3405 13.9676 28.3426 13.5197 28.3348C12.5568 28.3181 12.2063 27.6262 11.8569 26.8554C11.795 26.7189 11.711 26.5613 11.6425 26.4235L10.3962 23.9314C10.2238 23.5866 10.0083 23.0708 9.73968 22.8109C9.41969 22.5043 8.97714 22.3609 8.53816 22.4213Z" fill="#551586"/>
<path d="M26.4856 15.9483C27.0944 15.8869 27.6382 16.3293 27.7023 16.9378C27.7663 17.5464 27.3262 18.0921 26.7179 18.1586C26.106 18.2255 25.5562 17.7822 25.492 17.1701C25.4276 16.5579 25.8731 16.0101 26.4856 15.9483Z" fill="#551586"/>
<path d="M31.6806 15.9483C32.2894 15.8868 32.8334 16.329 32.8976 16.9376C32.9616 17.5461 32.5217 18.0919 31.9135 18.1586C31.3015 18.2256 30.7518 17.7825 30.6874 17.1703C30.6228 16.5582 31.0683 16.0102 31.6806 15.9483Z" fill="#551586"/>
<path d="M16.0955 15.9484C16.7046 15.8866 17.2489 16.329 17.3129 16.9378C17.3769 17.5466 16.9364 18.0925 16.3278 18.1586C15.7161 18.2251 15.1669 17.7819 15.1026 17.1701C15.0383 16.5582 15.4834 16.0105 16.0955 15.9484Z" fill="#551586"/>
<path d="M21.2902 15.9484C21.8991 15.8867 22.4432 16.3291 22.5072 16.9378C22.5711 17.5465 22.1309 18.0922 21.5225 18.1586C20.9107 18.2252 20.3613 17.782 20.2969 17.17C20.2326 16.558 20.6779 16.0103 21.2902 15.9484Z" fill="#551586"/>
</svg>
