<svg width="48" height="48" viewBox="0 0 48 48" fill="none" xmlns="http://www.w3.org/2000/svg">
<path d="M25.8902 15.0098C30.7158 14.812 34.7889 18.5622 34.9896 23.3878C35.1902 28.2134 31.4425 32.2887 26.6169 32.4923C21.7874 32.6959 17.7079 28.9443 17.5071 24.1147C17.3063 19.285 21.0603 15.2077 25.8902 15.0098ZM26.3672 29.9962C29.8142 29.9306 32.5561 27.0845 32.4933 23.6373C32.4305 20.1902 29.5864 17.446 26.1394 17.5061C22.6882 17.5662 19.9401 20.4141 20.0031 23.8651C20.066 27.3162 22.9162 30.062 26.3672 29.9962Z" fill="#E61C8B"/>
<path d="M25.007 20.0022C25.838 19.9982 26.6691 19.9991 27.5 20.0047L27.5006 22.4982C28.3331 22.5057 29.1681 22.4923 30 22.5047C30.0028 23.3292 30.0117 24.1814 29.9981 25.004C28.3563 25.0326 26.6464 25.0037 24.9984 25.0065C25.0116 24.6042 25.0008 24.142 25.0008 23.7359L25.0005 21.3629C25.0003 20.9637 24.9827 20.391 25.007 20.0022Z" fill="#E61C8B"/>
<path d="M10.0069 15.0023L14.0348 15.0006C15.1819 15.0005 16.3544 14.9879 17.4998 15.0048C17.5027 15.829 17.5118 16.6816 17.498 17.504C16.6775 17.5177 15.8215 17.5065 14.9982 17.5065L9.99831 17.5066C10.0179 16.9246 9.98759 16.2992 9.99984 15.713C10.0048 15.4773 9.99229 15.2386 10.0069 15.0023Z" fill="#E61C8B"/>
<path d="M10.0068 30.002L14.0038 30.0003C15.161 30.0001 16.3441 29.9875 17.4997 30.0045C17.5026 30.8287 17.5117 31.6814 17.4979 32.5037C16.6803 32.5172 15.8284 32.5062 15.008 32.5062H9.99822C10.0172 31.9432 9.98781 31.3653 9.9998 30.8009C10.0054 30.5361 9.99052 30.2664 10.0068 30.002Z" fill="#E61C8B"/>
<path d="M12.5048 10.0018L22.1469 10.0005L25.0281 10.0006C26.2763 10.0006 27.2581 9.98004 28.5036 10.1852C30.0913 10.4474 31.6202 10.9874 33.0205 11.7804C36.2497 13.6083 38.6039 16.663 39.5489 20.2515C39.698 20.8138 39.8086 21.3856 39.8803 21.9629C39.9114 22.2155 39.9347 22.7761 40 22.9884V24.5268C39.955 24.6598 39.9056 25.3656 39.8797 25.5573C39.827 25.9476 39.7699 26.2951 39.6839 26.6864C39.1214 29.2593 37.8319 31.6165 35.9688 33.4778C33.7599 35.6895 30.8627 37.0815 27.7556 37.4239C26.7708 37.5273 25.8644 37.5067 24.8764 37.5067H21.4213L12.4983 37.5065C12.5257 36.6945 12.4818 35.8243 12.5048 35.0018L21.3107 35.0009H24.8173C25.8177 35.0009 26.7938 35.0267 27.7889 34.8934C30.2233 34.5562 32.4789 33.427 34.2075 31.6803C36.3192 29.5768 37.5038 26.7174 37.4985 23.737C37.492 20.756 36.3028 17.8995 34.1917 15.795C32.753 14.3555 30.9502 13.334 28.9759 12.8394C27.4386 12.4541 26.2933 12.5064 24.7336 12.5064L21.6731 12.5063L12.4983 12.5066C12.5252 11.6928 12.4812 10.8247 12.5048 10.0018Z" fill="#E61C8B"/>
<path d="M8 22.499L12.5823 22.5006C13.3765 22.5006 14.2096 22.4882 15.0012 22.5052L15.0008 25.0038L10.242 25.0063L8.73146 25.0077C8.57017 25.0082 8.14674 25.0204 8 25.0054V22.499Z" fill="#E61C8B"/>
</svg>
