<svg width="48" height="48" viewBox="0 0 48 48" fill="none" xmlns="http://www.w3.org/2000/svg">
<path d="M23.2614 7H24.0625C24.266 7.0724 24.4931 7.09434 24.704 7.16731C25.4849 7.42914 26.1307 7.98943 26.4999 8.72578C26.5886 8.9006 26.6576 9.08459 26.7063 9.27446C26.9449 9.21971 27.1384 9.14308 27.3875 9.09792C28.1664 8.95684 28.9701 9.10976 29.6428 9.52711C30.3342 9.95045 30.8273 10.6333 31.0114 11.4229C31.1037 11.8329 31.0949 12.2915 31.0908 12.7126C31.0795 13.8277 31.1024 14.9466 31.0894 16.0613C32.0369 15.7838 32.8671 15.761 33.7653 16.2512C34.4909 16.641 35.0285 17.3072 35.2563 18.0987C35.4238 18.6838 35.3715 19.8825 35.3711 20.549L35.3703 23.5101L35.3706 27.1795C35.3706 27.9405 35.3826 28.729 35.3552 29.4875C35.3386 29.9862 35.291 30.4834 35.2126 30.9761C34.9888 32.3906 34.513 33.7533 33.8076 34.9994C32.2791 37.725 29.7352 39.736 26.7305 40.5941C26.3347 40.7053 25.9815 40.7792 25.5814 40.8544C25.385 40.8913 24.6039 40.9495 24.4769 41H22.9446C22.8166 40.9545 22.0354 40.8816 21.8452 40.8493C21.3205 40.7594 20.8618 40.658 20.351 40.4995C17.3534 39.5522 14.8544 37.4537 13.403 34.6652C12.7625 33.441 12.3381 32.1153 12.1485 30.7467C11.9964 29.6246 12.0281 28.5312 12.0261 27.4023L12.019 23.3442L12.0087 18.069L12.0046 16.3452C12.0032 15.7499 11.9636 15.1257 12.1441 14.5529C12.3928 13.777 12.9405 13.1323 13.6659 12.7614C14.5215 12.3238 15.3694 12.3208 16.265 12.6138C16.2542 11.8276 16.1977 10.941 16.5128 10.2213C16.8379 9.47184 17.4497 8.88393 18.2114 8.58893C19.1604 8.21777 19.9635 8.32067 20.8704 8.713L20.8872 8.67548C21.1897 7.97485 21.9534 7.39082 22.6644 7.15791C22.8559 7.09516 23.0799 7.07258 23.2614 7ZM22.4596 38.9203C24.9035 39.2484 27.3783 38.5989 29.3463 37.1129C31.4749 35.523 32.8851 33.1526 33.2666 30.5233C33.4117 29.5112 33.3773 28.428 33.3775 27.4012L33.3776 23.402L33.3793 20.3766C33.3795 19.9812 33.402 19.1649 33.3645 18.7956C33.3487 18.6219 33.2843 18.4561 33.1791 18.317C33.0033 18.0784 32.7383 17.9212 32.4448 17.8812C31.8101 17.7952 31.1701 18.1329 31.1113 18.8116C31.0933 19.0193 31.0974 19.2193 31.0972 19.4273L31.0971 20.3973L31.0981 23.5989C31.0981 23.7986 31.1014 24.0033 31.0989 24.202C31.0938 24.731 31.1756 25.1727 30.724 25.5512C30.1066 26.0689 29.159 25.6505 29.1041 24.862C29.0783 24.4924 29.0951 24.0872 29.0954 23.7148L29.0956 21.5122L29.0953 14.3015L29.0954 13.0131C29.0959 12.7096 29.1324 12.0336 29.0425 11.7727C28.6756 10.7088 26.9312 10.8429 26.8258 12.009C26.8032 12.2607 26.8155 12.522 26.8164 12.7735L26.8175 14.0577L26.8179 18.4107V19.545C26.8179 19.8056 26.8353 20.0985 26.7845 20.3477C26.6155 21.1741 25.5355 21.4064 25.029 20.7334C24.7455 20.3568 24.8225 19.7543 24.823 19.308V17.6464L24.8184 11.8521C24.818 11.4212 24.8716 10.022 24.747 9.68955C24.6057 9.3127 24.2413 9.0609 23.8487 9.01352C23.7417 9.00062 23.638 9.00077 23.5312 9.01433C23.0048 9.07935 22.5822 9.42104 22.5478 9.97694C22.5288 10.2843 22.5372 10.5946 22.5372 10.9027L22.5374 12.6614L22.5372 18.3894C22.5371 18.7238 22.5694 20.1956 22.4874 20.4354C22.3644 20.7994 22.0493 21.0648 21.6697 21.1242C21.1263 21.2048 20.5881 20.7823 20.547 20.2361C20.5258 19.9542 20.5313 19.6795 20.532 19.3972L20.5338 17.9879L20.5333 13.0985L20.5339 11.9271C20.534 11.4157 20.5965 10.9619 20.1357 10.6077C19.4756 10.1003 18.3245 10.4247 18.2674 11.3316C18.2466 11.6625 18.2554 11.999 18.2554 12.3319L18.2553 14.1666L18.2555 20.1954L18.2564 21.2973C18.2572 21.6163 18.293 22.1537 18.1975 22.4484C17.9866 23.0991 17.1385 23.3469 16.6198 22.8824C16.1854 22.5137 16.2612 22.0709 16.262 21.5532L16.2622 20.4763L16.2623 16.7966L16.2637 15.9431C16.2655 15.4436 16.3102 15.0057 15.8699 14.6601C15.2003 14.1344 14.0525 14.4779 14.0026 15.3976C13.9876 15.6734 13.9948 15.9513 13.9962 16.228L14 17.5681L14.0068 22.0204L14.0193 27.1392C14.023 28.1413 13.9847 29.3809 14.1084 30.3538C14.4452 33.0002 15.8226 35.4036 17.9358 37.0321C19.2232 38.0267 20.8391 38.7261 22.4596 38.9203Z" fill="#551586"/>
<path d="M21.5422 26.8625C22.1385 26.8369 22.7602 27.0218 23.27 27.3232C23.3111 27.3474 23.6554 27.6077 23.6889 27.5888C23.8833 27.4785 24.0523 27.3427 24.2537 27.2353C24.8799 26.903 25.5984 26.7873 26.2972 26.9065C27.1324 27.051 27.8767 27.5205 28.3671 28.212C28.8488 28.889 29.0411 29.7302 28.901 30.5493C28.6065 32.2023 26.9035 33.6163 25.5978 34.5224C25.227 34.792 24.1569 35.5175 23.7239 35.5386C23.5895 35.5451 23.4532 35.5122 23.3285 35.4631C23.1002 35.3731 22.8873 35.2325 22.6772 35.107C21.8884 34.6356 21.1093 34.1022 20.4217 33.4908C19.4975 32.669 18.5062 31.5584 18.4349 30.2644C18.381 29.3942 18.6814 28.5392 19.2679 27.8941C19.8721 27.2254 20.6551 26.9076 21.5422 26.8625ZM25.8187 31.8057C26.2738 31.3676 26.9417 30.6918 26.9521 30.0289C26.9626 29.3733 26.3823 28.8354 25.7355 28.8646C25.3995 28.8797 25.1452 28.9631 24.9051 29.2144C24.7371 29.3864 24.6578 29.5957 24.5489 29.8052C24.2466 30.3679 23.4806 30.4921 23.0161 30.0559C22.8325 29.8836 22.768 29.6992 22.6575 29.4807C22.4566 29.0832 21.9608 28.7942 21.5067 28.8696C21.1725 28.9073 20.8944 29.0411 20.6805 29.306C20.493 29.5386 20.3882 29.8871 20.4268 30.1849C20.5391 31.0509 21.7898 32.0782 22.4686 32.5814C22.645 32.712 23.5448 33.3844 23.7095 33.356C23.8144 33.3381 23.9592 33.2197 24.048 33.1618C24.6737 32.7578 25.2657 32.3044 25.8187 31.8057Z" fill="#551586"/>
</svg>
