<svg width="48" height="48" viewBox="0 0 48 48" fill="none" xmlns="http://www.w3.org/2000/svg">
<path d="M11.945 9H36.2175C36.2862 9.03527 36.3555 9.06203 36.4249 9.09504C37.0634 9.39889 36.9231 10.1613 36.9216 10.7825L36.9212 12.1169L36.9216 17.421L36.9213 31.1902V35.768C36.9213 36.5166 36.9226 37.2671 36.9221 38.0158C36.9219 38.1776 36.8935 38.3911 36.8181 38.534C36.7201 38.7196 36.5635 38.8367 36.3787 38.9266C36.3269 38.9518 36.2582 38.9714 36.2144 39H11.9607C11.8832 38.9583 11.7924 38.9275 11.7118 38.8838C11.3952 38.7129 11.2562 38.4299 11.2566 38.0789C11.2574 37.3351 11.2571 36.5905 11.2571 35.8463L11.2572 31.3222L11.2573 17.6717L11.2573 12.5662L11.2568 10.9855C11.2566 10.5881 11.221 9.93479 11.3148 9.56433C11.3947 9.24893 11.6953 9.12582 11.945 9ZM19.2259 37.2393C20.1031 37.2438 21.0423 37.2557 21.9183 37.2409L21.9218 34.0664L21.9202 33.2348C21.9197 33.0016 21.9068 32.7628 21.9492 32.533C22.0768 31.8409 22.9669 31.6446 23.4379 32.1246C23.7313 32.4236 23.68 32.8496 23.68 33.2379L23.6801 34.1172L23.679 37.2393C24.2522 37.2419 24.8611 37.2508 25.4339 37.2409L25.437 27.3325C25.4367 26.9483 25.4402 26.5566 25.4349 26.1729C25.3072 26.0947 25.1214 26.0347 24.9821 25.9702C24.8046 25.8879 24.6404 25.7999 24.4728 25.6989C23.3012 24.9939 22.4494 23.8613 22.0973 22.54C22.0092 22.2134 21.9543 21.8787 21.9333 21.5411C21.9086 21.1467 21.9211 20.6599 21.9209 20.2575L21.9205 18.0653L21.9207 16.2211C21.9208 15.8787 21.9148 15.5398 21.9318 15.1971C21.956 14.712 22.3691 14.3674 22.8469 14.4005C23.3553 14.4357 23.6717 14.8001 23.6778 15.3052C23.6827 15.7042 23.6789 16.1047 23.6788 16.5045L23.6793 19.3004L23.6787 20.5154C23.6785 21.1401 23.6475 21.615 23.8357 22.2278C24.0787 23.0192 24.5958 23.6981 25.2944 24.1425C25.3407 24.1726 25.3876 24.2019 25.435 24.2303L25.4368 14.7619C25.4367 13.4517 25.4144 12.0732 25.4397 10.7674C25.0599 10.7626 24.6799 10.7615 24.2999 10.764C24.146 10.7644 23.8192 10.776 23.681 10.7553C23.6778 11.097 23.685 11.3755 23.4219 11.6363C23.2527 11.8042 23.0223 11.8958 22.784 11.8898C22.5487 11.8852 22.3222 11.7987 22.1581 11.6275C21.9198 11.3789 21.9143 11.0873 21.9238 10.7673C21.5257 10.7624 21.1275 10.7612 20.7294 10.7638C20.5726 10.7643 20.2458 10.7759 20.1056 10.7561L20.1059 12.62C20.106 12.9378 20.112 13.2529 20.0954 13.5703C20.0707 14.0408 19.6909 14.3892 19.2203 14.3881C18.9785 14.387 18.7471 14.289 18.578 14.116C18.3046 13.8317 18.3417 13.419 18.3465 13.0511C18.3564 12.292 18.3317 11.5256 18.3499 10.7674C17.9665 10.7626 17.5831 10.7615 17.1997 10.7641C17.0484 10.7646 16.725 10.7763 16.592 10.7551C16.5796 11.529 16.5894 12.3256 16.5896 13.1016L16.5896 17.3486L16.5895 19.3173C16.5895 19.8353 16.5619 20.4513 16.6626 20.95C16.7887 21.5868 17.0962 22.1735 17.5479 22.6397C18.1873 23.2987 18.6793 23.3765 19.4202 23.804C20.9217 24.6702 22.1557 26.1785 22.1448 27.9882C22.1377 29.1757 21.5853 30.2093 20.7525 31.0233C20.5577 31.2138 20.3445 31.3838 20.1571 31.581C19.5289 32.2422 19.2362 33.0343 19.227 33.9426C19.2159 35.0382 19.2376 36.1437 19.2259 37.2393ZM30.2957 37.2231C30.3108 36.4304 30.3002 35.6068 30.3002 34.8125L30.3001 30.4433L30.2999 17.3044V13.0126C30.2999 12.2873 30.2821 11.4841 30.303 10.7674C29.5869 10.7613 28.8705 10.7595 28.1544 10.7619C27.9555 10.7622 27.3497 10.7795 27.1975 10.7551C27.182 11.7398 27.1946 12.7505 27.1949 13.7374L27.1952 19.1632L27.1946 37.2393L29.442 37.2423C29.577 37.2425 30.2066 37.258 30.2882 37.2312L30.2957 37.2231ZM13.016 24.95C14.3389 24.8845 15.8746 25.1688 16.8944 26.0757C17.9888 27.0486 18.1116 28.5939 17.1028 29.6832C16.2516 30.6021 14.9712 30.952 13.7547 31.0192C13.5824 31.0282 13.1785 31.0399 13.0176 31.0209C12.9956 33.0889 13.0369 35.1725 13.015 37.2393L15.6402 37.2416C16.2383 37.2416 16.8696 37.251 17.4652 37.2409L17.4679 34.8776C17.4679 34.4026 17.4527 33.8546 17.4982 33.3882C17.6152 32.1875 18.1546 31.0673 19.0203 30.2271C19.2105 30.04 19.4179 29.8679 19.6051 29.6802C20.0617 29.2226 20.3853 28.6175 20.3839 27.9593C20.3813 26.6801 19.3143 25.7225 18.2573 25.1773C17.9616 25.0247 17.6544 24.896 17.369 24.7235C15.7103 23.6963 14.846 22.0878 14.8319 20.1677L14.8314 14.4959L14.8313 12.0967C14.8313 11.6602 14.8243 11.2014 14.8343 10.7674C14.4393 10.7625 14.0443 10.7614 13.6494 10.764C13.4972 10.7645 13.151 10.7763 13.0178 10.7551C12.9911 12.5092 13.0149 14.3234 13.0152 16.0812L13.016 24.95ZM32.0579 37.2393L34.3053 37.2423C34.4405 37.2425 35.0699 37.258 35.1515 37.2312L35.1591 37.2231C35.1742 36.4271 35.1635 35.6001 35.1635 34.8023L35.1634 30.4359L35.1632 17.319V13.0112C35.1632 12.287 35.1452 11.4827 35.1663 10.7674C34.4525 10.7613 33.7387 10.7595 33.0247 10.762C32.8249 10.7622 32.2142 10.7797 32.0608 10.7551C32.0453 11.7397 32.0579 12.7505 32.0582 13.7374L32.0585 19.1632L32.0579 37.2393ZM13.0178 29.2493C13.9228 29.3156 14.6845 29.1983 15.4838 28.7341C15.8607 28.4839 16.2819 28.0951 15.9226 27.6176C15.5358 27.1034 14.7804 26.8673 14.1744 26.7599C13.9538 26.7233 13.6982 26.7095 13.476 26.705C13.3387 26.7022 13.1487 26.7246 13.0192 26.706C13.0024 27.4264 13.0229 28.1527 13.0156 28.8735C13.0144 28.9978 13.014 29.1255 13.0178 29.2493Z" fill="#E61C8B"/>
<path d="M19.1506 16.1532C19.5711 16.1391 19.9926 16.3866 20.0743 16.8253C20.1265 17.106 20.1055 17.4645 20.1057 17.7545L20.1061 19.1994L20.1057 20.3931C20.1053 21.106 20.1895 21.7623 19.2938 21.9135C19.0945 21.9317 18.8804 21.8647 18.7138 21.7559C18.2804 21.4727 18.3469 20.9808 18.3465 20.5264L18.3459 19.3171L18.346 17.7993C18.3463 17.081 18.2191 16.2947 19.1506 16.1532Z" fill="#E61C8B"/>
</svg>
