<svg width="20" height="20" viewBox="0 0 20 20" fill="none" xmlns="http://www.w3.org/2000/svg">
<path d="M3.02511 1.25406C3.31969 1.23797 3.71695 1.24944 4.01643 1.24951L5.86036 1.24957L11.5365 1.24959L15.2392 1.24957L16.3539 1.24941C17.0337 1.24917 17.5093 1.21903 18.0739 1.68505C18.46 2.00583 18.7004 2.46873 18.7408 2.96906C18.7625 3.21671 18.7507 3.61591 18.7505 3.87104L18.7502 5.45822L18.7505 10.5916V14.9752L18.7504 16.2963C18.7504 16.5187 18.7602 16.8672 18.736 17.0798C18.696 17.4506 18.5454 17.8008 18.3038 18.085C17.9664 18.4858 17.5102 18.7049 16.9924 18.7481C16.6255 18.7609 16.2234 18.7532 15.8547 18.7533L13.8878 18.7534L7.92156 18.7533H4.57135L3.58882 18.7535C3.37479 18.7537 3.09339 18.761 2.88639 18.7353C2.52423 18.689 2.18365 18.5373 1.907 18.299C1.52981 17.9797 1.296 17.5228 1.25768 17.0301C1.23754 16.7636 1.24972 16.3531 1.24998 16.0789L1.25015 14.3682L1.24989 8.96634V4.87586L1.24995 3.65215C1.24997 3.42021 1.24061 3.10417 1.26785 2.88017C1.31558 2.50816 1.4739 2.15904 1.72231 1.87803C2.05941 1.49168 2.51896 1.29009 3.02511 1.25406ZM8.75461 17.4996C8.95749 17.4995 9.17099 17.5027 9.37307 17.4991L9.37504 6.98567L9.375 4.0399C9.37499 3.54336 9.36334 2.99846 9.37699 2.50642C8.14272 2.49131 6.88422 2.50292 5.64826 2.50289L4.0125 2.50291C3.73302 2.50293 3.42553 2.49679 3.14759 2.50433C2.93416 2.52029 2.80286 2.55166 2.64987 2.7165C2.5681 2.8046 2.5051 2.97113 2.50296 3.09107C2.49806 3.36323 2.50022 3.64331 2.50022 3.91621L2.50025 5.52426L2.50034 10.526L2.50044 14.8587L2.49992 16.2141C2.4998 16.4537 2.4944 16.7007 2.50522 16.9401C2.51722 17.2056 2.76966 17.462 3.0323 17.489C3.23552 17.5083 3.47261 17.5003 3.67979 17.5002L4.84933 17.4996H8.75461ZM10.627 2.4982C10.6202 2.91453 10.6295 3.33228 10.625 3.74805L15.1183 3.7498L16.69 3.74973C16.9356 3.74972 17.2605 3.7593 17.4982 3.74837L17.5007 3.35847C17.5019 3.10229 17.511 2.88703 17.3189 2.68893C17.1382 2.5026 16.936 2.5026 16.6901 2.50238L12.3532 2.50299L11.1778 2.50378C11.0599 2.50394 10.7197 2.51304 10.627 2.4982ZM15.0006 4.99884C15.0012 5.6822 15.0652 6.34347 14.5878 6.90034C14.4249 7.09033 14.1979 7.33114 14.0098 7.4965C14.396 7.51278 14.7909 7.4903 15.1778 7.49935C15.5092 7.50711 15.836 7.43475 16.0845 7.70554C16.1971 7.82648 16.2559 7.98778 16.2476 8.15275C16.2341 8.41428 16.0337 8.68215 15.7644 8.73608C15.6101 8.76696 15.3771 8.7533 15.2149 8.75335L14.3431 8.75359L13.1359 8.75367C12.9253 8.75366 12.7057 8.75048 12.499 8.74948C12.0057 8.74709 11.7103 8.20356 11.9717 7.79325C12.0779 7.62652 12.3233 7.40935 12.4696 7.26329L13.3211 6.41318C13.4215 6.31291 13.6628 6.09201 13.7019 5.9668C13.7836 5.70547 13.7432 5.29523 13.752 5.0064C13.0203 4.99758 12.2801 5.00245 11.5479 5.00293L10.9642 5.00441C10.8713 5.00485 10.7127 5.01194 10.627 4.99823C10.6118 5.98464 10.6249 7.00381 10.6251 7.99219L10.625 14.9981L14.2157 14.9996L15.1986 14.9992C15.3221 14.9992 15.613 14.9929 15.7194 15.0099C15.8527 15.0303 15.976 15.0929 16.0711 15.1884C16.187 15.308 16.2502 15.4691 16.2466 15.6355C16.2419 15.8206 16.1808 15.9526 16.0475 16.08C15.9826 16.142 15.8531 16.2258 15.7652 16.2355C15.5195 16.2626 15.2453 16.2533 14.9967 16.2533H13.683H11.6392L10.9884 16.2535C10.876 16.2538 10.7337 16.2642 10.6256 16.2489L10.625 17.4981L14.9795 17.4993L16.2794 17.5001C16.4513 17.5001 16.8149 17.5102 16.9649 17.4888C17.0958 17.4704 17.217 17.4095 17.3099 17.3154C17.3751 17.2506 17.4567 17.1332 17.4727 17.0454C17.5151 16.8128 17.5006 16.5456 17.5006 16.3086L17.5001 15.2393L17.4999 8.44762V6.20193C17.4999 5.81765 17.4908 5.38808 17.502 5.0064C16.9235 5.00228 16.3448 5.00113 15.7662 5.00295L15.3145 5.0046C15.2187 5.00541 15.0926 5.01105 15.0006 4.99884Z" fill="#83888D"/>
<path d="M7.45072 8.75324C7.77791 8.73332 8.08283 8.95745 8.11766 9.29416C8.13773 9.48814 8.13304 9.74943 8.12719 9.94636C8.12033 10.1768 8.15291 10.5192 8.11233 10.7388C8.09528 10.8352 8.05524 10.9261 7.99562 11.0038C7.88186 11.1518 7.74078 11.2235 7.55915 11.2488C7.23517 11.2629 6.92238 11.0578 6.88591 10.7143C6.86524 10.5195 6.87205 10.2513 6.87739 10.0534C6.88364 9.82214 6.85057 9.46719 6.89359 9.24692C6.91202 9.1512 6.95264 9.06113 7.01216 8.98394C7.12891 8.83258 7.26697 8.77841 7.45072 8.75324Z" fill="#83888D"/>
</svg>
