<svg width="20" height="20" viewBox="0 0 20 20" fill="none" xmlns="http://www.w3.org/2000/svg">
<path d="M3.0278 1.25395C3.03068 1.25379 3.03357 1.25364 3.03645 1.25348C3.53458 1.23002 4.02152 1.40611 4.38944 1.74275C4.7581 2.08038 4.97419 2.54658 4.99582 3.04371C5.00759 3.31392 4.99237 3.58997 5.00372 3.86129C5.13741 3.81628 5.29837 3.77171 5.43984 3.76219C5.83411 3.73565 6.23538 3.75531 6.63082 3.74919C6.79509 3.74665 6.97141 3.74814 7.13264 3.76937C7.27675 3.7889 7.41799 3.82568 7.55333 3.87889C8.01608 4.05902 8.38862 4.41513 8.58942 4.86928C8.77639 5.29894 8.80488 5.80873 8.63159 6.24739C9.21053 6.26317 9.85455 6.2498 10.437 6.24979L13.7474 6.2491C13.7546 5.82592 13.6446 5.21277 14.1497 5.03999C14.3361 4.97621 14.7816 4.99946 14.9907 4.99944L16.3117 4.99965L17.522 4.99908C17.6121 4.99897 17.7021 4.99744 17.7923 4.99882C17.9559 5.00133 18.1164 4.98853 18.2785 5.02206C18.4274 5.05285 18.5713 5.16584 18.6517 5.29285C18.7203 5.40112 18.7472 5.51556 18.7479 5.64191C18.7514 5.99347 18.75 6.3451 18.7498 6.69665L18.7496 8.63792V14.6168L18.75 17.1218L18.7503 17.7866C18.7503 18.1927 18.7895 18.4457 18.4037 18.6844C18.3431 18.7122 18.2643 18.7431 18.1976 18.7462C17.9557 18.7573 17.703 18.7534 17.4611 18.7534L16.0794 18.7533L11.5651 18.7532L5.07737 18.753H2.96339C2.60151 18.753 2.23896 18.7572 1.87737 18.7511C1.66362 18.7501 1.48448 18.6488 1.35809 18.4779C1.20133 18.2659 1.25789 17.9541 1.24909 17.703C1.24329 17.5376 1.24919 17.3609 1.24928 17.1946L1.2496 15.3111L1.2495 9.41764L1.24918 5.03324L1.24915 3.71248C1.24919 3.46577 1.23913 3.12512 1.26705 2.88774C1.31214 2.51529 1.46894 2.16522 1.71679 1.88359C2.05381 1.49369 2.51876 1.28874 3.0278 1.25395ZM2.49941 8.748L9.05196 8.74942L10.9758 8.74945L11.5486 8.74951C11.8394 8.74955 12.0985 8.7146 12.3192 8.9386C12.4355 9.05669 12.4997 9.21646 12.4972 9.38218C12.4954 9.54985 12.4257 9.70962 12.3042 9.82517C12.2037 9.92136 12.0742 9.98152 11.9359 9.99626C11.7635 10.0156 11.3015 10.0035 11.1109 10.0032H9.51981H6.48881C6.01722 10.0032 5.54403 10.0028 5.07232 10.0056C5.05143 10.0057 5.02078 10.0017 4.99992 9.9988L4.99954 10.8776C4.99953 11.0188 4.99338 11.2248 5.00449 11.3619C5.38767 11.2172 5.83081 11.2492 6.2365 11.2493C6.519 11.2493 6.88099 11.233 7.15534 11.2729C7.32663 11.2987 7.4935 11.3483 7.65111 11.4202C7.86209 11.5166 8.05353 11.6511 8.21584 11.8168C8.55869 12.1788 8.75925 12.6479 8.7474 13.15C8.7432 13.3543 8.70423 13.5563 8.63216 13.7475C9.39571 13.7562 10.1679 13.75 10.9324 13.75L13.7474 13.7491L13.7494 9.37206C13.7494 8.76162 13.7388 8.11345 13.7513 7.50635C12.7832 7.49462 11.8027 7.50301 10.8333 7.50296L5.55256 7.50293L3.4236 7.5031L2.84077 7.50421C2.7429 7.50476 2.5927 7.51236 2.50131 7.49808C2.49458 7.91444 2.50384 8.33221 2.49941 8.748ZM2.49941 17.498L11.2907 17.4995L13.1273 17.4994C13.2116 17.4994 13.6881 17.5092 13.7401 17.4939L13.7464 17.4873C13.7626 16.6701 13.7276 15.8162 13.7513 15.0063C12.7832 14.9946 11.8027 15.003 10.8333 15.003L5.55256 15.0029L3.4236 15.0031L2.84077 15.0042C2.74286 15.0048 2.59276 15.0124 2.50132 14.9981C2.48857 15.8282 2.5083 16.6676 2.49941 17.498ZM2.49941 13.748C2.60355 13.7485 3.72228 13.7603 3.7465 13.7373C3.76442 12.8065 3.73912 11.8574 3.74939 10.9249C3.75275 10.6201 3.7443 10.3107 3.75135 10.0063C3.47564 10.003 3.19989 10.0023 2.92416 10.0041C2.82263 10.0044 2.59015 10.0124 2.50131 9.99812C2.48138 11.2403 2.51199 12.5037 2.49941 13.748ZM15.0013 11.2481C14.9944 11.6643 15.0039 12.0823 14.9994 12.498L16.8396 12.5001C16.9295 12.5001 17.4394 12.5096 17.4915 12.4927L17.4964 12.4873C17.5049 12.0783 17.4913 11.663 17.5013 11.2563C16.9169 11.2493 16.326 11.2522 15.7411 11.2528L15.3016 11.2547C15.215 11.2552 15.0834 11.2613 15.0013 11.2481ZM14.9994 14.998L16.8396 15.0001C16.9294 15.0001 17.4395 15.0096 17.4915 14.9927L17.4964 14.9873C17.5046 14.5785 17.4911 14.1625 17.5013 13.7563L15.7411 13.7528L15.3016 13.7547C15.215 13.7552 15.0834 13.7613 15.0013 13.7482C14.9946 14.1645 15.0039 14.5822 14.9994 14.998ZM17.5013 16.2563C16.9168 16.2493 16.326 16.2522 15.7411 16.2528L15.3016 16.2547C15.215 16.2552 15.0834 16.2613 15.0013 16.2481C14.9946 16.6645 15.0039 17.0822 14.9994 17.498L16.8396 17.5001C16.9294 17.5001 17.4395 17.5096 17.4915 17.4927L17.4965 17.4873C17.5046 17.0785 17.4912 16.6626 17.5013 16.2563ZM14.9994 9.99802L16.8396 10.0001C16.9295 10.0001 17.4394 10.0096 17.4915 9.99265L17.4964 9.98728C17.5047 9.5783 17.4913 9.1629 17.5013 8.75635C16.9169 8.74931 16.326 8.75218 15.7411 8.75284L15.3016 8.75463C15.2151 8.75525 15.0833 8.76135 15.0013 8.74811C14.9946 9.16445 15.0039 9.58221 14.9994 9.99802ZM6.86776 6.24841C7.07002 6.23236 7.20892 6.18405 7.34562 6.02561C7.454 5.90183 7.5075 5.73935 7.49387 5.57538C7.48185 5.41148 7.40467 5.25921 7.27957 5.15262C7.09759 4.99826 6.89096 4.99876 6.66454 5.00238C6.32688 5.00778 5.98289 4.99398 5.64594 5.00435C5.43686 5.01956 5.29022 5.05371 5.1472 5.22193C5.03801 5.35198 4.98605 5.52066 5.00313 5.6896C5.01892 5.8541 5.10113 6.00502 5.23077 6.10749C5.30421 6.16706 5.39055 6.20865 5.4829 6.22894C5.57542 6.24901 5.67644 6.25162 5.77087 6.25058C6.1359 6.2466 6.50292 6.25494 6.86776 6.24841ZM6.86724 13.7484C7.07109 13.7323 7.2111 13.6832 7.34816 13.5227C7.45592 13.398 7.50837 13.2348 7.49348 13.0707C7.48008 12.9052 7.40025 12.7521 7.27218 12.6465C7.08716 12.4942 6.87363 12.4988 6.64598 12.5023C6.31454 12.5075 5.97665 12.4942 5.64598 12.5044C5.4369 12.5196 5.29024 12.5537 5.1472 12.7219C5.03801 12.852 4.98605 13.0207 5.00313 13.1896C5.01891 13.3541 5.10113 13.5051 5.23078 13.6075C5.30423 13.6671 5.39056 13.7087 5.4829 13.729C5.57547 13.749 5.6764 13.7516 5.77087 13.7506C6.13575 13.7467 6.50255 13.7549 6.86724 13.7484ZM15.0013 6.24816C14.9944 6.66437 15.0039 7.08226 14.9994 7.498L16.8396 7.50003C16.9294 7.50003 17.4395 7.50966 17.4915 7.49266L17.4964 7.48725C17.5047 7.07831 17.4913 6.66289 17.5013 6.25633L15.7411 6.25284L15.2871 6.25471C15.2024 6.25536 15.082 6.26114 15.0013 6.24816ZM3.04268 2.51276C2.76975 2.54655 2.55154 2.741 2.51278 3.0185C2.49386 3.15401 2.4993 3.29078 2.49931 3.42744L2.49956 4.01274C2.49963 4.75302 2.50753 5.50936 2.49941 6.24803L3.22662 6.24955C3.39912 6.24951 3.57527 6.2514 3.74743 6.24912L3.74986 4.06622L3.74972 3.46364C3.74958 3.17457 3.78457 2.90642 3.56387 2.68499C3.44995 2.56974 3.29424 2.50549 3.13219 2.50688C3.10409 2.50685 3.06998 2.50799 3.04268 2.51276Z" fill="#83888D"/>
</svg>
