<svg width="20" height="20" viewBox="0 0 20 20" fill="none" xmlns="http://www.w3.org/2000/svg">
<path d="M1.82765 1.25329C1.86682 1.25144 1.90602 1.25027 1.94522 1.2498L7.86617 1.24954L9.7676 1.24936L10.3466 1.24941C10.4624 1.2495 10.5794 1.24774 10.6947 1.25691C10.9637 1.27826 11.2116 1.51065 11.2409 1.78073C11.2614 1.96978 11.2533 2.16919 11.253 2.36022L11.2521 3.33319L11.2535 6.73844C11.2534 6.806 11.2541 6.87359 11.2456 6.94001C11.2006 7.29328 10.924 7.50668 10.574 7.50295C9.81828 7.49488 9.05936 7.51328 8.30394 7.50314C8.31978 7.55957 8.33391 7.62054 8.34753 7.67773C8.43189 8.03188 8.53123 8.38514 8.61077 8.7402C8.72983 8.75644 9.00087 8.75008 9.12961 8.75006L10.071 8.7496L14.7008 8.74956L16.183 8.74927C16.4352 8.74926 16.7856 8.73934 17.0295 8.75869C17.2081 8.7721 17.3837 8.81162 17.5509 8.87599C18.0124 9.0552 18.3851 9.40877 18.5882 9.86034C18.7894 10.3127 18.8031 10.8264 18.6264 11.2888C18.411 11.8429 18.0347 12.1567 17.5061 12.3901C17.4952 12.5331 17.5022 12.7614 17.5022 12.9114L17.5023 13.8527L17.5026 16.8345L17.5027 17.6827C17.5028 17.8624 17.5107 18.049 17.488 18.2268C17.4499 18.5251 17.175 18.7505 16.877 18.7496C16.7088 18.7496 16.5479 18.6815 16.4308 18.5607C16.3512 18.4783 16.2724 18.3534 16.2634 18.2391C16.2442 17.9963 16.2518 17.7385 16.2519 17.4947L16.2525 16.057L16.2519 13.3246C16.2519 12.8593 16.2508 12.3921 16.2531 11.9267C16.2533 11.8627 16.2669 11.7223 16.286 11.665C16.3571 11.47 16.518 11.317 16.7224 11.2714C16.7999 11.2555 16.8824 11.249 16.9607 11.2377C17.2729 11.1926 17.4997 10.9379 17.4987 10.6206C17.4982 10.4543 17.4304 10.3005 17.3138 10.1819C17.2114 10.0776 17.0916 10.0251 16.9469 10.0134C16.7994 9.99901 16.6567 10.0028 16.509 10.0027L15.8864 10.0028L13.7867 10.0034L6.93059 10.0032H4.30903L3.53151 10.0029C3.37124 10.0027 3.21345 9.99862 3.05347 10.0117C2.76124 10.0355 2.53975 10.2685 2.50745 10.5564C2.48789 10.7217 2.53635 10.8877 2.64169 11.0164C2.73568 11.1328 2.86898 11.2107 3.01647 11.2356C3.17372 11.261 3.6594 11.2502 3.84918 11.2501L5.47794 11.2494L11.614 11.2496L13.502 11.2492H14.0692C14.3803 11.2492 14.6508 11.2182 14.8652 11.4884C14.9691 11.6187 15.0163 11.7853 14.9964 11.9509C14.9599 12.2615 14.6878 12.4966 14.3781 12.5002C14.121 12.5031 13.865 12.5036 13.6079 12.5034L12.197 12.503L7.81913 12.5031L4.99409 12.5032L4.22218 12.5038C4.09718 12.5046 3.87041 12.5132 3.75272 12.4988L3.75243 16.447L3.75292 17.5879C3.75299 17.7797 3.76645 17.9964 3.74453 18.1875C3.66188 18.9081 2.64912 18.9418 2.51439 18.2361C2.48257 18.0695 2.50161 17.7822 2.50172 17.6066L2.50245 16.4648L2.50067 12.3922C2.23262 12.2702 2.04321 12.1794 1.82557 11.9684C1.46554 11.6221 1.25962 11.1457 1.25403 10.6463C1.24755 10.1394 1.44528 9.65128 1.80267 9.29185C2.42202 8.66946 3.09226 8.74845 3.88233 8.74974C3.92777 8.60704 3.96696 8.43315 4.00361 8.28625L4.19955 7.50408L2.5937 7.50367C2.323 7.50409 2.02356 7.51496 1.75619 7.48752C1.54263 7.46561 1.28318 7.2135 1.26453 6.99744C1.24308 6.74885 1.25166 6.47524 1.25186 6.22049L1.25221 4.66877L1.25198 2.73915L1.25201 2.14822C1.25203 2.04086 1.24589 1.9164 1.2579 1.81071C1.29507 1.48362 1.51326 1.29414 1.82765 1.25329ZM2.5022 6.24804L8.20117 6.24982L9.49606 6.24978C9.56194 6.24977 9.9511 6.25451 9.99416 6.24266L9.99924 6.23726C10.0239 4.99731 9.97541 3.74485 10.0041 2.50637C9.34329 2.49844 8.67464 2.50307 8.01316 2.503L4.62278 2.50294L3.16176 2.50311C3.01503 2.50329 2.61822 2.51528 2.50411 2.49817C2.4836 3.73963 2.51481 5.00408 2.5022 6.24804ZM5.48873 7.5046L5.28315 8.33065C5.25726 8.43493 5.20945 8.65323 5.1743 8.74777L6.8427 8.74969L7.328 8.75048C7.29017 8.64818 7.21596 8.32825 7.18907 8.21111C7.14124 8.00273 7.05499 7.71318 7.02142 7.51135C6.90352 7.49942 6.7668 7.50107 6.64753 7.50264C6.31918 7.50694 5.9872 7.49691 5.65925 7.50477C5.59986 7.50607 5.54825 7.50691 5.48873 7.5046Z" fill="#83888D"/>
</svg>
