<svg width="20" height="20" viewBox="0 0 20 20" fill="none" xmlns="http://www.w3.org/2000/svg">
<path d="M5.46485 3.75395C5.97204 3.73461 6.49271 3.75731 7.00157 3.74925C7.26007 3.74516 7.55127 3.74211 7.80706 3.76671C8.49248 3.83633 9.13552 4.13106 9.6357 4.60482C9.77885 4.74076 9.87748 4.86169 10.0029 5.01358C10.1047 4.88455 10.1981 4.76705 10.315 4.65038C10.8032 4.1681 11.4369 3.86036 12.1178 3.77486C12.3058 3.7513 12.4731 3.74984 12.6613 3.74952L13.8582 3.74924C14.1261 3.74929 14.4453 3.74065 14.7074 3.76777C15.4199 3.84419 16.0844 4.16338 16.5894 4.67178C17.1126 5.1949 17.4321 5.8875 17.4904 6.62508C17.5122 6.88378 17.5027 7.22078 17.5026 7.48809L17.5025 8.86218C18.3546 9.22102 18.7498 9.82323 18.7525 10.7493L18.7526 14.159L18.753 15.1502C18.753 15.3453 18.7567 15.5392 18.7387 15.7342C18.7272 15.9341 18.4828 16.2015 18.2825 16.2321C18.0384 16.2693 17.6953 16.2529 17.4386 16.2528L15.8075 16.2532H6.50665L3.42619 16.2528L2.46748 16.2539C2.22068 16.2545 1.86536 16.2819 1.63551 16.2015C1.50294 16.155 1.34385 15.9911 1.29624 15.863C1.27132 15.7959 1.25511 15.7128 1.25461 15.6402C1.24901 15.3205 1.25209 14.9973 1.25218 14.6776L1.25221 12.8485L1.252 11.3301C1.25174 11.0509 1.24498 10.7615 1.25788 10.4842C1.28339 9.93612 1.59119 9.40049 2.04381 9.09351C2.19606 8.99025 2.33034 8.93126 2.50006 8.86467C2.50938 8.38623 2.4969 7.8994 2.50186 7.42031C2.50479 7.13769 2.49188 6.84685 2.518 6.56594C2.58215 5.91959 2.84543 5.30911 3.27147 4.81882C3.84175 4.1621 4.60504 3.813 5.46485 3.75395ZM10.6271 9.99803L12.4 9.9993C12.6493 9.9992 12.8991 9.99559 13.1481 10.0036C13.4873 10.0145 13.753 10.2913 13.7494 10.6314C13.7484 10.8002 13.678 10.961 13.5546 11.0763C13.4571 11.1689 13.3482 11.2297 13.2143 11.2411C12.9896 11.2602 12.7458 11.2533 12.5197 11.2533L11.2363 11.2534L6.91467 11.2533C6.61838 11.2533 5.61664 11.2201 5.39859 11.2957C5.16383 11.377 5.00971 11.6158 5.00342 11.8596C4.99926 12.02 5.05711 12.1815 5.16894 12.2978C5.29816 12.4322 5.45012 12.4876 5.63312 12.4989L11.6553 12.4998H13.5103H14.0592C14.3455 12.4999 14.5971 12.5327 14.8149 12.3135C14.8917 12.2373 14.9468 12.142 14.9745 12.0374C15.0177 11.8713 14.9975 11.7038 15.0027 11.5368C15.0142 11.1724 14.9729 10.6823 15.0336 10.3339C15.0828 10.0551 15.1923 9.79032 15.3545 9.5583C15.589 9.21907 15.8761 9.01434 16.2498 8.85564C16.2575 8.47656 16.2532 8.06549 16.2524 7.68512C16.2515 7.3124 16.2779 6.75666 16.1915 6.41361C16.1116 6.09752 15.9499 5.80797 15.7228 5.57399C15.4065 5.24693 14.9241 5.00974 14.4668 5.00896C13.8178 5.00785 13.1501 4.98745 12.5024 5.00437C11.9591 5.02651 11.5024 5.1953 11.1263 5.60145C10.9033 5.84117 10.748 6.13579 10.6761 6.4552C10.6182 6.71065 10.6285 6.94477 10.6268 7.20328C10.6209 8.13411 10.6366 9.06745 10.6271 9.99803ZM17.5001 14.9991L17.5022 11.7822L17.5029 11.0635C17.5029 10.8881 17.5149 10.6029 17.4704 10.4412C17.444 10.3469 17.3933 10.261 17.3235 10.1923C17.0745 9.94276 16.6851 9.94149 16.4409 10.199C16.2301 10.4096 16.2544 10.6614 16.2513 10.9362C16.2474 11.2812 16.2632 11.6355 16.2466 11.9813C16.2 12.9508 15.3726 13.7449 14.4011 13.7509C13.7141 13.7551 13.0283 13.7532 12.3417 13.7532L8.38259 13.753L6.45597 13.7533C6.16657 13.7537 5.58716 13.7693 5.32182 13.7253C4.95041 13.6632 4.60606 13.4914 4.33305 13.232C3.67533 12.6161 3.74409 11.903 3.75265 11.0847C3.75453 10.9053 3.76583 10.6338 3.71561 10.4647C3.6815 10.3517 3.61781 10.2498 3.53113 10.1696C3.39644 10.0432 3.22007 9.98592 3.03701 10.013C2.75252 10.0519 2.53561 10.2638 2.51118 10.5539C2.49674 10.7254 2.50197 10.898 2.50204 11.0702L2.50236 11.9527L2.50212 14.998L17.5001 14.9991ZM3.75234 8.85627C4.2809 9.08541 4.64917 9.42687 4.86147 9.97176C4.88151 10.0246 4.90009 10.0779 4.91719 10.1317C5.0369 10.0957 5.21666 10.0393 5.33571 10.0237C5.6017 9.98895 5.89598 9.99911 6.16635 9.99911L7.38949 9.9996C8.04191 9.9996 8.72552 10.0107 9.37514 9.99911L9.37722 7.90453L9.37746 7.25063C9.37767 6.96971 9.38687 6.70628 9.32046 6.42979C9.24046 6.10086 9.07218 5.80001 8.83377 5.55967C8.42995 5.15023 7.94129 4.99258 7.3798 5.00316C6.80348 5.01402 6.198 4.98849 5.6241 5.00449C5.08167 5.02771 4.62701 5.19566 4.25129 5.60144C4.03579 5.83309 3.88335 6.11616 3.80855 6.42357C3.7307 6.73987 3.75195 7.20768 3.75198 7.54651L3.75234 8.85627Z" fill="#83888D"/>
</svg>
