<svg width="20" height="20" viewBox="0 0 20 20" fill="none" xmlns="http://www.w3.org/2000/svg">
<path d="M11.1521 7.50398C11.1687 7.50298 11.1854 7.50245 11.202 7.50235C12.2541 7.4895 13.0944 8.28923 13.1224 9.34235C13.1319 9.70007 12.8529 10.0064 12.4907 10.0004C12.2129 9.99747 11.9709 9.81016 11.8984 9.542C11.8802 9.47421 11.8719 9.37548 11.8633 9.30374C11.788 8.6215 10.8136 8.56269 10.6459 9.21419C10.6002 9.39196 10.6234 9.77618 10.6235 9.97706L10.6237 11.2481L15.8752 11.2496L17.3846 11.2492C17.5936 11.2491 17.9949 11.238 18.185 11.2568C18.3509 11.2718 18.5037 11.3533 18.6084 11.4829C18.7131 11.6122 18.7615 11.7782 18.7424 11.9436C18.722 12.1252 18.6356 12.2606 18.4945 12.3741C18.3011 12.5298 18.0819 12.5002 17.8487 12.5053C17.7483 12.5075 17.5965 12.5106 17.4993 12.4987L17.4989 16.3985L17.4997 17.5589C17.4998 17.7656 17.5037 17.9711 17.4928 18.1798C17.4789 18.4488 17.237 18.7118 16.9687 18.7434C16.828 18.7599 16.6506 18.7532 16.507 18.7533H15.6738L12.7332 18.7532H6.33915L4.24982 18.7534C3.88445 18.7536 3.51915 18.7546 3.15382 18.752C2.81811 18.7496 2.56247 18.5471 2.5047 18.2113C2.47965 17.9209 2.49846 17.5352 2.49855 17.238L2.49871 15.6418L2.49842 14.7885C2.49822 14.6221 2.48755 14.4267 2.51164 14.2645C2.55693 13.9598 2.81828 13.7549 3.11779 13.7526C3.28483 13.7509 3.44557 13.8162 3.56398 13.934C3.78823 14.1567 3.74913 14.4266 3.74927 14.7188L3.74938 15.3026L3.74871 17.4981L9.37171 17.4991C9.38723 15.8387 9.35423 14.1647 9.37566 12.5064C8.7298 12.4977 8.07251 12.5032 7.42587 12.5032L4.03043 12.5029L2.5616 12.503C2.31215 12.503 2.03989 12.5169 1.79368 12.494C1.48855 12.4658 1.25176 12.1846 1.25006 11.884C1.24768 11.7106 1.31611 11.5437 1.43956 11.4218C1.61272 11.2517 1.79558 11.2503 2.02551 11.2495C2.21918 11.2488 2.41344 11.2494 2.60717 11.2494H4.17579L9.37171 11.2491C9.37916 10.718 9.36962 10.1849 9.37334 9.65345C9.37508 9.40478 9.36852 9.17858 9.42687 8.93282C9.49885 8.63705 9.64092 8.36294 9.84107 8.1336C10.178 7.74399 10.6432 7.53863 11.1521 7.50398ZM10.6237 17.4981L14.8751 17.4999C15.0308 17.4999 16.1761 17.5153 16.2419 17.4913L16.2458 17.4873C16.2546 17.0383 16.2488 16.5721 16.2488 16.122L16.2487 13.6681C16.2486 13.2863 16.2425 12.8859 16.2506 12.5064C14.9119 12.4903 13.5499 12.5027 12.2095 12.503L11.1254 12.5038C11.0127 12.504 10.7177 12.5129 10.6256 12.4982C10.6226 12.9318 10.6219 13.3654 10.6237 13.7991C10.6242 15.0248 10.6365 16.274 10.6237 17.4981Z" fill="#83888D"/>
<path d="M12.4371 14.3788C12.7797 14.3445 13.0855 14.5941 13.1205 14.9366C13.1554 15.2792 12.9064 15.5855 12.5638 15.621C12.2205 15.6567 11.9133 15.4069 11.8783 15.0634C11.8432 14.7199 12.0935 14.4133 12.4371 14.3788Z" fill="#83888D"/>
<path d="M1.8248 1.25332C2.18583 1.23905 2.59829 1.24943 2.96477 1.2495L5.03368 1.24958L11.3623 1.24967L15.9375 1.24973L17.4073 1.2497C17.655 1.24968 17.9141 1.24188 18.1603 1.25368C18.5018 1.27004 18.7495 1.55618 18.7491 1.89422C18.7488 2.15145 18.7492 2.41564 18.7492 2.67595L18.7496 4.24924L18.7503 5.18377C18.7504 5.35462 18.7627 5.56387 18.7365 5.72935C18.6855 6.0527 18.4051 6.25215 18.0909 6.252C17.6728 6.25178 17.2628 6.25293 16.8488 6.25297L14.3803 6.25339L13.0819 6.25367C12.917 6.25368 12.7505 6.25286 12.5858 6.25296C12.3793 6.25308 12.2239 6.22289 12.0681 6.07603C11.8076 5.8306 11.8138 5.42537 12.0634 5.17464C12.1328 5.1043 12.2196 5.05353 12.315 5.02742C12.469 4.98673 12.7863 4.99882 12.9541 4.99888L13.7148 4.99963L17.4974 4.99915C17.5066 4.16965 17.4904 3.3355 17.5013 2.50639C15.894 2.48604 14.2539 2.50334 12.644 2.50325L11.2858 2.50336C11.1294 2.50348 10.7637 2.51562 10.6249 2.49883L10.6243 4.67331L10.6255 5.2977C10.626 5.52328 10.6528 5.77626 10.517 5.97029C10.3006 6.27956 10.0427 6.25305 9.70673 6.25338L9.07455 6.2533L6.87836 6.25328L3.4847 6.25295L2.46048 6.25357C2.2539 6.25424 2.04999 6.25622 1.84301 6.24922C1.57201 6.24005 1.28664 6.00793 1.26008 5.73221C1.23983 5.52197 1.24881 5.28455 1.24916 5.0699L1.24969 3.84836L1.24917 2.51111C1.24904 2.42947 1.24915 2.34675 1.24875 2.26534C1.24703 1.91699 1.20289 1.53967 1.553 1.33539C1.64729 1.28038 1.71745 1.26771 1.8248 1.25332ZM9.37138 4.98728C9.38561 4.28659 9.3665 3.58106 9.37427 2.87991C9.37565 2.75572 9.37249 2.63044 9.37628 2.50638C7.74421 2.48743 6.08214 2.50285 4.448 2.50293L3.12717 2.50309C2.9846 2.50328 2.61506 2.51531 2.50125 2.49819C2.48854 3.32829 2.50822 4.16757 2.49934 4.99806L7.7419 4.99985L8.90025 4.9998C8.96717 4.9998 9.32324 5.00456 9.36629 4.99268L9.37138 4.98728Z" fill="#83888D"/>
<path d="M7.43708 14.3788C7.77973 14.3445 8.08552 14.5941 8.12049 14.9366C8.15547 15.2792 7.90642 15.5855 7.56388 15.621C7.22048 15.6567 6.91334 15.4069 6.87828 15.0634C6.84321 14.7199 7.09356 14.4133 7.43708 14.3788Z" fill="#83888D"/>
</svg>
