<svg width="20" height="20" viewBox="0 0 20 20" fill="none" xmlns="http://www.w3.org/2000/svg">
<path d="M5.4653 3.75398C5.55979 3.75079 5.65432 3.74932 5.74886 3.74956L11.9476 3.7496L13.606 3.74933C14.0536 3.74926 14.5751 3.72526 15.0059 3.8144C15.6039 3.93792 16.1525 4.23406 16.584 4.66619C17.1122 5.19224 17.4341 5.89037 17.4911 6.63365C17.5116 6.883 17.5024 7.2105 17.5024 7.4653L17.5021 8.85997C17.8383 9.00512 18.0907 9.15444 18.3264 9.44419C18.5241 9.68521 18.6582 9.97198 18.7163 10.2783C18.7674 10.5509 18.7525 10.9713 18.7524 11.2645L18.7522 12.664L18.7527 13.8247C18.7527 14.0282 18.7585 14.2401 18.7449 14.4418C18.7282 14.6898 18.5251 14.9155 18.2882 14.9781C18.1494 15.0148 17.9946 15.0007 17.8521 15.0055C17.7421 15.0069 17.6109 15.0119 17.5025 14.9987L17.5033 15.4065C17.5036 15.6606 17.5118 15.8691 17.3188 16.0635C17.0654 16.3188 16.672 16.31 16.4233 16.0536C16.2324 15.8568 16.2499 15.6523 16.2509 15.3989L16.2539 15.0064C15.3669 14.9954 14.4649 15.003 13.5769 15.003L8.75741 15.0032L6.65231 15.0034L5.9861 15.004C5.85204 15.0042 5.71999 15.0062 5.58683 14.9972C5.24957 14.9745 4.98933 14.6958 5.00402 14.3543C5.00852 14.0516 5.2498 13.7767 5.55782 13.7568C5.81213 13.7404 6.09194 13.749 6.35156 13.7494L7.8612 13.7497L12.9362 13.7496L17.5 13.7491C17.5082 13.0355 17.5014 12.312 17.502 11.5976L17.5028 10.9598C17.503 10.687 17.5341 10.4126 17.3305 10.1986C17.1683 10.0281 16.9986 10.0028 16.7704 10.0029C15.7796 10.0034 14.7888 10.0034 13.7979 10.0034L7.7336 10.0033L4.60816 10.0035L3.65603 10.0025C3.32547 10.0018 2.91797 9.94171 2.67529 10.1926C2.47165 10.403 2.50095 10.6624 2.50149 10.9296L2.50262 11.5277L2.50197 13.7481L2.89141 13.749C3.14034 13.7501 3.37186 13.7381 3.5663 13.9291C3.71092 14.0711 3.75109 14.2571 3.75256 14.4528L3.7526 15.1145C3.75312 15.2904 3.76548 15.6285 3.72789 15.7814C3.70231 15.8885 3.64717 15.9862 3.56875 16.0635C3.31392 16.3192 2.92279 16.3095 2.67329 16.0536C2.48635 15.862 2.50008 15.6604 2.50084 15.4125L2.50395 15.0065C2.29029 14.9996 2.07478 15.0114 1.86129 15.0008C1.53565 14.9846 1.26149 14.7351 1.25511 14.4009C1.25031 14.1497 1.2516 13.9009 1.2518 13.6502L1.25183 12.3058L1.25163 11.1502C1.25164 10.9457 1.24429 10.6726 1.26072 10.4725C1.27487 10.2761 1.32194 10.0836 1.39995 9.90294C1.62651 9.3769 1.97788 9.07254 2.49966 8.86353C2.51011 8.38564 2.49635 7.89733 2.50174 7.41861C2.5049 7.13747 2.49184 6.85042 2.51746 6.57064C2.58074 5.92246 2.84434 5.31008 3.27161 4.81856C3.84138 4.16251 4.60577 3.81274 5.4653 3.75398ZM4.49046 8.74999C4.32614 8.37435 4.35651 7.82685 4.50376 7.44696C4.68256 6.97987 5.0421 6.60459 5.50109 6.40595C5.65566 6.33909 5.81849 6.29322 5.98523 6.26954C6.23397 6.23538 6.63453 6.25092 6.89933 6.24957C7.13425 6.24837 7.51845 6.2401 7.73957 6.26682C7.89892 6.28643 8.05493 6.32715 8.20353 6.38791C8.66569 6.57473 9.03451 6.93778 9.22859 7.39693C9.40292 7.81491 9.4301 8.3242 9.25973 8.74758C9.75329 8.75095 10.2469 8.75175 10.7404 8.74999C10.5793 8.37958 10.6017 7.80231 10.7588 7.43413C10.9842 6.90608 11.2949 6.60932 11.8063 6.38117C11.9428 6.33399 12.1064 6.2801 12.2505 6.26801C12.7165 6.22891 13.1918 6.25829 13.6596 6.24968C13.7875 6.24731 13.9272 6.25596 14.0526 6.27556C14.2297 6.30428 14.4017 6.35845 14.5632 6.43641C15.0132 6.65228 15.3582 7.03897 15.5217 7.51052C15.6533 7.89153 15.6663 8.37244 15.5098 8.74758C15.7564 8.75022 16.0032 8.75074 16.25 8.74914L16.2524 7.5805C16.2525 7.22195 16.2745 6.74413 16.1903 6.41148C16.1087 6.0883 15.9414 5.79311 15.7062 5.557C15.2663 5.1127 14.802 5.00352 14.2036 5.00293L8.5775 5.00308L6.63864 5.00303C6.31172 5.00304 5.95366 4.99605 5.62817 5.00442C5.08472 5.02622 4.62739 5.19516 4.25114 5.60146C4.03182 5.83723 3.87787 6.12619 3.80455 6.43975C3.73342 6.74021 3.7518 7.15032 3.75186 7.46865L3.75208 8.74896C3.99594 8.74849 4.24758 8.75331 4.49046 8.74999ZM7.49482 8.74848C7.69866 8.73234 7.83866 8.68326 7.97572 8.52275C8.08349 8.39802 8.13595 8.23484 8.12106 8.07068C8.10767 7.90518 8.02783 7.75215 7.89976 7.64647C7.71472 7.49423 7.50123 7.49881 7.27356 7.50234C6.94212 7.50749 6.60423 7.49425 6.27356 7.50438C6.06444 7.51959 5.91782 7.55373 5.77478 7.72196C5.66559 7.85201 5.61362 8.02069 5.6307 8.18964C5.64649 8.35414 5.72871 8.50508 5.85836 8.60755C5.9318 8.6671 6.01814 8.70868 6.11048 8.72897C6.20304 8.74905 6.30398 8.75162 6.39845 8.75062C6.76333 8.74671 7.13013 8.75487 7.49482 8.74848ZM13.7448 8.74848C13.9474 8.73243 14.0863 8.68431 14.2231 8.52564C14.3315 8.40187 14.3851 8.23939 14.3714 8.07543C14.3595 7.91151 14.2822 7.75925 14.1571 7.65266C13.9751 7.4983 13.7686 7.4988 13.5421 7.50242C13.2045 7.50782 12.8604 7.49401 12.5235 7.50438C12.3145 7.5196 12.1678 7.55374 12.0248 7.72196C11.9156 7.85201 11.8637 8.02069 11.8807 8.18964C11.8965 8.35414 11.9787 8.50508 12.1084 8.60756C12.1818 8.66711 12.2682 8.70868 12.3604 8.72897C12.453 8.74905 12.554 8.75162 12.6484 8.75062C13.0134 8.74671 13.3802 8.75487 13.7448 8.74848Z" fill="#83888D"/>
</svg>
