<svg width="55" height="16" viewBox="0 0 55 16" fill="none" xmlns="http://www.w3.org/2000/svg">
<path d="M10.8286 3.41271H11.6478L11.0616 12.0942H10.4804V13.598H11.4026L11.4785 13.105H14.7331L14.8089 13.598H15.7363V12.0942H15.2308V2.40198H10.8288H8.80414C2.00545 2.40198 0 3.29571 0 6.92275C0 6.92275 0.20355 6.93838 0.500461 7.00529C0.804383 7.07381 1.01334 7.14714 1.01334 7.14714C1.01334 4.22351 2.34323 3.41111 8.80434 3.41111L10.829 3.41752L10.8286 3.41271ZM14.2199 12.094H12.0467L12.6329 3.41251H14.2197V12.094H14.2199Z" fill="#551586"/>
<path d="M21.3475 4.34147V11.6584C21.3475 12.6311 20.5641 13.4145 19.5914 13.4145H18.4923C17.5321 13.4145 16.7363 12.6311 16.7363 11.6584V4.34147C16.7363 3.36859 17.5323 2.58545 18.4923 2.58545H19.5914C20.5641 2.58545 21.3475 3.36859 21.3475 4.34147ZM20.3367 4.34147C20.3367 3.92435 20.0084 3.59599 19.5914 3.59599H18.4923C18.0881 3.59599 17.7469 3.92435 17.7469 4.34147V11.6584C17.7469 12.0754 18.0881 12.4037 18.4923 12.4037H19.5914C20.0084 12.4037 20.3367 12.0754 20.3367 11.6584V4.34147Z" fill="#551586"/>
<path d="M23.3582 12.0912C23.3582 12.0912 23.0725 12.2298 22.8365 12.3228C22.6141 12.4105 22.3701 12.6363 22.3701 12.6363L22.3477 2.64856H24.3944L25.2156 8.32512H25.4684L26.2896 2.64856H28.3364V13.3514H27.3256V3.65929H27.1108L26.3023 9.33586H24.382L23.5734 3.65929H23.3586V12.0912H23.3582Z" fill="#551586"/>
<path d="M33.9471 4.34147V11.6584C33.9471 12.6311 33.1637 13.4145 32.191 13.4145H31.092C30.1317 13.4145 29.3359 12.6311 29.3359 11.6584V4.34147C29.3359 3.36859 30.1319 2.58545 31.092 2.58545H32.191C33.1637 2.58545 33.9471 3.36859 33.9471 4.34147ZM32.9363 4.34147C32.9363 3.92435 32.608 3.59599 32.191 3.59599H31.092C30.6877 3.59599 30.3465 3.92435 30.3465 4.34147V11.6584C30.3465 12.0754 30.6877 12.4037 31.092 12.4037H32.191C32.608 12.4037 32.9363 12.0754 32.9363 11.6584V4.34147Z" fill="#551586"/>
<path d="M37.2716 1.74709C38.0077 1.74709 38.6281 1.27088 38.8159 0.592509L38.1375 0.231689C38.0365 0.635584 37.7045 0.938905 37.2716 0.938905C36.8386 0.938905 36.5355 0.635784 36.4201 0.231689L35.7275 0.592509C35.9295 1.27088 36.5213 1.74709 37.2716 1.74709Z" fill="#551586"/>
<path d="M50.6727 8.36552C50.0038 8.36552 49.3544 8.49695 48.743 8.7564C46.8732 9.55117 45.9983 11.804 45.7613 13.2774C44.669 13.0151 42.365 12.5036 39.546 12.3989V2.68896H37.5245L36.1601 12.3812H35.958V2.68896H34.9473V13.3918H37.0192L38.371 3.6997H38.5352V13.3918C41.7229 13.3918 45.1656 14.1375 46.0594 14.4031L46.681 14.588L46.7097 13.9399C46.7373 13.313 46.9948 10.5996 49.1405 9.6884C49.6255 9.48304 50.141 9.37867 50.6727 9.37867C52.3508 9.37867 53.7159 10.7438 53.7159 12.4219C53.7159 13.7085 52.6691 14.7553 51.3825 14.7553C51.2972 14.7553 51.213 14.7477 51.1303 14.7355C51.1171 14.7337 51.104 14.7317 51.091 14.7295C50.9195 14.7006 50.7546 14.6477 50.6016 14.572C50.6004 14.5714 50.5992 14.5708 50.598 14.5704C50.3608 14.4524 50.1518 14.2821 49.9879 14.0719C49.9859 14.0693 49.9841 14.0667 49.9821 14.0643C49.8747 13.9249 49.787 13.7682 49.7245 13.5977C49.6546 13.408 49.6145 13.2038 49.6145 12.9901H48.6013C48.6013 13.3249 48.6639 13.6446 48.7728 13.9419L48.7714 13.9423C48.7758 13.9541 48.7813 13.9654 48.7857 13.9772C48.8049 14.0277 48.8247 14.0775 48.847 14.1264C48.8576 14.1503 48.8696 14.1731 48.8808 14.1966C48.9554 14.3504 49.0433 14.4961 49.1439 14.6325C49.1625 14.6579 49.1809 14.6836 49.2006 14.7082C49.2182 14.7305 49.2368 14.7519 49.2553 14.7735V14.7739C49.3298 14.8601 49.4784 15.0198 49.686 15.1792C49.9008 15.3441 50.1071 15.4543 50.2111 15.5054C50.3594 15.5745 50.5138 15.6322 50.6749 15.6745C50.7058 15.6827 50.7364 15.6913 50.7677 15.6983C50.8089 15.7078 50.8506 15.7156 50.8927 15.723C50.938 15.7312 50.9834 15.738 51.0293 15.7438C51.0632 15.748 51.097 15.7528 51.1313 15.7558C51.2106 15.763 51.2906 15.7677 51.3713 15.7681C51.3743 15.7681 51.3771 15.7685 51.3803 15.7685V15.7683C51.3811 15.7683 51.3821 15.7685 51.3829 15.7685C53.2281 15.7685 54.7295 14.2671 54.7295 12.4219C54.7293 10.1853 52.9094 8.36552 50.6727 8.36552Z" fill="#551586"/>
</svg>
