<svg width="208" height="49" viewBox="0 0 208 49" fill="none" xmlns="http://www.w3.org/2000/svg">
<path d="M44.0865 4.20162V44.0082H4.24949V4.20162H44.0865ZM48.2636 0.02771H0.0723877V48.1821H48.2636V0.02771Z" fill="#2C2D2E"/>
<path d="M17.6295 13.2889C18.0903 14.0854 18.6041 15.0587 19.1701 16.21C19.7361 17.362 20.3126 18.5717 20.8994 19.8385C21.4856 21.106 22.0676 22.3943 22.6441 23.7028C23.2198 25.012 23.7496 26.2211 24.2314 27.3313C24.7131 26.2211 25.2374 25.012 25.8034 23.7028C26.3694 22.3943 26.9458 21.1067 27.532 19.8385C28.1189 18.5717 28.6953 17.362 29.2613 16.21C29.8273 15.0587 30.3404 14.0847 30.8013 13.2889H34.3706C34.5627 14.8806 34.7438 16.5717 34.915 18.3623C35.0856 20.1529 35.2401 21.986 35.3787 23.8593C35.5172 25.7334 35.6453 27.6186 35.763 29.5136C35.8806 31.41 35.9816 33.2576 36.0679 35.0587H32.1693C32.0836 32.5244 31.982 29.9171 31.8643 27.2367C31.7467 24.5564 31.5706 21.9595 31.3359 19.4461C31.1048 19.9282 30.8326 20.5042 30.5179 21.1741C30.2039 21.844 29.8677 22.5717 29.5126 23.3571C29.1555 24.1425 28.7942 24.9543 28.4273 25.7919C28.0604 26.6294 27.7046 27.4412 27.3586 28.2266C27.0126 29.012 26.6931 29.7453 26.4 30.4249C26.1062 31.1059 25.8549 31.6868 25.6453 32.1689H22.69C22.4805 31.6875 22.2292 31.1011 21.9361 30.4096C21.6416 29.7188 21.3227 28.98 20.9767 28.1946C20.6314 27.4093 20.2743 26.5981 19.9081 25.7606C19.5412 24.923 19.1792 24.1167 18.8234 23.3411C18.4663 22.5668 18.1314 21.8392 17.8174 21.1574C17.5035 20.4771 17.2306 19.9067 17.0001 19.4454C16.7648 21.9588 16.588 24.5557 16.471 27.236C16.3534 29.9171 16.2524 32.5244 16.1661 35.058H12.2675C12.3531 33.2569 12.4547 31.3933 12.5724 29.4663C12.6893 27.5393 12.8181 25.6284 12.9567 23.7334C13.0945 21.8385 13.2498 20.0006 13.4203 18.2204C13.5909 16.4402 13.7726 14.7964 13.9648 13.2882H17.6295V13.2889Z" fill="#FE5A11"/>
<path d="M67.1422 5.41418C67.4938 6.05697 67.8989 6.85071 68.3591 7.7954C68.8186 8.7401 69.2976 9.76341 69.7954 10.8632C70.2938 11.9638 70.7874 13.0886 71.2761 14.2379C71.7642 15.3871 72.2236 16.4688 72.6539 17.481C73.0841 16.4681 73.5429 15.3871 74.0316 14.2379C74.5197 13.0886 75.0133 11.9638 75.5117 10.8632C76.0102 9.76271 76.4892 8.7401 76.9486 7.7954C77.4081 6.85071 77.8133 6.05697 78.1656 5.41418H82.3176C82.5119 6.75818 82.6929 8.26289 82.8586 9.92828C83.0236 11.5937 83.1698 13.3279 83.2972 15.129C83.4239 16.9307 83.5408 18.7373 83.648 20.5488C83.7552 22.3603 83.8478 24.0653 83.9258 25.6618H79.4814C79.4229 23.6945 79.3449 21.5519 79.2474 19.234C79.1493 16.9161 79.0031 14.5794 78.8088 12.2218C78.4566 13.0399 78.0653 13.9457 77.6351 14.9391C77.2049 15.9325 76.7795 16.9258 76.359 17.9192C75.9385 18.9126 75.5326 19.8622 75.142 20.7679C74.7508 21.6737 74.418 22.4479 74.1444 23.0907H70.9573C70.683 22.4479 70.3509 21.6737 69.9597 20.7679C69.5684 19.8622 69.1625 18.9126 68.742 17.9192C68.3215 16.9258 67.8962 15.9325 67.4659 14.9391C67.0357 13.9457 66.6444 13.0399 66.2929 12.2218C66.0979 14.5787 65.9517 16.9161 65.8543 19.234C65.7561 21.5526 65.6788 23.6952 65.6203 25.6618H61.1759C61.2532 24.0653 61.3465 22.3603 61.4537 20.5488C61.5609 18.7373 61.6779 16.9307 61.8046 15.129C61.9313 13.3279 62.0775 11.5937 62.2432 9.92828C62.4082 8.26289 62.5892 6.75818 62.7841 5.41418H67.1422Z" fill="#2C2D2E"/>
<path d="M86.2358 18.0944C86.2358 16.7316 86.4447 15.5378 86.8645 14.5152C87.2836 13.4926 87.8343 12.6404 88.5165 11.9587C89.1988 11.2777 89.9827 10.7608 90.8703 10.4102C91.7573 10.0596 92.6686 9.88428 93.6043 9.88428C95.7868 9.88428 97.5119 10.5514 98.7797 11.8857C100.047 13.2199 100.68 15.1831 100.68 17.773C100.68 18.0262 100.671 18.3037 100.65 18.6057C100.632 18.9083 100.612 19.1754 100.592 19.4091H90.7095C90.807 20.3051 91.2261 21.0161 91.9668 21.542C92.7069 22.0679 93.7017 22.3309 94.9493 22.3309C95.7485 22.3309 96.5331 22.2578 97.3031 22.1118C98.0724 21.9657 98.7024 21.7855 99.1891 21.5712L99.7738 25.1065C99.5399 25.2234 99.2287 25.3403 98.8382 25.4571C98.4476 25.574 98.0139 25.6763 97.537 25.7639C97.0594 25.8516 96.5477 25.9246 96.0019 25.9831C95.4561 26.0415 94.9103 26.0707 94.3645 26.0707C92.9805 26.0707 91.7768 25.8662 90.7534 25.4571C89.73 25.0481 88.8821 24.4881 88.2095 23.7771C87.537 23.0662 87.0399 22.2244 86.7183 21.2498C86.3967 20.2759 86.2358 19.2241 86.2358 18.0944ZM96.4691 16.429C96.4496 16.0589 96.3862 15.6985 96.279 15.3479C96.1718 14.9973 96.0061 14.6863 95.7819 14.413C95.5577 14.1403 95.2744 13.9163 94.934 13.741C94.5928 13.5657 94.1689 13.478 93.6621 13.478C93.1747 13.478 92.7556 13.5615 92.4047 13.7263C92.0539 13.8919 91.7615 14.1111 91.5275 14.3837C91.2936 14.6571 91.1133 14.973 90.9866 15.3333C90.8599 15.6943 90.7673 16.0589 90.7088 16.429H96.4691Z" fill="#2C2D2E"/>
<path d="M117.609 17.9775C117.609 19.1657 117.463 20.2468 117.171 21.2207C116.878 22.1946 116.449 23.0321 115.884 23.7334C115.318 24.4346 114.617 24.98 113.779 25.3695C112.941 25.7591 111.976 25.9539 110.885 25.9539C110.281 25.9539 109.715 25.8955 109.188 25.7786C108.662 25.6617 108.155 25.4961 107.668 25.2819V31.0669H103.311V10.8193C103.701 10.7024 104.149 10.5904 104.656 10.4833C105.163 10.3761 105.694 10.2836 106.25 10.2057C106.805 10.1278 107.37 10.0645 107.946 10.0158C108.521 9.9678 109.071 9.94275 109.598 9.94275C110.865 9.94275 111.995 10.1327 112.989 10.5125C113.984 10.8923 114.822 11.428 115.504 12.1194C116.186 12.8109 116.708 13.6534 117.068 14.6467C117.429 15.6401 117.609 16.7504 117.609 17.9775ZM113.165 18.0944C113.165 16.7504 112.862 15.6742 112.258 14.8659C111.654 14.0575 110.757 13.6534 109.568 13.6534C109.178 13.6534 108.818 13.668 108.486 13.6972C108.154 13.7264 107.882 13.7605 107.668 13.7994V21.6589C107.941 21.8342 108.296 21.9803 108.735 22.0972C109.174 22.2141 109.617 22.2725 110.065 22.2725C112.131 22.2725 113.165 20.8798 113.165 18.0944Z" fill="#2C2D2E"/>
<path d="M134.246 10.2935V25.6618H129.86C129.86 24.6879 129.87 23.7188 129.889 22.7547C129.908 21.7905 129.928 20.8994 129.948 20.0813C129.967 19.2632 129.992 18.5474 130.021 17.9338C130.05 17.3202 130.065 16.8674 130.065 16.5752C129.499 17.3738 128.934 18.1821 128.369 19.0002C127.803 19.8183 127.262 20.6218 126.746 21.4107C126.23 22.1996 125.742 22.9543 125.283 23.675C124.825 24.3957 124.422 25.058 124.071 25.6618H120.24V10.2935H124.597C124.597 11.2674 124.591 12.1975 124.582 13.0837C124.572 13.97 124.558 14.7742 124.538 15.4942C124.519 16.2156 124.499 16.843 124.48 17.3787C124.461 17.915 124.451 18.3282 124.451 18.6204C125.62 16.907 126.697 15.3676 127.682 14.0041C128.666 12.6406 129.626 11.4037 130.562 10.2935H134.246Z" fill="#2C2D2E"/>
<path d="M136.147 22.0973H138.047C138.592 21.435 139.017 20.6121 139.319 19.6284C139.621 18.6448 139.835 17.6027 139.962 16.5022C140.089 15.4016 140.161 14.306 140.181 13.2152C140.2 12.1244 140.21 11.1512 140.21 10.2935H152.199V22.0973H154.801V30.0444H151.087V25.6618H139.859V30.0444H136.146V22.0973H136.147ZM147.842 22.0973V13.858H144.275C144.236 14.5397 144.192 15.2458 144.144 15.9762C144.095 16.7067 144.007 17.4274 143.88 18.1383C143.753 18.8493 143.583 19.5456 143.369 20.2274C143.154 20.9091 142.872 21.5324 142.521 22.0973H147.842Z" fill="#2C2D2E"/>
<path d="M170.707 10.2935V25.6618H166.321C166.321 24.6879 166.331 23.7188 166.351 22.7547C166.369 21.7905 166.39 20.8994 166.409 20.0813C166.428 19.2632 166.453 18.5474 166.482 17.9338C166.511 17.3202 166.526 16.8674 166.526 16.5752C165.96 17.3738 165.395 18.1821 164.83 19.0002C164.264 19.8183 163.723 20.6218 163.207 21.4107C162.691 22.1996 162.203 22.9543 161.745 23.675C161.286 24.3957 160.883 25.058 160.532 25.6618H156.701V10.2935H161.058C161.058 11.2674 161.053 12.1975 161.044 13.0837C161.033 13.97 161.019 14.7742 161 15.4942C160.98 16.2156 160.96 16.843 160.941 17.3787C160.922 17.915 160.912 18.3282 160.912 18.6204C162.082 16.907 163.159 15.3676 164.143 14.0041C165.127 12.6406 166.087 11.4037 167.023 10.2935H170.707Z" fill="#2C2D2E"/>
<path d="M179.597 9.88379C180.883 9.88379 181.955 10.0299 182.813 10.3221C183.67 10.6142 184.358 11.033 184.875 11.5784C185.39 12.1238 185.757 12.7867 185.971 13.5652C186.185 14.345 186.293 15.2118 186.293 16.1655V25.2229C185.669 25.3593 184.801 25.5199 183.69 25.705C182.58 25.89 181.235 25.9826 179.655 25.9826C178.661 25.9826 177.759 25.8949 176.951 25.7196C176.142 25.5443 175.445 25.257 174.86 24.8577C174.275 24.4584 173.827 23.9373 173.514 23.2946C173.202 22.6518 173.046 21.8629 173.046 20.928C173.046 20.032 173.227 19.273 173.587 18.649C173.948 18.0257 174.43 17.529 175.035 17.1589C175.638 16.7895 176.33 16.521 177.11 16.3554C177.89 16.1899 178.699 16.1071 179.537 16.1071C180.102 16.1071 180.604 16.1314 181.043 16.1801C181.481 16.2288 181.837 16.2921 182.11 16.3701V15.961C182.11 15.2208 181.886 14.6274 181.438 14.1787C180.988 13.7307 180.209 13.5068 179.098 13.5068C178.358 13.5068 177.627 13.561 176.905 13.6674C176.184 13.7746 175.56 13.9262 175.034 14.1203L174.478 10.6142C174.731 10.5363 175.048 10.4535 175.428 10.3659C175.809 10.2782 176.222 10.2003 176.671 10.1321C177.12 10.064 177.592 10.0055 178.089 9.95682C178.587 9.90882 179.089 9.88379 179.597 9.88379ZM179.948 22.6226C180.377 22.6226 180.786 22.6128 181.176 22.5933C181.566 22.5746 181.878 22.5453 182.112 22.5057V19.2041C181.937 19.1652 181.674 19.1269 181.323 19.0873C180.971 19.0483 180.649 19.0288 180.357 19.0288C179.948 19.0288 179.563 19.0539 179.202 19.1019C178.841 19.1506 178.525 19.2438 178.252 19.3794C177.979 19.5158 177.765 19.7008 177.609 19.9346C177.453 20.1683 177.375 20.4605 177.375 20.8111C177.375 21.4928 177.604 21.9652 178.062 22.2281C178.519 22.4911 179.148 22.6226 179.948 22.6226Z" fill="#2C2D2E"/>
<path d="M202.753 25.6618H198.397V19.5846H193.864V25.6618H189.508V10.2935H193.864V16.0201H198.397V10.2935H202.753V25.6618Z" fill="#2C2D2E"/>
<path d="M63.0249 37.127C62.9887 37.6341 62.9525 38.1607 62.9163 38.7096C62.8801 39.2584 62.8495 39.8038 62.8258 40.3464C62.8014 40.8891 62.7771 41.4136 62.7534 41.9207C62.729 42.4271 62.7109 42.8967 62.6991 43.3308H60.5813C60.6057 42.6316 60.6412 41.8748 60.6899 41.0609C60.7386 40.247 60.7957 39.4212 60.8619 38.5823C60.928 37.7447 60.9976 36.9217 61.07 36.1134C61.1424 35.3057 61.2204 34.5586 61.3053 33.8706H63.2059C63.6661 34.6066 64.1318 35.4713 64.6039 36.4654C65.0759 37.4609 65.6029 38.5913 66.1835 39.8567C66.785 38.567 67.3322 37.4004 67.8258 36.3576C68.3194 35.3148 68.758 34.4856 69.143 33.8706H71.0617C71.1459 34.5579 71.2273 35.3057 71.306 36.1134C71.3847 36.9217 71.4536 37.7447 71.5142 38.5823C71.5741 39.4205 71.629 40.247 71.6771 41.0609C71.7251 41.8748 71.7613 42.6316 71.7857 43.3308H69.6136C69.5892 42.3423 69.5502 41.3204 69.4959 40.2651C69.4416 39.2104 69.3783 38.1642 69.3059 37.127C69.1256 37.4894 68.9306 37.8936 68.7204 38.3388C68.5095 38.7854 68.3027 39.2369 68.098 39.6953C67.8933 40.1537 67.6949 40.5969 67.5028 41.0247C67.3106 41.4525 67.1421 41.8289 66.998 42.1551H65.369C65.2235 41.8289 65.0508 41.4491 64.851 41.015C64.6505 40.5809 64.4479 40.135 64.2418 39.6765C64.0365 39.2188 63.8269 38.7694 63.6153 38.329C63.4036 37.8901 63.2066 37.4894 63.0249 37.127Z" fill="#FE5A11"/>
<path d="M78.3562 33.6362C79.0803 33.6362 79.6894 33.7267 80.1844 33.9075C80.6787 34.0884 81.0742 34.3416 81.37 34.6672C81.6652 34.9935 81.8769 35.3879 82.0036 35.8519C82.1303 36.3166 82.1936 36.8258 82.1936 37.3802V43.1138C81.856 43.1862 81.3457 43.2731 80.6641 43.3761C79.9825 43.4776 79.2133 43.5298 78.3562 43.5298C77.7889 43.5298 77.2702 43.4755 76.7996 43.367C76.329 43.2592 75.928 43.0846 75.5959 42.8425C75.2638 42.6018 75.0041 42.2881 74.8175 41.902C74.6303 41.5159 74.537 41.0401 74.537 40.4731C74.537 39.9305 74.6421 39.4728 74.8537 39.0978C75.0647 38.7242 75.3515 38.4196 75.7135 38.1844C76.0756 37.9493 76.4947 37.7802 76.9715 37.6773C77.4484 37.5757 77.9455 37.5235 78.4649 37.5235C78.7057 37.5235 78.9592 37.5382 79.2251 37.5688C79.4903 37.5987 79.7744 37.6495 80.0758 37.7225V37.3601C80.0758 37.1076 80.0459 36.8662 79.9853 36.6366C79.9247 36.4077 79.8189 36.206 79.6686 36.0307C79.5175 35.8561 79.3184 35.7211 79.0712 35.6237C78.8241 35.5277 78.5129 35.479 78.1391 35.479C77.6322 35.479 77.1672 35.5159 76.7453 35.5876C76.3227 35.6599 75.9788 35.7448 75.7135 35.8408L75.442 34.0682C75.7198 33.9715 76.1236 33.8755 76.6548 33.7789C77.186 33.6849 77.7527 33.6362 78.3562 33.6362ZM78.5373 41.7935C79.2126 41.7935 79.7256 41.7573 80.0758 41.6849V39.262C79.9554 39.2258 79.7799 39.1896 79.5509 39.1534C79.3212 39.1173 79.0677 39.0992 78.7907 39.0992C78.5491 39.0992 78.3047 39.1173 78.0576 39.1534C77.8105 39.1896 77.587 39.2557 77.3879 39.3524C77.1888 39.4491 77.0286 39.5848 76.9082 39.7594C76.7878 39.9347 76.7272 40.1545 76.7272 40.4195C76.7272 40.9378 76.8901 41.2968 77.2159 41.4957C77.5417 41.694 77.9824 41.7935 78.5373 41.7935Z" fill="#FE5A11"/>
<path d="M94.2669 38.6101C94.2669 39.3336 94.1736 39.9972 93.9864 40.5997C93.7991 41.2028 93.5304 41.7211 93.1809 42.1551C92.8307 42.5892 92.3935 42.9266 91.8686 43.168C91.3436 43.4087 90.7491 43.5298 90.0856 43.5298C89.6387 43.5298 89.2287 43.4755 88.8548 43.367C88.4803 43.2591 88.1732 43.1388 87.9316 43.0052V46.6769H85.7415V34.1788C86.1877 34.0578 86.737 33.943 87.3886 33.8352C88.0403 33.7266 88.7281 33.6724 89.4521 33.6724C90.2005 33.6724 90.8702 33.7872 91.4613 34.016C92.0524 34.2449 92.5564 34.5739 92.9727 35.0018C93.389 35.4296 93.7086 35.9478 93.9321 36.5572C94.1549 37.1666 94.2669 37.8505 94.2669 38.6101ZM92.0224 38.647C92.0224 37.6703 91.8024 36.9106 91.3617 36.368C90.9211 35.8254 90.2124 35.5541 89.2349 35.5541C89.0295 35.5541 88.8151 35.5632 88.5923 35.5812C88.3689 35.5986 88.1489 35.6383 87.9316 35.6988V41.1061C88.1245 41.239 88.3814 41.3628 88.7009 41.4769C89.0205 41.5917 89.3616 41.6487 89.7236 41.6487C90.5201 41.6487 91.1021 41.3774 91.4704 40.8348C91.8386 40.2922 92.0224 39.5631 92.0224 38.647Z" fill="#FE5A11"/>
<path d="M99.5878 37.6696C99.8649 37.3927 100.167 37.0818 100.494 36.7381C100.819 36.3945 101.142 36.048 101.462 35.6981C101.781 35.3482 102.086 35.0143 102.375 34.6943C102.665 34.375 102.906 34.1002 103.1 33.8713H105.67C105.404 34.1851 105.1 34.5287 104.756 34.9016C104.412 35.2759 104.055 35.6592 103.687 36.0501C103.319 36.4418 102.957 36.8216 102.6 37.1896C102.245 37.5576 101.921 37.886 101.632 38.1754C102.006 38.4891 102.395 38.8543 102.8 39.2696C103.204 39.6863 103.602 40.1259 103.994 40.5899C104.387 41.0539 104.751 41.5242 105.09 42C105.427 42.4773 105.711 42.9197 105.941 43.3294H103.406C103.177 42.9677 102.909 42.5886 102.6 42.19C102.293 41.792 101.971 41.4032 101.632 41.0233C101.296 40.6435 100.951 40.2846 100.601 39.9472C100.251 39.6098 99.9143 39.3204 99.5878 39.079V43.3287H97.3976V33.8693H99.5878V37.6696Z" fill="#FE5A11"/>
<path d="M107.462 38.6472C107.462 37.8152 107.585 37.0854 107.833 36.4587C108.079 35.8319 108.408 35.3108 108.819 34.8941C109.229 34.4781 109.7 34.1644 110.23 33.9536C110.761 33.7421 111.304 33.6371 111.86 33.6371C113.163 33.6371 114.18 34.0413 114.91 34.8489C115.64 35.6566 116.004 36.8628 116.004 38.4656C116.004 38.5867 116.002 38.7223 115.995 38.8726C115.989 39.0242 115.981 39.1592 115.968 39.2795H109.723C109.784 40.0399 110.052 40.6277 110.529 41.043C111.006 41.4597 111.696 41.667 112.601 41.667C113.133 41.667 113.618 41.619 114.059 41.5223C114.499 41.4256 114.847 41.3233 115.099 41.2148L115.389 43.0054C115.269 43.066 115.102 43.1293 114.891 43.1953C114.68 43.2614 114.439 43.322 114.167 43.3762C113.896 43.4305 113.603 43.4757 113.289 43.5112C112.975 43.548 112.656 43.5654 112.33 43.5654C111.497 43.5654 110.773 43.4416 110.158 43.1953C109.542 42.9484 109.036 42.604 108.637 42.1644C108.239 41.724 107.943 41.2058 107.75 40.6089C107.558 40.012 107.462 39.3581 107.462 38.6472ZM113.815 37.6698C113.815 37.3679 113.772 37.082 113.688 36.8107C113.603 36.5394 113.479 36.3042 113.317 36.1053C113.154 35.9063 112.954 35.7498 112.72 35.635C112.485 35.5202 112.204 35.4632 111.878 35.4632C111.54 35.4632 111.245 35.5265 110.992 35.6524C110.738 35.7797 110.524 35.9453 110.349 36.1505C110.174 36.3557 110.038 36.5908 109.941 36.8559C109.845 37.1209 109.779 37.3922 109.743 37.6698H113.815Z" fill="#FE5A11"/>
<path d="M126.323 35.6981H123.263V43.3308H121.073V35.6981H118.032V33.8713H126.322V35.6981H126.323Z" fill="#FE5A11"/>
<path d="M136.115 37.127C136.079 37.6341 136.043 38.1607 136.007 38.7096C135.97 39.2584 135.94 39.8038 135.916 40.3464C135.892 40.8891 135.868 41.4136 135.844 41.9207C135.819 42.4271 135.801 42.8967 135.789 43.3308H133.672C133.695 42.6316 133.732 41.8748 133.78 41.0609C133.828 40.247 133.885 39.4212 133.952 38.5823C134.018 37.7447 134.087 36.9217 134.16 36.1134C134.233 35.3057 134.311 34.5586 134.396 33.8706H136.296C136.756 34.6066 137.221 35.4713 137.694 36.4654C138.166 37.4609 138.693 38.5913 139.274 39.8567C139.875 38.567 140.423 37.4004 140.915 36.3576C141.409 35.3148 141.848 34.4856 142.233 33.8706H144.152C144.236 34.5579 144.318 35.3057 144.397 36.1134C144.475 36.9217 144.545 37.7447 144.605 38.5823C144.665 39.4205 144.719 40.247 144.767 41.0609C144.815 41.8748 144.852 42.6316 144.876 43.3308H142.704C142.68 42.3423 142.641 41.3204 142.586 40.2651C142.532 39.2104 142.469 38.1642 142.397 37.127C142.216 37.4894 142.021 37.8936 141.811 38.3388C141.6 38.7854 141.392 39.2369 141.188 39.6953C140.984 40.1537 140.786 40.5969 140.594 41.0247C140.402 41.4525 140.232 41.8289 140.088 42.1551H138.459C138.314 41.8289 138.141 41.4491 137.941 41.015C137.742 40.5809 137.538 40.135 137.333 39.6765C137.127 39.2188 136.917 38.7694 136.706 38.329C136.494 37.8901 136.296 37.4894 136.115 37.127Z" fill="#FE5A11"/>
<path d="M147.772 38.6472C147.772 37.8152 147.896 37.0854 148.143 36.4587C148.39 35.8319 148.719 35.3108 149.13 34.8941C149.54 34.4781 150.01 34.1644 150.541 33.9536C151.072 33.7421 151.615 33.6371 152.171 33.6371C153.474 33.6371 154.49 34.0413 155.221 34.8489C155.95 35.6566 156.315 36.8628 156.315 38.4656C156.315 38.5867 156.312 38.7223 156.306 38.8726C156.3 39.0242 156.291 39.1592 156.279 39.2795H150.034C150.095 40.0399 150.363 40.6277 150.84 41.043C151.316 41.4597 152.007 41.667 152.912 41.667C153.443 41.667 153.929 41.619 154.369 41.5223C154.81 41.4256 155.157 41.3233 155.41 41.2148L155.7 43.0054C155.579 43.066 155.413 43.1293 155.202 43.1953C154.99 43.2614 154.75 43.322 154.478 43.3762C154.206 43.4305 153.913 43.4757 153.6 43.5112C153.286 43.548 152.966 43.5654 152.641 43.5654C151.808 43.5654 151.084 43.4416 150.469 43.1953C149.853 42.9484 149.346 42.604 148.948 42.1644C148.55 41.724 148.254 41.2058 148.061 40.6089C147.868 40.012 147.772 39.3581 147.772 38.6472ZM154.126 37.6698C154.126 37.3679 154.083 37.082 153.999 36.8107C153.914 36.5394 153.79 36.3042 153.628 36.1053C153.465 35.9063 153.265 35.7498 153.03 35.635C152.796 35.5202 152.515 35.4632 152.189 35.4632C151.851 35.4632 151.555 35.5265 151.303 35.6524C151.049 35.7797 150.835 35.9453 150.659 36.1505C150.485 36.3557 150.349 36.5908 150.252 36.8559C150.155 37.1209 150.09 37.3922 150.054 37.6698H154.126Z" fill="#FE5A11"/>
<path d="M167.628 31.2125C167.508 31.2369 167.378 31.2605 167.239 31.2849C167.1 31.3085 166.934 31.3329 166.741 31.3572C166.548 31.3816 166.321 31.4087 166.062 31.4386C165.802 31.4685 165.503 31.5019 165.166 31.5381C164.647 31.5986 164.183 31.6981 163.772 31.8372C163.362 31.9757 163.005 32.1746 162.704 32.4334C162.402 32.6929 162.155 33.0219 161.962 33.4192C161.77 33.8171 161.63 34.2998 161.546 34.8661C161.92 34.6247 162.327 34.4383 162.768 34.3054C163.208 34.1732 163.64 34.1065 164.061 34.1065C165.317 34.1065 166.312 34.5044 167.048 35.3002C167.785 36.0967 168.152 37.248 168.152 38.7548C168.152 39.4783 168.05 40.1357 167.845 40.7263C167.64 41.3176 167.344 41.824 166.958 42.2463C166.573 42.6685 166.108 42.9969 165.564 43.232C165.021 43.4671 164.406 43.5847 163.718 43.5847C162.862 43.5847 162.143 43.4428 161.564 43.1597C160.985 42.8765 160.521 42.4731 160.17 41.9485C159.82 41.4233 159.567 40.7938 159.41 40.0578C159.253 39.3225 159.175 38.503 159.175 37.5979C159.175 36.4167 159.274 35.3712 159.474 34.4598C159.673 33.5492 159.998 32.7687 160.451 32.1176C160.903 31.4665 161.495 30.9399 162.225 30.535C162.955 30.1308 163.845 29.8511 164.895 29.6939C165.438 29.6098 165.893 29.5437 166.261 29.495C166.629 29.447 167.001 29.3802 167.375 29.296L167.628 31.2125ZM161.474 36.7833C161.449 36.9405 161.438 37.1305 161.438 37.3531C161.438 37.5764 161.438 37.7844 161.438 37.9771C161.438 38.519 161.474 39.0198 161.546 39.4776C161.619 39.936 161.745 40.3284 161.926 40.6532C162.107 40.9788 162.343 41.232 162.632 41.4129C162.922 41.5938 163.284 41.6842 163.718 41.6842C164.092 41.6842 164.419 41.6118 164.696 41.4672C164.973 41.3225 165.203 41.1172 165.383 40.8522C165.564 40.5872 165.7 40.2762 165.791 39.9207C165.881 39.5645 165.927 39.1764 165.927 38.7534C165.927 38.3917 165.887 38.0452 165.809 37.7134C165.73 37.3823 165.603 37.0873 165.428 36.8278C165.253 36.5684 165.021 36.3604 164.731 36.2038C164.442 36.0473 164.086 35.9687 163.664 35.9687C163.253 35.9687 162.846 36.0411 162.441 36.1865C162.038 36.3312 161.715 36.5308 161.474 36.7833Z" fill="#FE5A11"/>
<path d="M170.778 38.6472C170.778 37.8152 170.902 37.0854 171.149 36.4587C171.395 35.8319 171.724 35.3108 172.135 34.8941C172.545 34.4781 173.016 34.1644 173.546 33.9536C174.078 33.7421 174.621 33.6371 175.176 33.6371C176.479 33.6371 177.496 34.0413 178.226 34.8489C178.956 35.6566 179.32 36.8628 179.32 38.4656C179.32 38.5867 179.318 38.7223 179.311 38.8726C179.305 39.0242 179.297 39.1592 179.284 39.2795H173.039C173.1 40.0399 173.368 40.6277 173.845 41.043C174.322 41.4597 175.012 41.667 175.918 41.667C176.449 41.667 176.934 41.619 177.375 41.5223C177.815 41.4256 178.163 41.3233 178.415 41.2148L178.705 43.0054C178.585 43.066 178.418 43.1293 178.207 43.1953C177.996 43.2614 177.755 43.322 177.483 43.3762C177.212 43.4305 176.919 43.4757 176.605 43.5112C176.291 43.548 175.972 43.5654 175.646 43.5654C174.813 43.5654 174.089 43.4416 173.474 43.1953C172.858 42.9484 172.352 42.604 171.953 42.1644C171.555 41.724 171.259 41.2058 171.067 40.6089C170.874 40.012 170.778 39.3581 170.778 38.6472ZM177.131 37.6698C177.131 37.3679 177.088 37.082 177.004 36.8107C176.919 36.5394 176.795 36.3042 176.633 36.1053C176.47 35.9063 176.27 35.7498 176.036 35.635C175.801 35.5202 175.52 35.4632 175.194 35.4632C174.857 35.4632 174.561 35.5265 174.308 35.6524C174.055 35.7797 173.84 35.9453 173.665 36.1505C173.49 36.3557 173.354 36.5908 173.257 36.8559C173.161 37.1209 173.095 37.3922 173.059 37.6698H177.131Z" fill="#FE5A11"/>
<path d="M186.218 35.68C186.205 36.2115 186.187 36.7632 186.163 37.335C186.139 37.9082 186.082 38.4724 185.991 39.0268C185.901 39.5813 185.759 40.112 185.567 40.6185C185.373 41.1249 185.105 41.5799 184.761 41.984C184.417 42.3882 183.989 42.7249 183.475 42.9969C182.963 43.2682 182.338 43.44 181.603 43.5117L181.295 41.6849C181.91 41.5646 182.386 41.3691 182.725 41.0971C183.062 40.8258 183.322 40.4793 183.503 40.0571C183.648 39.744 183.759 39.3879 183.838 38.9899C183.916 38.5927 183.977 38.1732 184.019 37.7329C184.061 37.2926 184.089 36.8439 184.1 36.3854C184.112 35.927 184.119 35.4804 184.119 35.0463V33.8713H190.815V43.3308H188.625V35.68H186.218Z" fill="#FE5A11"/>
<path d="M202.762 33.8713V43.3307H200.59C200.59 42.6441 200.592 41.9624 200.599 41.2869C200.605 40.6115 200.611 39.9847 200.617 39.4059C200.622 38.8271 200.629 38.3235 200.635 37.8956C200.64 37.4678 200.644 37.1513 200.644 36.9461C200.281 37.4163 199.907 37.9353 199.522 38.5015C199.136 39.0678 198.753 39.6348 198.373 40.201C197.992 40.768 197.633 41.3224 197.295 41.8657C196.958 42.4076 196.662 42.896 196.409 43.33H194.472V33.8706H196.626C196.626 34.5697 196.623 35.2362 196.617 35.8692C196.611 36.5022 196.608 37.0775 196.608 37.5958C196.608 38.1148 196.605 38.5669 196.598 38.9523C196.592 39.3377 196.589 39.6334 196.589 39.8386C196.927 39.3203 197.277 38.7861 197.639 38.2379C198.002 37.689 198.366 37.152 198.734 36.6282C199.102 36.1036 199.467 35.6062 199.829 35.136C200.191 34.665 200.541 34.2434 200.879 33.8699H202.762V33.8713Z" fill="#FE5A11"/>
</svg>
