<svg width="181" height="180" viewBox="0 0 181 180" fill="none" xmlns="http://www.w3.org/2000/svg">
<path d="M164.794 15.602V164.398H15.6396V15.602H164.794ZM180.434 0H0V180H180.434V0Z" fill="#FE5A11"/>
<path d="M65.7361 49.5693C67.4617 52.5466 69.3854 56.1845 71.5045 60.4881C73.6237 64.7942 75.782 69.3162 77.9793 74.0514C80.1741 78.7892 82.3532 83.605 84.5115 88.4962C86.6671 93.39 88.6507 97.9094 90.4545 102.06C92.2583 97.9094 94.221 93.39 96.3402 88.4962C98.4593 83.605 100.618 78.7918 102.812 74.0514C105.01 69.3162 107.168 64.7942 109.287 60.4881C111.406 56.1845 113.327 52.544 115.053 49.5693H128.417C129.136 55.5188 129.814 61.8402 130.455 68.5335C131.094 75.2267 131.673 82.0786 132.191 89.0813C132.71 96.0866 133.19 103.133 133.63 110.217C134.071 117.305 134.449 124.212 134.772 130.944H120.175C119.854 121.471 119.474 111.725 119.033 101.706C118.593 91.6869 117.933 81.9798 117.055 72.5848C116.189 74.3869 115.17 76.5399 113.992 79.044C112.816 81.5481 111.557 84.2681 110.228 87.2038C108.891 90.1396 107.538 93.1742 106.164 96.305C104.791 99.4358 103.459 102.47 102.163 105.406C100.868 108.342 99.6714 111.083 98.574 113.623C97.4741 116.169 96.5331 118.34 95.7485 120.142H84.6835C83.8989 118.343 82.9579 116.151 81.8605 113.566C80.758 110.984 79.5641 108.222 78.2686 105.287C76.9758 102.351 75.6386 99.3188 74.2675 96.188C72.8938 93.0572 71.5384 90.0434 70.2064 87.1441C68.8693 84.2499 67.6155 81.5299 66.4399 78.9816C65.2644 76.4385 64.2426 74.3062 63.3798 72.5822C62.4988 81.9772 61.8367 91.6842 61.3988 101.703C60.9582 111.725 60.5803 121.471 60.2571 130.941H45.6602C45.9808 124.209 46.3613 117.243 46.8019 110.04C47.2398 102.837 47.7219 95.6939 48.2407 88.6106C48.7568 81.5273 49.338 74.6573 49.9767 68.0031C50.6153 61.3488 51.2956 55.2042 52.015 49.5667H65.7361V49.5693Z" fill="white"/>
</svg>
