<svg width="173" height="41" viewBox="0 0 173 41" fill="none" xmlns="http://www.w3.org/2000/svg">
<path d="M36.6682 3.50072V36.6729H3.53453V3.50072H36.6682ZM40.1425 0.0224609H0.0603027V40.1511H40.1425V0.0224609Z" fill="#FE5A11"/>
<path d="M14.663 11.0738C15.0463 11.7376 15.4736 12.5486 15.9444 13.508C16.4152 14.468 16.8946 15.4761 17.3827 16.5318C17.8703 17.588 18.3544 18.6617 18.8338 19.7521C19.3127 20.8431 19.7533 21.8506 20.154 22.7759C20.5547 21.8506 20.9907 20.8431 21.4615 19.7521C21.9322 18.6617 22.4117 17.5886 22.8992 16.5318C23.3874 15.4761 23.8668 14.468 24.3376 13.508C24.8083 12.5486 25.2351 11.737 25.6184 11.0738H28.5871C28.7469 12.4002 28.8975 13.8095 29.0399 15.3017C29.1818 16.7938 29.3103 18.3214 29.4256 19.8825C29.5408 21.4443 29.6473 23.0153 29.7452 24.5944C29.843 26.1747 29.927 27.7144 29.9988 29.2153H26.7562C26.685 27.1034 26.6004 24.9306 26.5026 22.697C26.4047 20.4634 26.2582 18.2993 26.0631 16.2048C25.8709 16.6066 25.6444 17.0866 25.3827 17.6448C25.1216 18.2031 24.8419 18.8095 24.5466 19.464C24.2495 20.1185 23.949 20.795 23.6439 21.493C23.3387 22.1909 23.0428 22.8674 22.7551 23.5219C22.4673 24.1764 22.2015 24.7874 21.9577 25.3538C21.7134 25.9214 21.5043 26.4054 21.33 26.8072H18.872C18.6977 26.406 18.4887 25.9173 18.2449 25.3411C18 24.7654 17.7348 24.1498 17.447 23.4953C17.1598 22.8408 16.8628 22.1648 16.5582 21.4669C16.253 20.7689 15.9519 20.097 15.656 19.4506C15.359 18.8054 15.0805 18.199 14.8193 17.6309C14.5582 17.064 14.3312 16.5886 14.1395 16.2043C13.9438 18.2988 13.7968 20.4628 13.6995 22.6964C13.6016 24.9306 13.5177 27.1034 13.4459 29.2147H10.2032C10.2745 27.7138 10.359 26.1608 10.4569 24.555C10.5541 22.9492 10.6613 21.3567 10.7765 19.7776C10.8911 18.1985 11.0203 16.6669 11.1621 15.1834C11.304 13.6999 11.4551 12.3301 11.6149 11.0732H14.663V11.0738Z" fill="white"/>
<path d="M55.8442 4.51172C56.1366 5.04737 56.4736 5.70882 56.8563 6.49607C57.2385 7.28332 57.6369 8.13607 58.0509 9.05259C58.4655 9.96969 58.876 10.9071 59.2825 11.8648C59.6884 12.8225 60.0706 13.7239 60.4284 14.5674C60.7863 13.7233 61.1679 12.8225 61.5743 11.8648C61.9802 10.9071 62.3908 9.96969 62.8054 9.05259C63.22 8.13549 63.6183 7.28332 64.0005 6.49607C64.3827 5.70882 64.7197 5.04737 65.0127 4.51172H68.4661C68.6276 5.63172 68.7782 6.88564 68.916 8.27347C69.0532 9.66129 69.1748 11.1065 69.2808 12.6074C69.3862 14.1088 69.4834 15.6143 69.5726 17.1239C69.6618 18.6335 69.7388 20.0543 69.8036 21.3848H66.107C66.0584 19.7454 65.9936 17.9599 65.9125 16.0283C65.8309 14.0967 65.7092 12.1494 65.5477 10.1848C65.2547 10.8665 64.9293 11.6213 64.5715 12.4491C64.2136 13.2769 63.8598 14.1048 63.5101 14.9326C63.1603 15.7604 62.8227 16.5517 62.4979 17.3065C62.1725 18.0613 61.8957 18.7065 61.6682 19.2422H59.0173C58.7892 18.7065 58.513 18.0613 58.1876 17.3065C57.8621 16.5517 57.5246 15.7604 57.1748 14.9326C56.8251 14.1048 56.4713 13.2769 56.1134 12.4491C55.7556 11.6213 55.4302 10.8665 55.1378 10.1848C54.9756 12.1488 54.854 14.0967 54.773 16.0283C54.6913 17.9604 54.6271 19.7459 54.5784 21.3848H50.8818C50.9461 20.0543 51.0237 18.6335 51.1129 17.1239C51.202 15.6143 51.2993 14.1088 51.4047 12.6074C51.5101 11.1065 51.6317 9.66129 51.7695 8.27347C51.9067 6.88564 52.0573 5.63172 52.2194 4.51172H55.8442Z" fill="white"/>
<path d="M71.725 15.0781C71.725 13.9424 71.8987 12.9476 72.2479 12.0954C72.5964 11.2433 73.0544 10.5331 73.6219 9.96502C74.1894 9.39748 74.8414 8.96675 75.5796 8.67458C76.3173 8.3824 77.0753 8.23633 77.8535 8.23633C79.6688 8.23633 81.1037 8.79226 82.1581 9.90414C83.2119 11.016 83.7389 12.652 83.7389 14.8102C83.7389 15.0213 83.7308 15.2526 83.714 15.5041C83.6983 15.7563 83.6821 15.9789 83.6653 16.1737H75.4459C75.527 16.9204 75.8755 17.5128 76.4916 17.9511C77.1071 18.3894 77.9346 18.6085 78.9722 18.6085C79.637 18.6085 80.2895 18.5476 80.9299 18.4259C81.5698 18.3042 82.0938 18.154 82.4986 17.9755L82.985 20.9215C82.7904 21.0189 82.5316 21.1163 82.2067 21.2137C81.8819 21.3111 81.5211 21.3963 81.1245 21.4694C80.7273 21.5424 80.3017 21.6033 79.8477 21.652C79.3938 21.7007 78.9398 21.725 78.4858 21.725C77.3347 21.725 76.3335 21.5546 75.4824 21.2137C74.6312 20.8728 73.9259 20.4062 73.3666 19.8137C72.8072 19.2212 72.3938 18.5198 72.1263 17.7076C71.8587 16.896 71.725 16.0195 71.725 15.0781ZM80.2363 13.6902C80.22 13.3818 80.1674 13.0815 80.0782 12.7894C79.989 12.4972 79.8512 12.2381 79.6647 12.0102C79.4783 11.783 79.2426 11.5963 78.9595 11.4502C78.6758 11.3041 78.3231 11.2311 77.9016 11.2311C77.4963 11.2311 77.1477 11.3007 76.8558 11.4381C76.564 11.576 76.3208 11.7586 76.1262 11.9859C75.9317 12.2137 75.7817 12.4769 75.6763 12.7772C75.5709 13.0781 75.4939 13.3818 75.4453 13.6902H80.2363Z" fill="white"/>
<path d="M97.8192 14.9808C97.8192 15.9709 97.6976 16.8718 97.4544 17.6834C97.2112 18.495 96.8545 19.193 96.3843 19.7773C95.9135 20.3617 95.3305 20.8162 94.6333 21.1408C93.9361 21.4654 93.1336 21.6278 92.2262 21.6278C91.7236 21.6278 91.2529 21.5791 90.8151 21.4817C90.3774 21.3843 89.9558 21.2463 89.5505 21.0678V25.8886H85.9269V9.0156C86.2511 8.91821 86.6235 8.82487 87.0456 8.7356C87.4671 8.64632 87.9089 8.56921 88.371 8.50428C88.8331 8.43935 89.3027 8.38661 89.7815 8.34603C90.2598 8.30603 90.7178 8.28516 91.1556 8.28516C92.2094 8.28516 93.1498 8.44342 93.9767 8.75994C94.8035 9.07646 95.5007 9.52284 96.0682 10.0991C96.635 10.6753 97.0693 11.3773 97.3693 12.2052C97.6692 13.033 97.8192 13.9582 97.8192 14.9808ZM94.1226 15.0782C94.1226 13.9582 93.8707 13.0614 93.3687 12.3878C92.8661 11.7141 92.1203 11.3773 91.1313 11.3773C90.8064 11.3773 90.5071 11.3895 90.2314 11.4139C89.9552 11.4382 89.7288 11.4666 89.5505 11.4991V18.0486C89.7775 18.1947 90.0728 18.3165 90.4382 18.4139C90.803 18.5113 91.1718 18.5599 91.5441 18.5599C93.2627 18.5599 94.1226 17.3994 94.1226 15.0782Z" fill="white"/>
<path d="M111.657 8.57812V21.3851H108.009C108.009 20.5735 108.017 19.7659 108.033 18.9625C108.049 18.159 108.065 17.4164 108.082 16.7347C108.097 16.0529 108.118 15.4564 108.142 14.9451C108.167 14.4338 108.179 14.0564 108.179 13.8129C107.708 14.4784 107.238 15.152 106.768 15.8338C106.298 16.5155 105.848 17.1851 105.419 17.8425C104.989 18.4999 104.584 19.1288 104.202 19.7294C103.821 20.33 103.485 20.8819 103.193 21.3851H100.007V8.57812H103.631C103.631 9.38972 103.626 10.1648 103.619 10.9034C103.61 11.6419 103.599 12.312 103.582 12.912C103.566 13.5132 103.549 14.0361 103.534 14.4825C103.518 14.9294 103.509 15.2738 103.509 15.5173C104.482 14.0894 105.378 12.8065 106.197 11.6703C107.016 10.5341 107.814 9.50334 108.592 8.57812H111.657Z" fill="white"/>
<path d="M113.237 18.4147H114.818C115.271 17.8628 115.625 17.177 115.876 16.3573C116.127 15.5375 116.305 14.6691 116.411 13.752C116.516 12.8349 116.577 11.9219 116.593 11.0129C116.608 10.1039 116.617 9.29291 116.617 8.57812H126.589V18.4147H128.753V25.0373H125.664V21.3851H116.325V25.0373H113.237V18.4147H113.237ZM122.965 18.4147V11.5486H119.998C119.965 12.1167 119.929 12.7051 119.889 13.3138C119.848 13.9225 119.775 14.5231 119.67 15.1155C119.564 15.708 119.422 16.2883 119.244 16.8564C119.065 17.4245 118.831 17.9439 118.539 18.4147H122.965Z" fill="white"/>
<path d="M141.982 8.57812V21.3851H138.335C138.335 20.5735 138.343 19.7659 138.359 18.9625C138.374 18.159 138.391 17.4164 138.407 16.7347C138.423 16.0529 138.444 15.4564 138.468 14.9451C138.493 14.4338 138.505 14.0564 138.505 13.8129C138.034 14.4784 137.564 15.152 137.094 15.8338C136.623 16.5155 136.174 17.1851 135.744 17.8425C135.315 18.4999 134.91 19.1288 134.528 19.7294C134.147 20.33 133.811 20.8819 133.519 21.3851H130.333V8.57812H133.957C133.957 9.38972 133.952 10.1648 133.945 10.9034C133.936 11.6419 133.925 12.312 133.908 12.912C133.892 13.5132 133.875 14.0361 133.86 14.4825C133.843 14.9294 133.835 15.2738 133.835 15.5173C134.808 14.0894 135.704 12.8065 136.523 11.6703C137.341 10.5341 138.14 9.50334 138.918 8.57812H141.982Z" fill="white"/>
<path d="M149.376 8.23633C150.446 8.23633 151.338 8.35807 152.051 8.60155C152.764 8.84503 153.336 9.19401 153.766 9.6485C154.195 10.103 154.499 10.6555 154.678 11.3041C154.856 11.954 154.945 12.6763 154.945 13.4711V21.0189C154.427 21.1326 153.704 21.2665 152.781 21.4207C151.857 21.5749 150.739 21.652 149.425 21.652C148.598 21.652 147.847 21.5789 147.175 21.4329C146.502 21.2868 145.923 21.0473 145.436 20.7146C144.95 20.3818 144.577 19.9476 144.317 19.412C144.058 18.8763 143.928 18.2189 143.928 17.4398C143.928 16.6931 144.078 16.0607 144.378 15.5407C144.678 15.0213 145.079 14.6073 145.582 14.2989C146.084 13.9911 146.659 13.7673 147.308 13.6294C147.956 13.4914 148.629 13.4224 149.326 13.4224C149.797 13.4224 150.214 13.4427 150.579 13.4833C150.944 13.5239 151.239 13.5766 151.466 13.6415V13.3007C151.466 12.6839 151.28 12.1894 150.907 11.8154C150.534 11.4421 149.885 11.2555 148.962 11.2555C148.345 11.2555 147.737 11.3007 147.138 11.3894C146.538 11.4786 146.019 11.605 145.581 11.7668L145.119 8.84502C145.329 8.78009 145.593 8.71111 145.909 8.63806C146.226 8.56502 146.57 8.50009 146.942 8.44328C147.316 8.38647 147.709 8.33777 148.122 8.29719C148.537 8.25719 148.954 8.23633 149.376 8.23633ZM149.668 18.852C150.025 18.852 150.365 18.8439 150.69 18.8276C151.014 18.812 151.274 18.7876 151.468 18.7546V16.0033C151.322 15.9708 151.103 15.9389 150.812 15.9059C150.519 15.8734 150.252 15.8572 150.008 15.8572C149.668 15.8572 149.348 15.8781 149.048 15.9181C148.748 15.9587 148.484 16.0363 148.258 16.1494C148.03 16.263 147.853 16.4172 147.723 16.612C147.593 16.8068 147.528 17.0502 147.528 17.3424C147.528 17.9105 147.718 18.3042 148.099 18.5233C148.48 18.7424 149.003 18.852 149.668 18.852Z" fill="white"/>
<path d="M168.636 21.3851H165.013V16.3207H161.243V21.3851H157.619V8.57812H161.243V13.3503H165.013V8.57812H168.636V21.3851Z" fill="white"/>
<path d="M52.4198 30.9392C52.3896 31.3618 52.3595 31.8007 52.3294 32.258C52.2993 32.7154 52.2738 33.1699 52.2541 33.6221C52.2339 34.0743 52.2136 34.5114 52.1939 34.934C52.1737 35.356 52.1586 35.7473 52.1488 36.1091H50.3873C50.4076 35.5265 50.4371 34.8957 50.4777 34.2175C50.5182 33.5392 50.5657 32.8511 50.6207 32.152C50.6757 31.454 50.7336 30.7682 50.7938 30.0946C50.854 29.4215 50.9189 28.7989 50.9895 28.2256H52.5703C52.953 28.8389 53.3404 29.5595 53.733 30.3879C54.1256 31.2175 54.5639 32.1595 55.0468 33.214C55.5471 32.1392 56.0023 31.167 56.4128 30.2981C56.8233 29.4291 57.1881 28.738 57.5083 28.2256H59.1042C59.1742 28.7983 59.242 29.4215 59.3074 30.0946C59.3728 30.7682 59.4302 31.454 59.4805 32.152C59.5303 32.8505 59.5761 33.5392 59.616 34.2175C59.656 34.8957 59.6861 35.5265 59.7064 36.1091H57.8998C57.8795 35.2853 57.8471 34.4337 57.8019 33.5543C57.7567 32.6755 57.704 31.8036 57.6438 30.9392C57.4939 31.2412 57.3317 31.5781 57.1569 31.9491C56.9814 32.3212 56.8094 32.6975 56.6392 33.0795C56.469 33.4615 56.3039 33.8308 56.1441 34.1873C55.9843 34.5438 55.8442 34.8575 55.7243 35.1294H54.3694C54.2484 34.8575 54.1047 34.541 53.9386 34.1792C53.7718 33.8175 53.6033 33.4459 53.4319 33.0639C53.2611 32.6824 53.0868 32.3079 52.9108 31.9409C52.7347 31.5751 52.5709 31.2412 52.4198 30.9392Z" fill="#FE5A11"/>
<path d="M65.1713 28.0303C65.7735 28.0303 66.2802 28.1056 66.6919 28.2564C67.103 28.4071 67.4319 28.6181 67.678 28.8894C67.9235 29.1613 68.0995 29.49 68.2049 29.8766C68.3103 30.2639 68.363 30.6883 68.363 31.1503V35.9283C68.0822 35.9885 67.6577 36.061 67.0909 36.1468C66.524 36.2314 65.8841 36.2749 65.1713 36.2749C64.6994 36.2749 64.2681 36.2297 63.8766 36.1393C63.4852 36.0494 63.1517 35.9039 62.8755 35.7022C62.5993 35.5016 62.3833 35.2401 62.2281 34.9184C62.0723 34.5967 61.9948 34.2001 61.9948 33.7277C61.9948 33.2755 62.0822 32.894 62.2582 32.5816C62.4337 32.2703 62.6722 32.0164 62.9733 31.8204C63.2744 31.6245 63.623 31.4836 64.0197 31.3978C64.4163 31.3132 64.8297 31.2697 65.2617 31.2697C65.462 31.2697 65.6728 31.2819 65.894 31.3074C66.1146 31.3323 66.3508 31.3746 66.6016 31.4355V31.1335C66.6016 30.923 66.5767 30.7219 66.5263 30.5306C66.4759 30.3398 66.3879 30.1717 66.2628 30.0256C66.1372 29.8801 65.9716 29.7677 65.766 29.6865C65.5605 29.6065 65.3016 29.5659 64.9907 29.5659C64.5692 29.5659 64.1824 29.5967 63.8315 29.6564C63.48 29.7167 63.1939 29.7874 62.9733 29.8674L62.7475 28.3903C62.9785 28.3097 63.3144 28.2297 63.7562 28.1491C64.198 28.0709 64.6693 28.0303 65.1713 28.0303ZM65.3219 34.828C65.8836 34.828 66.3103 34.7978 66.6016 34.7375V32.7184C66.5014 32.6882 66.3555 32.6581 66.165 32.628C65.9739 32.5978 65.7631 32.5828 65.5327 32.5828C65.3317 32.5828 65.1285 32.5978 64.9229 32.628C64.7174 32.6581 64.5315 32.7132 64.3659 32.7938C64.2003 32.8743 64.0671 32.9874 63.967 33.1329C63.8668 33.279 63.8164 33.4622 63.8164 33.683C63.8164 34.1149 63.9519 34.414 64.2229 34.5798C64.4939 34.7451 64.8604 34.828 65.3219 34.828Z" fill="#FE5A11"/>
<path d="M78.4046 32.1744C78.4046 32.7773 78.327 33.3303 78.1713 33.8323C78.0155 34.3349 77.792 34.7668 77.5013 35.1286C77.2101 35.4903 76.8464 35.7715 76.4098 35.9726C75.9732 36.1732 75.4787 36.2741 74.9269 36.2741C74.5552 36.2741 74.2141 36.2288 73.9032 36.1384C73.5917 36.0486 73.3363 35.9483 73.1354 35.837V38.8967H71.3137V28.4816C71.6849 28.3807 72.1417 28.2851 72.6837 28.1952C73.2257 28.1048 73.7978 28.0596 74.4 28.0596C75.0225 28.0596 75.5795 28.1552 76.0711 28.346C76.5627 28.5367 76.9819 28.8109 77.3282 29.1674C77.6744 29.5239 77.9402 29.9558 78.1261 30.4636C78.3114 30.9715 78.4046 31.5413 78.4046 32.1744ZM76.5378 32.2051C76.5378 31.3912 76.3548 30.7581 75.9883 30.3059C75.6218 29.8538 75.0323 29.6277 74.2193 29.6277C74.0485 29.6277 73.8702 29.6352 73.6849 29.6503C73.499 29.6648 73.316 29.6978 73.1354 29.7483V34.2544C73.2958 34.3651 73.5094 34.4683 73.7752 34.5634C74.041 34.659 74.3247 34.7065 74.6258 34.7065C75.2882 34.7065 75.7723 34.4805 76.0786 34.0283C76.3849 33.5761 76.5378 32.9686 76.5378 32.2051Z" fill="#FE5A11"/>
<path d="M82.8302 31.3906C83.0607 31.1599 83.312 30.9007 83.5835 30.6144C83.8539 30.328 84.1232 30.0393 84.389 29.7477C84.6542 29.4561 84.9078 29.1778 85.1487 28.9112C85.3895 28.6451 85.5899 28.4161 85.7514 28.2254H87.8887C87.6681 28.4868 87.415 28.7732 87.1284 29.0839C86.8424 29.3958 86.5459 29.7152 86.2396 30.041C85.9333 30.3674 85.6322 30.6839 85.3357 30.9906C85.0404 31.2972 84.7711 31.5709 84.5308 31.812C84.8418 32.0735 85.1649 32.3778 85.5019 32.7239C85.8377 33.0712 86.1689 33.4375 86.4949 33.8242C86.8215 34.2109 87.1249 34.6028 87.4063 34.9993C87.6866 35.397 87.9234 35.7657 88.1145 36.1071H86.0062C85.8151 35.8057 85.5922 35.4897 85.3357 35.1575C85.0803 34.826 84.8122 34.5019 84.5308 34.1854C84.2506 33.8688 83.9639 33.5697 83.6727 33.2886C83.382 33.0074 83.1018 32.7662 82.8302 32.5651V36.1065H81.0085V28.2236H82.8302V31.3906Z" fill="#FE5A11"/>
<path d="M89.379 32.2053C89.379 31.512 89.4821 30.9039 89.6876 30.3816C89.8926 29.8593 90.1665 29.4251 90.5082 29.0778C90.8492 28.7311 91.2406 28.4697 91.6819 28.2941C92.1237 28.1178 92.5753 28.0303 93.0374 28.0303C94.1213 28.0303 94.9667 28.3671 95.5742 29.0401C96.181 29.7132 96.4844 30.7184 96.4844 32.054C96.4844 32.1549 96.4821 32.268 96.4769 32.3932C96.4717 32.5195 96.4647 32.632 96.4543 32.7323H91.2603C91.3107 33.3659 91.5336 33.8558 91.9303 34.2019C92.3269 34.5491 92.9013 34.7219 93.6541 34.7219C94.0959 34.7219 94.4995 34.6819 94.866 34.6013C95.2325 34.5207 95.5215 34.4355 95.7317 34.3451L95.9725 35.8372C95.8724 35.8877 95.734 35.9404 95.5585 35.9955C95.3825 36.0506 95.1827 36.101 94.9563 36.1462C94.7305 36.1914 94.4867 36.2291 94.2262 36.2587C93.965 36.2894 93.6992 36.3039 93.4282 36.3039C92.7357 36.3039 92.1335 36.2007 91.6216 35.9955C91.1098 35.7897 90.6882 35.5027 90.357 35.1364C90.0258 34.7694 89.7797 34.3375 89.6193 33.8401C89.4595 33.3427 89.379 32.7978 89.379 32.2053ZM94.6633 31.3909C94.6633 31.1393 94.628 30.901 94.5579 30.6749C94.4873 30.4488 94.3842 30.2529 94.2493 30.0871C94.1138 29.9213 93.9476 29.7909 93.7525 29.6952C93.5574 29.5996 93.3234 29.552 93.0524 29.552C92.7716 29.552 92.5255 29.6048 92.3153 29.7097C92.1045 29.8158 91.9262 29.9538 91.7803 30.1248C91.635 30.2958 91.5221 30.4917 91.4416 30.7126C91.3611 30.9335 91.3066 31.1595 91.2765 31.3909H94.6633Z" fill="#FE5A11"/>
<path d="M105.066 29.7479H102.522V36.1085H100.7V29.7479H98.1707V28.2256H105.066V29.7479H105.066Z" fill="#FE5A11"/>
<path d="M113.211 30.9392C113.181 31.3618 113.151 31.8007 113.121 32.258C113.091 32.7154 113.066 33.1699 113.046 33.6221C113.026 34.0743 113.006 34.5114 112.985 34.934C112.965 35.356 112.95 35.7473 112.94 36.1091H111.179C111.199 35.5265 111.229 34.8957 111.269 34.2175C111.309 33.5392 111.357 32.8511 111.412 32.152C111.467 31.454 111.525 30.7682 111.585 30.0946C111.646 29.4215 111.711 28.7989 111.781 28.2256H113.361C113.744 28.8389 114.131 29.5595 114.525 30.3879C114.917 31.2175 115.355 32.1595 115.838 33.214C116.338 32.1392 116.794 31.167 117.204 30.2981C117.614 29.4291 117.979 28.738 118.3 28.2256H119.896C119.966 28.7983 120.033 29.4215 120.099 30.0946C120.164 30.7682 120.222 31.454 120.273 32.152C120.322 32.8505 120.368 33.5392 120.408 34.2175C120.447 34.8957 120.478 35.5265 120.498 36.1091H118.691C118.672 35.2853 118.639 34.4337 118.593 33.5543C118.548 32.6755 118.496 31.8036 118.436 30.9392C118.285 31.2412 118.123 31.5781 117.948 31.9491C117.773 32.3212 117.6 32.6975 117.431 33.0795C117.26 33.4615 117.096 33.8308 116.936 34.1873C116.776 34.5438 116.636 34.8575 116.516 35.1294H115.161C115.04 34.8575 114.896 34.541 114.73 34.1792C114.564 33.8175 114.395 33.4459 114.224 33.0639C114.053 32.6824 113.878 32.3079 113.703 31.9409C113.526 31.5751 113.362 31.2412 113.211 30.9392Z" fill="#FE5A11"/>
<path d="M122.907 32.2053C122.907 31.512 123.01 30.9039 123.215 30.3816C123.42 29.8593 123.694 29.4251 124.036 29.0778C124.377 28.7311 124.768 28.4697 125.21 28.2941C125.651 28.1178 126.103 28.0303 126.565 28.0303C127.649 28.0303 128.494 28.3671 129.102 29.0401C129.709 29.7132 130.012 30.7184 130.012 32.054C130.012 32.1549 130.01 32.268 130.005 32.3932C129.999 32.5195 129.992 32.632 129.982 32.7323H124.788C124.838 33.3659 125.061 33.8558 125.458 34.2019C125.855 34.5491 126.429 34.7219 127.182 34.7219C127.624 34.7219 128.027 34.6819 128.394 34.6013C128.76 34.5207 129.049 34.4355 129.259 34.3451L129.5 35.8372C129.4 35.8877 129.262 35.9404 129.086 35.9955C128.91 36.0506 128.71 36.101 128.484 36.1462C128.258 36.1914 128.014 36.2291 127.754 36.2587C127.493 36.2894 127.227 36.3039 126.956 36.3039C126.263 36.3039 125.661 36.2007 125.149 35.9955C124.637 35.7897 124.216 35.5027 123.885 35.1364C123.554 34.7694 123.307 34.3375 123.147 33.8401C122.987 33.3427 122.907 32.7978 122.907 32.2053ZM128.191 31.3909C128.191 31.1393 128.156 30.901 128.086 30.6749C128.015 30.4488 127.912 30.2529 127.777 30.0871C127.642 29.9213 127.475 29.7909 127.28 29.6952C127.085 29.5996 126.851 29.552 126.58 29.552C126.299 29.552 126.053 29.6048 125.843 29.7097C125.632 29.8158 125.454 29.9538 125.308 30.1248C125.163 30.2958 125.05 30.4917 124.969 30.7126C124.889 30.9335 124.834 31.1595 124.804 31.3909H128.191Z" fill="#FE5A11"/>
<path d="M139.421 26.0102C139.321 26.0305 139.213 26.0502 139.098 26.0705C138.982 26.0902 138.844 26.1105 138.684 26.1308C138.523 26.151 138.334 26.1737 138.118 26.1986C137.902 26.2235 137.654 26.2513 137.373 26.2815C136.942 26.3319 136.556 26.4148 136.214 26.5308C135.873 26.6461 135.576 26.8119 135.326 27.0276C135.075 27.2438 134.869 27.518 134.709 27.849C134.549 28.1806 134.433 28.5829 134.363 29.0548C134.674 28.8537 135.012 28.6983 135.379 28.5876C135.745 28.4774 136.104 28.4218 136.455 28.4218C137.499 28.4218 138.326 28.7534 138.939 29.4166C139.552 30.0803 139.857 31.0397 139.857 32.2954C139.857 32.8983 139.772 33.4461 139.602 33.9383C139.431 34.4311 139.185 34.8531 138.864 35.205C138.543 35.5569 138.157 35.8305 137.705 36.0264C137.253 36.2224 136.742 36.3203 136.169 36.3203C135.457 36.3203 134.86 36.2021 134.378 35.9661C133.896 35.7302 133.51 35.3939 133.219 34.9568C132.927 34.5192 132.717 33.9945 132.586 33.3812C132.455 32.7684 132.391 32.0855 132.391 31.3313C132.391 30.347 132.473 29.4757 132.639 28.7163C132.805 27.9574 133.076 27.307 133.452 26.7644C133.828 26.2218 134.32 25.7829 134.927 25.4456C135.535 25.1087 136.275 24.8757 137.148 24.7447C137.6 24.6745 137.978 24.6195 138.285 24.5789C138.59 24.5389 138.9 24.4832 139.211 24.4131L139.421 26.0102ZM134.303 30.6525C134.282 30.7835 134.272 30.9418 134.272 31.1273C134.272 31.3134 134.272 31.4867 134.272 31.6473C134.272 32.0989 134.303 32.5163 134.363 32.8977C134.423 33.2797 134.528 33.6067 134.679 33.8774C134.83 34.1487 135.025 34.3598 135.266 34.5105C135.507 34.6612 135.808 34.7366 136.169 34.7366C136.48 34.7366 136.752 34.6763 136.982 34.5557C137.213 34.4351 137.405 34.2641 137.554 34.0432C137.704 33.8224 137.818 33.5632 137.893 33.267C137.968 32.9702 138.006 32.6467 138.006 32.2942C138.006 31.9928 137.973 31.7041 137.908 31.4276C137.843 31.1516 137.737 30.9058 137.592 30.6896C137.446 30.4734 137.253 30.3 137.012 30.1696C136.771 30.0392 136.475 29.9737 136.124 29.9737C135.783 29.9737 135.444 30.034 135.107 30.1551C134.772 30.2757 134.504 30.4421 134.303 30.6525Z" fill="#FE5A11"/>
<path d="M142.041 32.2053C142.041 31.512 142.144 30.9039 142.35 30.3816C142.555 29.8593 142.829 29.4251 143.17 29.0778C143.511 28.7311 143.903 28.4697 144.344 28.2941C144.786 28.1178 145.237 28.0303 145.699 28.0303C146.783 28.0303 147.629 28.3671 148.236 29.0401C148.843 29.7132 149.146 30.7184 149.146 32.054C149.146 32.1549 149.144 32.268 149.139 32.3932C149.134 32.5195 149.127 32.632 149.116 32.7323H143.922C143.973 33.3659 144.196 33.8558 144.592 34.2019C144.989 34.5491 145.563 34.7219 146.316 34.7219C146.758 34.7219 147.161 34.6819 147.528 34.6013C147.895 34.5207 148.183 34.4355 148.394 34.3451L148.635 35.8372C148.534 35.8877 148.396 35.9404 148.221 35.9955C148.044 36.0506 147.845 36.101 147.618 36.1462C147.392 36.1914 147.149 36.2291 146.888 36.2587C146.627 36.2894 146.361 36.3039 146.09 36.3039C145.398 36.3039 144.796 36.2007 144.284 35.9955C143.772 35.7897 143.35 35.5027 143.019 35.1364C142.688 34.7694 142.442 34.3375 142.281 33.8401C142.121 33.3427 142.041 32.7978 142.041 32.2053ZM147.325 31.3909C147.325 31.1393 147.29 30.901 147.22 30.6749C147.149 30.4488 147.046 30.2529 146.911 30.0871C146.776 29.9213 146.61 29.7909 146.414 29.6952C146.219 29.5996 145.985 29.552 145.714 29.552C145.434 29.552 145.188 29.6048 144.977 29.7097C144.767 29.8158 144.588 29.9538 144.442 30.1248C144.297 30.2958 144.184 30.4917 144.104 30.7126C144.023 30.9335 143.969 31.1595 143.939 31.3909H147.325Z" fill="#FE5A11"/>
<path d="M154.883 29.7328C154.872 30.1757 154.857 30.6354 154.838 31.112C154.817 31.5896 154.77 32.0598 154.695 32.5218C154.619 32.9839 154.501 33.4262 154.341 33.8482C154.18 34.2702 153.958 34.6493 153.671 34.9862C153.385 35.323 153.029 35.6036 152.602 35.8302C152.176 36.0563 151.656 36.1995 151.044 36.2592L150.788 34.7369C151.3 34.6366 151.696 34.4737 151.978 34.247C152.259 34.0209 152.475 33.7323 152.625 33.3804C152.746 33.1195 152.838 32.8227 152.904 32.4911C152.969 32.1601 153.019 31.8105 153.054 31.4436C153.09 31.0766 153.112 30.7027 153.122 30.3207C153.132 29.9386 153.137 29.5665 153.137 29.2047V28.2256H158.707V36.1085H156.885V29.7328H154.883Z" fill="#FE5A11"/>
<path d="M168.643 28.2258V36.1087H166.836C166.836 35.5365 166.839 34.9684 166.844 34.4055C166.849 33.8426 166.854 33.3203 166.859 32.8379C166.864 32.3556 166.869 31.9359 166.874 31.5794C166.879 31.2229 166.882 30.9591 166.882 30.7881C166.58 31.18 166.269 31.6124 165.948 32.0843C165.627 32.5562 165.309 33.0287 164.993 33.5006C164.676 33.973 164.377 34.4351 164.096 34.8878C163.816 35.3394 163.57 35.7463 163.359 36.1081H161.748V28.2252H163.54C163.54 28.8078 163.538 29.3632 163.532 29.8907C163.527 30.4182 163.525 30.8977 163.525 31.3295C163.525 31.762 163.522 32.1388 163.517 32.46C163.512 32.7811 163.509 33.0275 163.509 33.1985C163.79 32.7666 164.081 32.3214 164.382 31.8646C164.684 31.4072 164.987 30.9597 165.293 30.5232C165.599 30.0861 165.903 29.6716 166.204 29.2797C166.505 28.8872 166.796 28.5359 167.077 28.2246H168.643V28.2258Z" fill="#FE5A11"/>
</svg>
