<svg width="15" height="12" viewBox="0 0 15 12" fill="none" xmlns="http://www.w3.org/2000/svg">
<path d="M7.19531 3L6.67969 3.44531C6.70312 3.60938 6.70312 3.77344 6.70312 3.9375C6.70312 4.10156 6.70312 4.26562 6.67969 4.42969L7.19531 4.89844C7.35938 5.03906 7.42969 5.27344 7.33594 5.48438C7.28906 5.60156 7.21875 5.74219 7.14844 5.85938L7.07812 5.97656C7.00781 6.09375 6.9375 6.21094 6.86719 6.32812C6.72656 6.49219 6.49219 6.5625 6.28125 6.49219L5.625 6.25781C5.36719 6.46875 5.08594 6.63281 4.75781 6.75L4.61719 7.42969C4.57031 7.66406 4.40625 7.82812 4.19531 7.85156C4.03125 7.875 3.86719 7.875 3.70312 7.875C3.5625 7.875 3.39844 7.875 3.23438 7.85156C3.02344 7.82812 2.83594 7.66406 2.8125 7.42969L2.64844 6.75C2.34375 6.63281 2.0625 6.46875 1.80469 6.25781L1.14844 6.49219C0.9375 6.5625 0.703125 6.49219 0.5625 6.32812C0.492188 6.21094 0.398438 6.09375 0.328125 5.97656L0.257812 5.85938C0.210938 5.74219 0.140625 5.60156 0.09375 5.48438C0 5.27344 0.0703125 5.03906 0.234375 4.89844L0.75 4.42969C0.726562 4.28906 0.726562 4.125 0.726562 3.9375C0.726562 3.77344 0.726562 3.60938 0.75 3.46875L0.234375 3C0.0703125 2.83594 0 2.625 0.09375 2.41406C0.140625 2.27344 0.210938 2.15625 0.257812 2.03906L0.328125 1.92188C0.421875 1.80469 0.492188 1.6875 0.5625 1.57031C0.703125 1.40625 0.9375 1.33594 1.14844 1.40625L1.80469 1.61719C2.0625 1.42969 2.34375 1.26562 2.67188 1.14844L2.8125 0.445312C2.85938 0.234375 3.02344 0.0703125 3.23438 0.046875C3.39844 0.0234375 3.53906 0 3.70312 0H3.72656C3.89062 0 4.03125 0.0234375 4.19531 0.046875C4.40625 0.0703125 4.59375 0.234375 4.64062 0.46875L4.78125 1.14844C5.08594 1.24219 5.36719 1.42969 5.625 1.61719L6.28125 1.40625C6.49219 1.33594 6.72656 1.40625 6.86719 1.57031C6.9375 1.6875 7.03125 1.80469 7.10156 1.92188L7.17188 2.03906C7.21875 2.15625 7.28906 2.27344 7.33594 2.41406C7.42969 2.625 7.35938 2.83594 7.19531 3ZM2.60156 3.9375C2.60156 4.35938 2.8125 4.71094 3.16406 4.92188C3.49219 5.13281 3.9375 5.13281 4.28906 4.92188C4.61719 4.71094 4.85156 4.35938 4.85156 3.9375C4.85156 3.53906 4.61719 3.1875 4.28906 2.97656C3.9375 2.76562 3.49219 2.76562 3.16406 2.97656C2.8125 3.1875 2.60156 3.53906 2.60156 3.9375ZM11.7891 11.5547L11.3438 11.0391C11.1797 11.0625 11.0156 11.0625 10.8516 11.0625C10.6875 11.0625 10.5234 11.0625 10.3594 11.0391L9.89062 11.5547C9.75 11.7188 9.51562 11.7891 9.30469 11.6953C9.1875 11.6484 9.04688 11.5781 8.92969 11.5078L8.8125 11.4375C8.69531 11.3672 8.57812 11.2969 8.46094 11.2031C8.29688 11.0859 8.22656 10.8516 8.29688 10.6406L8.53125 9.98438C8.32031 9.72656 8.15625 9.44531 8.03906 9.11719L7.35938 8.97656C7.125 8.92969 6.96094 8.76562 6.9375 8.55469C6.91406 8.39062 6.91406 8.22656 6.91406 8.0625C6.91406 7.89844 6.91406 7.75781 6.9375 7.59375C6.96094 7.38281 7.125 7.19531 7.35938 7.14844L8.03906 7.00781C8.15625 6.70312 8.32031 6.42188 8.53125 6.16406L8.29688 5.50781C8.22656 5.29688 8.29688 5.0625 8.46094 4.92188C8.57812 4.85156 8.69531 4.75781 8.8125 4.6875L8.92969 4.61719C9.04688 4.57031 9.1875 4.5 9.30469 4.45312C9.51562 4.35938 9.75 4.42969 9.89062 4.59375L10.3594 5.10938C10.5 5.08594 10.6641 5.08594 10.8516 5.08594C11.0156 5.08594 11.1797 5.08594 11.3203 5.10938L11.7891 4.59375C11.9531 4.42969 12.1875 4.35938 12.375 4.45312C12.5156 4.5 12.6328 4.57031 12.75 4.61719L12.8672 4.6875C12.9844 4.78125 13.1016 4.85156 13.2188 4.92188C13.3828 5.0625 13.4531 5.29688 13.3828 5.50781L13.1719 6.16406C13.3594 6.42188 13.5234 6.70312 13.6406 7.00781L14.3438 7.17188C14.5547 7.21875 14.7188 7.38281 14.7422 7.59375C14.7656 7.75781 14.7891 7.92188 14.7891 8.08594C14.7891 8.22656 14.7656 8.39062 14.7422 8.55469C14.7188 8.76562 14.5547 8.95312 14.3438 8.97656L13.6406 9.14062C13.5469 9.44531 13.3594 9.72656 13.1719 9.98438L13.3828 10.6406C13.4531 10.8516 13.3828 11.0859 13.2188 11.2266C13.1016 11.2969 12.9844 11.3672 12.8672 11.4375L12.75 11.5312C12.6328 11.5781 12.5156 11.6484 12.375 11.6953C12.1641 11.7891 11.9531 11.7188 11.7891 11.5547ZM10.8516 6.9375C10.4297 6.9375 10.0781 7.17188 9.86719 7.5C9.65625 7.85156 9.65625 8.29688 9.86719 8.625C10.0781 8.97656 10.4297 9.1875 10.8516 9.1875C11.25 9.1875 11.6016 8.97656 11.8125 8.625C12.0234 8.29688 12.0234 7.85156 11.8125 7.5C11.6016 7.17188 11.25 6.9375 10.8516 6.9375Z" fill="#2C2D2E"/>
</svg>
