<svg width="40" height="40" viewBox="0 0 40 40" fill="none" xmlns="http://www.w3.org/2000/svg">
<path d="M12.4331 32.2334H9.23306C4.33306 31.8834 2.13315 28.1167 2.13315 24.7667C2.13315 21.4167 4.33308 17.6334 9.14975 17.3001C9.83308 17.2334 10.4331 17.7667 10.4831 18.4667C10.5331 19.1501 10.0165 19.7501 9.31648 19.8001C6.08314 20.0334 4.63315 22.4667 4.63315 24.7834C4.63315 27.1 6.08314 29.5334 9.31648 29.7667H12.4331C13.1165 29.7667 13.6831 30.3334 13.6831 31.0167C13.6831 31.7001 13.1165 32.2334 12.4331 32.2334Z" fill="#FE5A11"/>
<path d="M27.7845 32.2335C27.7512 32.2335 27.7345 32.2335 27.7012 32.2335C27.0178 32.2335 26.3846 31.6668 26.3846 30.9835C26.3846 30.2668 26.9179 29.7335 27.6179 29.7335C29.6679 29.7335 31.5012 29.0168 32.9345 27.7335C35.5345 25.4668 35.7012 22.2002 35.0012 19.9002C34.3012 17.6168 32.3512 15.0002 28.9512 14.5835C28.4012 14.5168 27.9678 14.1002 27.8678 13.5502C27.2011 9.55017 25.0512 6.7835 21.7845 5.7835C18.4179 4.7335 14.4845 5.76683 12.0345 8.3335C9.65114 10.8168 9.10115 14.3002 10.4845 18.1335C10.7178 18.7835 10.3846 19.5002 9.73457 19.7335C9.08457 19.9668 8.36786 19.6335 8.13453 18.9835C6.4512 14.2835 7.21788 9.7835 10.2345 6.61684C13.3179 3.3835 18.2679 2.10016 22.5179 3.40016C26.4179 4.60016 29.1678 7.81682 30.1678 12.2835C33.5678 13.0502 36.3012 15.6335 37.3845 19.2002C38.5678 23.0835 37.5012 27.0835 34.5845 29.6168C32.7345 31.2835 30.3178 32.2335 27.7845 32.2335Z" fill="#FE5A11"/>
<path d="M20.0011 37.1335C16.6511 37.1335 13.5178 35.3501 11.8011 32.4668C11.6178 32.1835 11.4345 31.8501 11.2845 31.4835C10.7178 30.3001 10.4178 28.9501 10.4178 27.5501C10.4178 22.2668 14.7178 17.9668 20.0011 17.9668C25.2845 17.9668 29.5845 22.2668 29.5845 27.5501C29.5845 28.9668 29.2845 30.3001 28.6845 31.5335C28.5512 31.8501 28.3678 32.1835 28.1678 32.5001C26.4845 35.3501 23.3511 37.1335 20.0011 37.1335ZM20.0011 20.4668C16.1011 20.4668 12.9178 23.6501 12.9178 27.5501C12.9178 28.5835 13.1345 29.5501 13.5511 30.4335C13.6845 30.7168 13.8011 30.9501 13.9344 31.1668C15.2011 33.3168 17.5178 34.6335 19.9844 34.6335C22.4511 34.6335 24.7678 33.3168 26.0178 31.2001C26.1678 30.9501 26.3012 30.7168 26.4012 30.4835C26.8512 29.5668 27.0678 28.6001 27.0678 27.5668C27.0844 23.6501 23.9011 20.4668 20.0011 20.4668Z" fill="#FE5A11"/>
<path d="M19.0507 30.4501C18.7341 30.4501 18.4175 30.3334 18.1675 30.0834L16.5174 28.4334C16.034 27.9501 16.034 27.1501 16.5174 26.6667C17.0007 26.1834 17.8007 26.1834 18.284 26.6667L19.0841 27.4667L21.7507 25.0001C22.2674 24.5334 23.0507 24.5667 23.5174 25.0667C23.9841 25.5667 23.9508 26.3667 23.4508 26.8334L19.9008 30.1167C19.6508 30.3334 19.3507 30.4501 19.0507 30.4501Z" fill="#FE5A11"/>
</svg>
