<svg width="16" height="16" viewBox="0 0 16 16" fill="none" xmlns="http://www.w3.org/2000/svg">
<g clip-path="url(#clip0_277_26723)">
<path d="M7.99999 4.6665C7.63332 4.6665 7.33332 4.3665 7.33332 3.99984V1.33317C7.33332 0.966504 7.63332 0.666504 7.99999 0.666504C8.36666 0.666504 8.66666 0.966504 8.66666 1.33317V3.99984C8.66666 4.3665 8.36666 4.6665 7.99999 4.6665ZM7.99999 15.3332C7.63332 15.3332 7.33332 15.0332 7.33332 14.6665V11.9998C7.33332 11.6332 7.63332 11.3332 7.99999 11.3332C8.36666 11.3332 8.66666 11.6332 8.66666 11.9998V14.6665C8.66666 15.0332 8.36666 15.3332 7.99999 15.3332ZM14.6667 8.6665H12C11.6333 8.6665 11.3333 8.3665 11.3333 7.99984C11.3333 7.63317 11.6333 7.33317 12 7.33317H14.6667C15.0333 7.33317 15.3333 7.63317 15.3333 7.99984C15.3333 8.3665 15.0333 8.6665 14.6667 8.6665ZM3.99999 8.6665H1.33332C0.966657 8.6665 0.666656 8.3665 0.666656 7.99984C0.666656 7.63317 0.966657 7.33317 1.33332 7.33317H3.99999C4.36666 7.33317 4.66666 7.63317 4.66666 7.99984C4.66666 8.3665 4.36666 8.6665 3.99999 8.6665ZM12.7133 13.3798C12.54 13.3798 12.3733 13.3132 12.24 13.1865L10.3533 11.2998C10.2916 11.2381 10.2426 11.1648 10.2092 11.0842C10.1758 11.0036 10.1586 10.9171 10.1586 10.8298C10.1586 10.7426 10.1758 10.6561 10.2092 10.5755C10.2426 10.4948 10.2916 10.4216 10.3533 10.3598C10.415 10.2981 10.4883 10.2492 10.569 10.2158C10.6496 10.1824 10.736 10.1652 10.8233 10.1652C10.9106 10.1652 10.997 10.1824 11.0777 10.2158C11.1583 10.2492 11.2316 10.2981 11.2933 10.3598L13.18 12.2465C13.273 12.3396 13.3363 12.4583 13.3618 12.5874C13.3872 12.7165 13.3737 12.8503 13.323 12.9717C13.2723 13.0932 13.1866 13.1968 13.0769 13.2695C12.9671 13.3422 12.8383 13.3806 12.7067 13.3798H12.7133ZM5.17332 5.83984C4.99999 5.83984 4.83332 5.77317 4.69999 5.6465L2.81332 3.75984C2.7516 3.69812 2.70264 3.62484 2.66924 3.5442C2.63584 3.46356 2.61864 3.37712 2.61864 3.28984C2.61864 3.20255 2.63584 3.11612 2.66924 3.03548C2.70264 2.95483 2.7516 2.88156 2.81332 2.81984C2.87504 2.75812 2.94832 2.70916 3.02896 2.67575C3.1096 2.64235 3.19604 2.62516 3.28332 2.62516C3.37061 2.62516 3.45704 2.64235 3.53769 2.67575C3.61833 2.70916 3.6916 2.75812 3.75332 2.81984L5.63999 4.7065C5.73302 4.7996 5.79629 4.91825 5.82175 5.04738C5.84721 5.17651 5.83373 5.31029 5.783 5.43174C5.73228 5.55319 5.64661 5.65683 5.53687 5.72949C5.42713 5.80215 5.29827 5.84056 5.16666 5.83984H5.17332ZM3.28666 13.3798C3.11332 13.3798 2.94666 13.3132 2.81332 13.1865C2.75152 13.1248 2.70249 13.0516 2.66903 12.9709C2.63558 12.8903 2.61836 12.8038 2.61836 12.7165C2.61836 12.6292 2.63558 12.5427 2.66903 12.4621C2.70249 12.3814 2.75152 12.3082 2.81332 12.2465L4.69999 10.3598C4.76171 10.2981 4.83499 10.2492 4.91563 10.2158C4.99627 10.1824 5.0827 10.1652 5.16999 10.1652C5.25728 10.1652 5.34371 10.1824 5.42435 10.2158C5.50499 10.2492 5.57827 10.2981 5.63999 10.3598C5.70171 10.4216 5.75067 10.4948 5.78407 10.5755C5.81748 10.6561 5.83467 10.7426 5.83467 10.8298C5.83467 10.9171 5.81748 11.0036 5.78407 11.0842C5.75067 11.1648 5.70171 11.2381 5.63999 11.2998L3.75332 13.1865C3.61999 13.3198 3.45332 13.3798 3.27999 13.3798H3.28666ZM10.8267 5.83984C10.6533 5.83984 10.4867 5.77317 10.3533 5.6465C10.2915 5.58483 10.2425 5.51157 10.209 5.43092C10.1756 5.35027 10.1584 5.26382 10.1584 5.1765C10.1584 5.08919 10.1756 5.00274 10.209 4.92209C10.2425 4.84144 10.2915 4.76818 10.3533 4.7065L12.24 2.81984C12.3017 2.75812 12.375 2.70916 12.4556 2.67575C12.5363 2.64235 12.6227 2.62516 12.71 2.62516C12.7973 2.62516 12.8837 2.64235 12.9644 2.67575C13.045 2.70916 13.1183 2.75812 13.18 2.81984C13.2417 2.88156 13.2907 2.95483 13.3241 3.03548C13.3575 3.11612 13.3747 3.20255 13.3747 3.28984C13.3747 3.37712 13.3575 3.46356 13.3241 3.5442C13.2907 3.62484 13.2417 3.69812 13.18 3.75984L11.2933 5.6465C11.16 5.77984 10.9933 5.83984 10.82 5.83984H10.8267Z" fill="#FE5A11"/>
</g>
<defs>
<clipPath id="clip0_277_26723">
<rect width="16" height="16" fill="white"/>
</clipPath>
</defs>
</svg>
