<svg width="33" height="32" viewBox="0 0 33 32" fill="none" xmlns="http://www.w3.org/2000/svg">
<path d="M29.2967 2.77369V29.2263H2.78037V2.77369H29.2967ZM32.0771 0H0V32H32.0771V0Z" fill="#FE5A11"/>
<path d="M11.6865 8.81199C11.9933 9.3413 12.3352 9.98803 12.712 10.7531C13.0887 11.5186 13.4724 12.3226 13.8631 13.1644C14.2532 14.0066 14.6406 14.8628 15.0243 15.7323C15.4076 16.6023 15.7602 17.4058 16.0809 18.1436C16.4015 17.4058 16.7505 16.6023 17.1272 15.7323C17.504 14.8628 17.8876 14.0071 18.2778 13.1644C18.6685 12.3226 19.0522 11.5186 19.4289 10.7531C19.8056 9.98803 20.1472 9.34084 20.4539 8.81199H22.8297C22.9576 9.86969 23.0781 10.9935 23.1921 12.1834C23.3057 13.3733 23.4085 14.5914 23.5007 15.8364C23.593 17.0817 23.6782 18.3345 23.7565 19.5938C23.8348 20.8539 23.902 22.0818 23.9595 23.2786H21.3645C21.3075 21.5945 21.2398 19.8619 21.1615 18.0807C21.0832 16.2996 20.966 14.5739 20.8098 12.9036C20.656 13.224 20.4748 13.6068 20.2653 14.0519C20.0563 14.4971 19.8325 14.9807 19.5962 15.5026C19.3585 16.0245 19.118 16.564 18.8737 17.1206C18.6295 17.6771 18.3927 18.2166 18.1624 18.7385C17.9321 19.2605 17.7194 19.7477 17.5243 20.1994C17.3288 20.6519 17.1615 21.0379 17.022 21.3583H15.0549C14.9154 21.0384 14.7481 20.6487 14.5531 20.1892C14.357 19.7301 14.1448 19.2392 13.9145 18.7173C13.6847 18.1954 13.4469 17.6564 13.2032 17.0998C12.959 16.5432 12.718 16.0074 12.4812 15.492C12.2435 14.9774 12.0206 14.4939 11.8116 14.0409C11.6026 13.5887 11.421 13.2097 11.2676 12.9032C11.111 14.5734 10.9933 16.2991 10.9154 18.0803C10.8371 19.8619 10.7699 21.5945 10.7124 23.2781H8.11743C8.17443 22.0813 8.24209 20.8429 8.3204 19.5623C8.39825 18.2818 8.48397 17.0119 8.57619 15.7527C8.66794 14.4934 8.77128 13.2721 8.88481 12.0891C8.99834 10.9061 9.11929 9.81375 9.24719 8.81152H11.6865V8.81199Z" fill="#2C2D2E"/>
</svg>
