<?xml version="1.0" encoding="utf-8"?><svg viewBox="0 0 24 24" xmlns="http://www.w3.org/2000/svg" xmlns:xlink="http://www.w3.org/1999/xlink"><style>:root>svg{display:none}:root>svg:target{display:block}</style><svg viewBox="0 0 20 20" id="about" xmlns="http://www.w3.org/2000/svg"><path d="M2.5 17V3a.5.5 0 01.5-.5h14a.5.5 0 01.5.5v14a.5.5 0 01-.5.5H3a.5.5 0 01-.5-.5z"/><path d="M7.452 5.951c.174.301.367.668.58 1.103.214.434.43.89.652 1.369.22.478.44.964.657 1.458.217.494.416.95.598 1.37l.592-1.37a64.651 64.651 0 011.302-2.827c.213-.435.406-.802.58-1.103h1.344c.073.601.14 1.24.205 1.915.065.676.123 1.367.175 2.074a181.202 181.202 0 01.26 4.226h-1.469c-.032-.956-.07-1.94-.115-2.951a59.969 59.969 0 00-.199-2.94 100.682 100.682 0 00-.686 1.476c-.135.296-.27.602-.409.918l-.402.92c-.13.295-.251.572-.362.829l-.284.658H9.358a75.035 75.035 0 01-.284-.664c-.11-.26-.23-.54-.361-.836l-.403-.918c-.138-.316-.274-.62-.408-.913l-.379-.824a23.61 23.61 0 00-.308-.646 59.385 59.385 0 00-.199 2.94 301.97 301.97 0 00-.115 2.95H5.433a175.957 175.957 0 01.26-4.273c.051-.714.11-1.408.174-2.08.064-.671.133-1.292.205-1.86h1.38z"/></svg><svg viewBox="0 0 20 20" id="arrow-down" xmlns="http://www.w3.org/2000/svg"><path d="M5 7.5l5 5 5-5"/></svg><svg viewBox="0 0 24 24" id="arrow-left" xmlns="http://www.w3.org/2000/svg"><path d="M6 12l6 6m6.5-6H6h12.5zM6 12l6-6-6 6z"/></svg><svg viewBox="0 0 20 20" id="available" xmlns="http://www.w3.org/2000/svg"><path d="M1.667 13.333v2.5M3.333 7.5V5.833c0-.92.746-1.666 1.667-1.666h10c.92 0 1.666.746 1.666 1.666V7.5"/><path d="M18.334 10v-.833a1.667 1.667 0 00-3.334 0v1.666H5V9.167a1.667 1.667 0 00-3.333 0v5H10M12.5 14.167l2.5 2.5 4.167-4.167"/></svg><svg viewBox="0 0 24 24" id="available_sort" xmlns="http://www.w3.org/2000/svg"><path d="M2 16v3M4 9V7a2 2 0 012-2h12a2 2 0 012 2v2"/><path d="M22 12v-1a2 2 0 10-4 0v2H6v-2a2 2 0 10-4 0v6h10M15 17l3 3 5-5"/></svg><svg viewBox="0 0 20 20" id="buyers" xmlns="http://www.w3.org/2000/svg"><path d="M5 5h6.667H5zM5 5h6.667M5 8.333h10H5zM5 8.333h10M10 11.667h5M10 15h5M1.667 17.834V2.167a.5.5 0 01.5-.5H15.21a.5.5 0 01.353.146l2.624 2.624a.5.5 0 01.146.354v13.043a.5.5 0 01-.5.5H2.167a.5.5 0 01-.5-.5z"/><path d="M15 4.5V1.962a.295.295 0 01.503-.209l2.744 2.744a.294.294 0 01-.208.503H15.5a.5.5 0 01-.5-.5zM5 15v-3.333h1.667V15H5z"/></svg><svg viewBox="0 0 20 20" id="catalog" xmlns="http://www.w3.org/2000/svg"><path d="M11.667 17v-4.833a.5.5 0 01.5-.5H17a.5.5 0 01.5.5V17a.5.5 0 01-.5.5h-4.833a.5.5 0 01-.5-.5zM2.5 17v-4.833a.5.5 0 01.5-.5h4.833a.5.5 0 01.5.5V17a.5.5 0 01-.5.5H3a.5.5 0 01-.5-.5zM11.667 7.833V3a.5.5 0 01.5-.5H17a.5.5 0 01.5.5v4.833a.5.5 0 01-.5.5h-4.833a.5.5 0 01-.5-.5zM2.5 7.833V3a.5.5 0 01.5-.5h4.833a.5.5 0 01.5.5v4.833a.5.5 0 01-.5.5H3a.5.5 0 01-.5-.5z"/></svg><svg viewBox="0 0 24 24" id="catalog-btn" xmlns="http://www.w3.org/2000/svg"><path d="M14 20.4v-5.8a.6.6 0 01.6-.6h5.8a.6.6 0 01.6.6v5.8a.6.6 0 01-.6.6h-5.8a.6.6 0 01-.6-.6zM3 20.4v-5.8a.6.6 0 01.6-.6h5.8a.6.6 0 01.6.6v5.8a.6.6 0 01-.6.6H3.6a.6.6 0 01-.6-.6zM14 9.4V3.6a.6.6 0 01.6-.6h5.8a.6.6 0 01.6.6v5.8a.6.6 0 01-.6.6h-5.8a.6.6 0 01-.6-.6zM3 9.4V3.6a.6.6 0 01.6-.6h5.8a.6.6 0 01.6.6v5.8a.6.6 0 01-.6.6H3.6a.6.6 0 01-.6-.6z"/></svg><svg viewBox="0 0 24 24" id="cats" xmlns="http://www.w3.org/2000/svg"><path d="M2 16v3M12 13V7a2 2 0 012-2h4a2 2 0 012 2v2M12 13V7a2 2 0 00-2-2H6a2 2 0 00-2 2v2"/><path d="M20 9a2 2 0 00-2 2v2H6v-2a2 2 0 10-4 0v6h20v-6a2 2 0 00-2-2zM22 16v3"/></svg><svg viewBox="0 0 20 20" id="child" xmlns="http://www.w3.org/2000/svg"><path d="M3.029 1.254h.008a1.874 1.874 0 011.96 1.79c.011.27-.004.546.008.817.133-.045.294-.09.436-.099.394-.026.795-.007 1.19-.013.165-.002.341 0 .503.02a1.878 1.878 0 011.457 1.1c.186.43.215.94.042 1.378.578.016 1.222.003 1.805.003h3.31c.008-.424-.102-1.037.403-1.21.186-.064.632-.04.84-.04h2.532c.09-.001.18-.003.27-.001.164.002.324-.01.486.023a.622.622 0 01.47.62c.003.352.002.703.002 1.055v11.09c0 .406.04.659-.346.898a.612.612 0 01-.207.061c-.241.011-.494.008-.736.008H2.964c-.362 0-.724.003-1.086-.003a.636.636 0 01-.519-.273c-.157-.212-.1-.524-.109-.775-.006-.165 0-.342 0-.508V3.713c0-.247-.01-.588.018-.825a1.858 1.858 0 011.76-1.634zM2.5 8.748l6.553.001h2.496c.291 0 .55-.034.771.19a.619.619 0 01-.015.886.629.629 0 01-.368.171c-.172.02-.635.008-.825.007H6.49c-.472 0-.945 0-1.417.003a.582.582 0 01-.072-.007v.879c0 .14-.007.347.004.484.384-.145.827-.113 1.232-.113.283 0 .645-.016.92.024a1.863 1.863 0 011.06.544c.343.362.543.831.531 1.333a1.799 1.799 0 01-.115.598c.764.008 1.536.002 2.3.002h2.815l.002-4.378c0-.61-.01-1.258.002-1.866-.968-.011-1.948-.003-2.918-.003h-7.41l-.582.001c-.098 0-.248.008-.34-.006-.006.417.003.834-.002 1.25zm0 8.75l8.792.002h1.836c.085 0 .561.01.613-.006l.006-.007c.017-.817-.018-1.67.005-2.48-.968-.012-1.948-.004-2.918-.004h-7.41l-.582.001c-.098 0-.248.008-.34-.006-.013.83.007 1.67-.002 2.5zm0-3.75c.104 0 1.223.012 1.247-.01.018-.931-.007-1.88.003-2.813.004-.305-.005-.614.002-.919a45.616 45.616 0 00-.827-.002c-.101 0-.334.008-.423-.006-.02 1.242.01 2.506-.002 3.75zm12.502-2.5c-.007.416.003.834-.002 1.25l1.84.002c.09 0 .6.01.652-.007l.005-.006c.009-.409-.005-.824.005-1.23-.584-.008-1.175-.005-1.76-.004l-.44.002c-.086 0-.218.006-.3-.007zM15 14.998l1.84.002c.09 0 .6.01.652-.007l.005-.006c.009-.408-.005-.825.005-1.23l-1.76-.004-.44.002c-.086 0-.218.006-.3-.007-.007.417.003.834-.002 1.25zm2.502 1.258c-.584-.007-1.175-.004-1.76-.003l-.44.002c-.086 0-.218.006-.3-.007-.007.417.003.834-.002 1.25l1.84.002c.09 0 .6.01.652-.007l.005-.006c.009-.408-.005-.824.005-1.23zM15 9.998l1.84.002c.09 0 .6.01.652-.007l.005-.006c.009-.409-.005-.824.005-1.23-.584-.008-1.175-.005-1.76-.004l-.44.002c-.086 0-.218.006-.3-.007-.007.417.003.834-.002 1.25zM6.87 6.248c.202-.016.34-.064.478-.222a.614.614 0 00-.066-.873c-.183-.155-.39-.154-.616-.15-.337.005-.681-.009-1.018.001-.21.016-.356.05-.499.218a.629.629 0 00-.144.468.607.607 0 00.228.418c.073.06.16.1.252.121.092.02.193.023.288.022.365-.004.732.004 1.097-.003zm0 7.5c.203-.016.343-.065.48-.225a.614.614 0 00-.076-.876c-.185-.153-.398-.148-.626-.145-.332.006-.67-.008-1 .002-.21.016-.356.05-.499.218a.629.629 0 00-.144.468.607.607 0 00.228.418c.073.06.16.1.252.121.092.02.193.023.288.022.365-.004.731.004 1.096-.002zm8.133-7.5c-.007.416.003.834-.002 1.25l1.84.002c.09 0 .6.01.652-.007l.005-.006c.009-.409-.005-.824.005-1.23l-1.76-.004-.454.002c-.085 0-.205.006-.286-.007zM3.044 2.513a.593.593 0 00-.53.506c-.02.135-.014.272-.014.409v.585c0 .74.008 1.496 0 2.235l.728.002h.52l.003-2.184v-.602c0-.29.034-.558-.186-.779a.6.6 0 00-.521-.172z"/></svg><svg viewBox="0 0 20 20" id="detsk" xmlns="http://www.w3.org/2000/svg"><path d="M1.094 3.095c.033-.063.05-.134.08-.2a.71.71 0 01.432-.375 7.94 7.94 0 01.853-.211c1.305-.257 2.731-.25 3.945.351 1.15.57 1.883 1.568 2.286 2.767.118.358.21.725.275 1.096.246.013.526.007.774.007H16.19c.332 0 .702-.02 1.022.048a2.157 2.157 0 011.62 1.538c.024.086.049.274.074.344v2.478c-.027.065-.046.14-.076.202a.757.757 0 01-.691.411c-.161 0-.334.01-.493-.005.061.457.173.921.245 1.377.012.077.028.16.044.235.233-.02.464.05.645.197.12.098.217.235.27.381.021.058.033.152.056.21V15.7c-.086.335-.175.568-.517.726-.21.097-.44.177-.659.255a17.77 17.77 0 01-1.576.489c-3.895 1.018-8.418.906-12.234-.395-.199-.068-.396-.139-.592-.214-.322-.125-.591-.205-.754-.541a.86.86 0 01-.08-.288c-.02-.19-.007-.616-.007-.829l-.001-.57c0-.2-.014-.415.055-.607a.859.859 0 01.457-.494c.318-.146.573-.052.878.06l.962-4.811c-.256.15-.506.31-.761.46-.52.309-1.147.322-1.703.101-.616-.244-1.071-.808-1.227-1.448-.016-.067-.024-.163-.053-.224v-.467c.02-.04.051-.2.065-.254.04-.164.103-.323.188-.47.084-.14.2-.3.295-.438l.498-.724c.05-.073.201-.264.222-.333.003-.01.002-.01-.002-.022-.028-.08-.968-.799-1.12-.992-.077-.097-.094-.204-.146-.312v-.262zm1.377.27c.144.126.29.25.437.374.292.245.517.42.547.838.01.15-.015.3-.073.438-.063.149-.25.403-.35.548l-.573.832c-.091.132-.2.272-.26.42-.254.639.307 1.372.984 1.325.23-.016.37-.104.562-.222l.45-.275c.31-.19.532-.338.923-.257a.995.995 0 01.453.225c.294.254.384.602.31.974-.052.254-.102.51-.152.763l-.307 1.54-.359 1.797c-.054.274-.123.681-.19.94.944.28 1.786.453 2.754.603a3.08 3.08 0 01.95-2.134 3.072 3.072 0 014.732.618c.272.46.427.982.45 1.517.245-.05.557-.09.814-.137a18.725 18.725 0 001.748-.411c.178-.052.437-.124.608-.188-.119-.734-.27-1.473-.396-2.207-.05-.048-.127-.092-.185-.131a2.132 2.132 0 01-.912-1.622c-.014-.222-.007-.491-.007-.718V7.582c-.404.015-.902 0-1.313 0l-.452.002c-.075 0-.203.007-.272-.003-.01.179-.002.36-.005.538-.01.525.09.994-.347 1.386-.145.13-.324.219-.517.253-.187.035-.467.025-.665.024h-2.11c-.23 0-.475.005-.704-.003a1.07 1.07 0 01-.798-.374 1.004 1.004 0 01-.224-.446c-.037-.166-.027-.428-.027-.605v-.748c0-.207.004-.424-.018-.63a5.39 5.39 0 00-.4-1.538c-.6-1.41-1.636-2.118-3.157-2.23-.199-.014-.45-.01-.65-.004a6.388 6.388 0 00-.867.089c-.119.018-.322.065-.432.072zm1.06 12.151c3.666 1.432 8.018 1.665 11.844.77.823-.192 1.63-.441 2.418-.747.02-.005.041-.009.05-.029.033-.065.011-1.06.015-1.224-.298.085-.632.216-.942.31a19.19 19.19 0 01-2.002.5c-3.12.598-6.332.524-9.421-.22a18.335 18.335 0 01-1.382-.395c-.146-.047-.437-.14-.575-.2-.011.077-.009.4-.007.492.006.237-.008.51.002.743zm12.946-7.94c-.013.362-.001.77-.004 1.134-.002.229-.015.747.031.942a1.103 1.103 0 001.03.844c.104.003.23-.003.328.004l.001-1.191c0-.24.017-.68-.036-.899a1.08 1.08 0 00-.286-.509 1.04 1.04 0 00-.776-.316 1.65 1.65 0 01-.288-.008zm-7.434.005c-.016.373.011.774-.005 1.14.265.012.547.006.813.006h2.112c.083 0 .312.007.379 0l.001-1.146c-.236.01-.511.002-.752.002H9.4c-.085 0-.285.009-.357-.002zm1.529 4.72c-.784.08-1.392.464-1.727 1.2-.134.293-.16.534-.181.849.72.07 1.443.101 2.166.095.674-.01 1.219-.041 1.887-.092-.032-.635-.182-1.097-.67-1.54-.415-.376-.919-.536-1.475-.512z"/></svg><svg viewBox="0 0 20 20" id="divans" xmlns="http://www.w3.org/2000/svg"><path d="M5.463 3.754c.507-.02 1.028.003 1.537-.005.258-.004.55-.007.805.018.686.07 1.329.364 1.829.838.143.136.242.257.367.409.102-.13.195-.247.312-.364a3.118 3.118 0 011.803-.875c.188-.024.355-.025.543-.025h1.197c.268 0 .588-.01.85.018a3.122 3.122 0 011.882.904c.523.523.842 1.216.9 1.953.022.259.013.596.013.863v1.374c.852.359 1.247.961 1.25 1.887v4.401c0 .195.004.39-.014.584-.012.2-.256.467-.456.498-.244.037-.587.02-.844.02l-1.631.001H2.465c-.246.002-.601.029-.831-.052a.672.672 0 01-.34-.338.689.689 0 01-.041-.223c-.006-.32-.003-.643-.003-.962V11.33c0-.28-.007-.569.006-.846a1.826 1.826 0 01.786-1.39c.152-.104.287-.163.456-.23.01-.478-.003-.965.002-1.444.003-.282-.01-.573.016-.854a3.136 3.136 0 01.754-1.747c.57-.657 1.333-1.006 2.193-1.065zm5.162 6.244l1.773.001c.25 0 .5-.003.748.005a.62.62 0 01.407 1.072.552.552 0 01-.34.165c-.225.02-.469.012-.695.012H6.913c-.296 0-1.298-.033-1.516.043a.616.616 0 00-.395.564.613.613 0 00.165.438.66.66 0 00.464.2l6.022.002H14.058c.286 0 .537.033.755-.187a.608.608 0 00.16-.276c.043-.166.023-.333.028-.5.011-.365-.03-.855.03-1.203a1.943 1.943 0 011.217-1.478c.008-.38.003-.79.003-1.17-.001-.374.025-.93-.061-1.272a1.86 1.86 0 00-.469-.84c-.316-.327-.799-.564-1.256-.565-.649-.001-1.317-.022-1.964-.005-.544.023-1 .191-1.377.597a1.85 1.85 0 00-.45.854c-.058.256-.047.49-.049.748-.006.931.01 1.864 0 2.795zm6.873 5.001l.002-3.217.001-.719c0-.175.012-.46-.032-.622a.562.562 0 00-.147-.249.607.607 0 00-.883.007c-.21.21-.186.462-.19.737-.003.345.012.7-.004 1.045a1.882 1.882 0 01-1.846 1.77c-.687.004-1.372.002-2.06.002H6.455c-.29 0-.869.016-1.134-.028a1.887 1.887 0 01-.989-.493c-.657-.616-.589-1.329-.58-2.147.002-.18.013-.451-.037-.62a.663.663 0 00-.185-.295.587.587 0 00-.494-.157.592.592 0 00-.526.54c-.014.172-.009.345-.009.517v3.928l14.998.001zM3.751 8.856c.528.23.896.57 1.109 1.116.02.053.038.106.055.16.12-.036.3-.093.419-.108.266-.035.56-.025.83-.025h1.224c.652 0 1.336.012 1.985 0l.002-2.094V7.25c0-.281.01-.545-.056-.821a1.86 1.86 0 00-.487-.87c-.404-.41-.893-.567-1.454-.557-.576.011-1.182-.015-1.756.001-.542.024-.997.192-1.373.597a1.849 1.849 0 00-.442.823c-.078.316-.057.784-.057 1.123v1.31z"/></svg><svg viewBox="0 0 24 24" id="file-close" xmlns="http://www.w3.org/2000/svg"><path d="M12 12l2.829 2.828m-5.657 0L12.001 12l-2.829 2.828zm5.657-5.657L12.001 12l2.828-2.829zM12.001 12L9.172 9.17 12.001 12z"/><path d="M12 22c5.523 0 10-4.477 10-10S17.523 2 12 2 2 6.477 2 12s4.477 10 10 10z"/></svg><svg viewBox="0 0 24 24" id="file-remove" xmlns="http://www.w3.org/2000/svg"><path d="M19 11v9.4a.6.6 0 01-.6.6H5.6a.6.6 0 01-.6-.6V11M10 17v-6M14 17v-6M8 7h8m5 0h-5 5zM3 7h5-5zm5 0V3.6a.6.6 0 01.6-.6h6.8a.6.6 0 01.6.6V7H8z"/></svg><svg viewBox="0 0 24 24" id="file-update" xmlns="http://www.w3.org/2000/svg"><path d="M21.168 8A10.003 10.003 0 0012 2C6.815 2 2.55 5.947 2.05 11"/><path d="M17 8h4.4a.6.6 0 00.6-.6V3M2.881 16c1.544 3.532 5.068 6 9.168 6 5.186 0 9.45-3.947 9.951-9"/><path d="M7.05 16h-4.4a.6.6 0 00-.6.6V21"/></svg><svg viewBox="0 0 20 20" id="filter" xmlns="http://www.w3.org/2000/svg"><path d="M2.5 5.833v-2.5c0-.46.373-.833.833-.833h13.334c.46 0 .833.373.833.833v2.5h-15zm0 0l5.542 4.75c.185.16.291.39.291.634v5.216c0 .542.51.94 1.036.808l1.666-.416a.833.833 0 00.632-.809v-4.8c0-.243.106-.474.29-.632l5.543-4.75h-15zm0 0h15z"/><path d="M2.5 5.833h15m-15 0v-2.5c0-.46.373-.833.833-.833h13.334c.46 0 .833.373.833.833v2.5h-15zm0 0l5.542 4.75c.185.16.291.39.291.634v5.216c0 .542.51.94 1.036.808l1.666-.416a.833.833 0 00.632-.809v-4.8c0-.243.106-.474.29-.632l5.543-4.75h-15z"/></svg><svg viewBox="0 0 20 20" id="guest" xmlns="http://www.w3.org/2000/svg"><path d="M5.463 3.754c.507-.02 1.028.003 1.537-.005a7.53 7.53 0 01.805.018c.686.07 1.329.364 1.829.838.143.136.242.257.367.409.102-.13.195-.247.312-.364a3.118 3.118 0 011.803-.875c.188-.024.355-.025.543-.025h1.197c.268 0 .588-.01.85.018a3.122 3.122 0 011.882.904c.523.523.842 1.216.9 1.953.022.259.013.596.013.863v1.374c.852.36 1.247.961 1.25 1.887v4.401c0 .195.004.39-.014.584-.012.2-.256.467-.456.498-.244.037-.587.021-.844.02l-1.631.001H3.425l-.96.001c-.246 0-.601.028-.831-.053a.672.672 0 01-.34-.338.689.689 0 01-.041-.223c-.006-.32-.003-.643-.003-.962V11.33c0-.28-.007-.568.006-.846a1.826 1.826 0 01.786-1.39c.152-.104.287-.163.456-.23.01-.478-.003-.965.002-1.444.003-.282-.01-.573.016-.854a3.136 3.136 0 01.754-1.747c.57-.657 1.333-1.006 2.193-1.065zm5.162 6.244l1.773.001c.25 0 .5-.003.748.005a.62.62 0 01.407 1.072.553.553 0 01-.34.165c-.225.02-.469.012-.695.012H6.913c-.296 0-1.298-.033-1.516.043a.616.616 0 00-.395.564.613.613 0 00.165.438.66.66 0 00.464.201H14.058c.286 0 .537.034.755-.186a.608.608 0 00.16-.276c.043-.166.023-.333.028-.5.011-.365-.03-.855.03-1.203a1.943 1.943 0 011.217-1.478c.008-.38.003-.79.003-1.17-.001-.374.025-.93-.061-1.272a1.86 1.86 0 00-.469-.84c-.316-.327-.799-.564-1.256-.565-.649-.001-1.317-.021-1.964-.005-.544.023-1 .191-1.377.598a1.85 1.85 0 00-.45.853c-.058.256-.047.49-.049.748-.006.931.01 1.865 0 2.795zM17.498 15l.002-3.217.001-.719c0-.175.012-.46-.032-.622a.562.562 0 00-.147-.249.607.607 0 00-.883.007c-.21.21-.186.463-.19.737-.003.345.012.7-.004 1.045a1.882 1.882 0 01-1.846 1.77c-.687.004-1.372.002-2.06.002H6.455c-.29 0-.869.016-1.134-.028a1.887 1.887 0 01-.989-.493c-.657-.616-.589-1.329-.58-2.147.002-.18.013-.451-.037-.62a.663.663 0 00-.185-.295.587.587 0 00-.494-.157.593.593 0 00-.526.541c-.014.171-.009.344-.009.516v3.928L17.498 15zM3.751 8.856c.528.23.896.57 1.109 1.116.02.053.038.106.055.16.12-.036.3-.093.419-.108.266-.035.56-.025.83-.025h1.224c.652 0 1.336.012 1.985 0l.002-2.094V7.25c0-.281.01-.545-.056-.821a1.86 1.86 0 00-.487-.87c-.404-.41-.893-.567-1.454-.557-.576.011-1.182-.014-1.756.002-.542.023-.997.19-1.373.596a1.849 1.849 0 00-.442.823c-.078.316-.057.784-.057 1.123v1.31z"/></svg><svg viewBox="0 0 20 20" id="home" xmlns="http://www.w3.org/2000/svg"><path d="M2.5 7.916L10 3.333l7.5 4.583"/><path d="M2.5 7.916L10 3.333l7.5 4.583M15.833 10.833v5.333a.5.5 0 01-.5.5H4.667a.5.5 0 01-.5-.5v-5.333"/><path d="M15.833 10.833v5.333a.5.5 0 01-.5.5H4.667a.5.5 0 01-.5-.5v-5.333M8.333 13.333h3.334"/></svg><svg viewBox="0 0 20 20" id="kab" xmlns="http://www.w3.org/2000/svg"><path d="M1.826 1.253l.117-.003H10.345c.115 0 .232-.002.348.007a.618.618 0 01.546.524c.02.189.012.388.012.58v4.377c0 .068.001.136-.007.202-.045.353-.322.567-.672.563-.756-.008-1.515.01-2.27 0 .016.057.03.118.044.175.084.354.183.707.263 1.062.119.016.39.01.519.01h7.053c.252 0 .603-.01.847.009.178.013.354.053.521.117a1.87 1.87 0 011.076 2.413c-.216.554-.592.868-1.12 1.101-.012.143-.005.371-.005.521v4.772c0 .18.009.366-.014.544a.618.618 0 01-1.057.334.58.58 0 01-.167-.322c-.02-.243-.012-.5-.012-.744v-4.17c0-.466-.001-.933.001-1.398 0-.064.014-.205.033-.262a.613.613 0 01.437-.394c.077-.016.16-.022.238-.033.312-.045.539-.3.538-.617a.625.625 0 00-.185-.44.553.553 0 00-.367-.168c-.147-.014-.29-.01-.438-.01H3.53c-.16 0-.318-.004-.478.009a.605.605 0 00-.546.544.612.612 0 00.134.46.613.613 0 00.375.22c.157.025.643.014.832.014H14.067c.311 0 .582-.032.796.238a.622.622 0 01-.487 1.012 63.78 63.78 0 01-.77.003H4.22c-.125.002-.351.01-.47-.004v3.948l.001 1.14c0 .193.014.41-.008.6-.083.721-1.096.755-1.23.05-.032-.167-.013-.455-.013-.63v-1.142L2.5 12.392c-.268-.122-.458-.213-.675-.424a1.864 1.864 0 01-.572-1.322 1.887 1.887 0 01.549-1.354c.62-.623 1.29-.544 2.08-.542.045-.143.084-.317.12-.464l.197-.782H2.592c-.27 0-.57.011-.838-.016-.213-.022-.473-.275-.491-.49-.022-.25-.013-.523-.013-.778V2.15c0-.108-.006-.233.006-.338.037-.327.255-.517.57-.558zM2.5 6.248l5.7.002h1.294c.066 0 .455.005.498-.007l.005-.006c.025-1.24-.023-2.492.005-3.73-.66-.009-1.33-.004-1.99-.004H3.16c-.147 0-.544.012-.658-.005-.02 1.242.01 2.506-.002 3.75zm2.987 1.257l-.206.826c-.026.104-.073.322-.109.417l1.669.002h.485a7.23 7.23 0 01-.139-.539c-.048-.208-.134-.498-.167-.7a3.449 3.449 0 00-.374-.008c-.329.004-.66-.006-.989.002-.059.001-.11.002-.17 0z"/></svg><svg viewBox="0 0 20 20" id="kitchen" xmlns="http://www.w3.org/2000/svg"><path d="M11.154 7.504a1.872 1.872 0 011.97 1.838.63.63 0 01-.632.658.62.62 0 01-.592-.458c-.018-.068-.027-.167-.035-.238-.075-.683-1.05-.741-1.217-.09-.046.178-.023.562-.023.763v1.271l5.252.002h1.51c.208 0 .61-.012.8.007a.616.616 0 01.557.687.62.62 0 01-.248.43c-.193.156-.412.126-.646.131-.1.002-.252.006-.35-.006v3.9l.001 1.16c0 .207.004.412-.007.62a.633.633 0 01-.524.564c-.14.017-.318.01-.461.01H4.25c-.365 0-.73.002-1.096-.001-.335-.002-.59-.205-.649-.54-.025-.291-.006-.677-.006-.974v-2.449c0-.167-.01-.362.013-.524a.605.605 0 01.606-.512.624.624 0 01.447.181c.224.223.185.493.185.785v2.779l5.622.001c.016-1.66-.017-3.334.004-4.993-.646-.008-1.303-.003-1.95-.003H2.563c-.25 0-.522.014-.768-.009-.305-.028-.542-.31-.543-.61a.637.637 0 01.19-.462c.172-.17.355-.172.585-.173h7.346c.008-.531-.002-1.064.002-1.596.002-.248-.005-.474.053-.72.072-.296.215-.57.415-.8.337-.389.802-.594 1.31-.629zm-.529 9.994l4.252.002c.155 0 1.3.015 1.367-.009l.003-.004c.01-.449.003-.915.003-1.365v-2.454c0-.382-.006-.782.002-1.162-1.338-.016-2.7-.003-4.04-.003h-1.085c-.113.001-.408.01-.5-.005-.003.434-.004.867-.002 1.301 0 1.226.013 2.475 0 3.7z"/><path d="M12.437 14.379a.624.624 0 11.124 1.242.624.624 0 01-.124-1.242zM1.826 1.253c.36-.014.773-.004 1.14-.004H17.408c.248 0 .507-.007.753.005.342.016.59.302.59.64v3.29c0 .17.013.38-.014.545-.05.324-.331.523-.645.523H16.85l-2.469.001h-1.794c-.207 0-.362-.03-.518-.177a.627.627 0 01-.005-.901.562.562 0 01.252-.148c.154-.04.471-.028.64-.028h4.542c.01-.83-.007-1.664.004-2.493-1.607-.02-3.247-.003-4.857-.003h-1.358c-.157 0-.522.013-.661-.004v2.799c0 .225.028.478-.108.672-.216.31-.474.283-.81.283H2.46c-.206.001-.41.003-.617-.004-.271-.009-.556-.241-.583-.517-.02-.21-.011-.448-.01-.662V2.51l-.001-.246c-.002-.348-.046-.725.304-.93a.638.638 0 01.272-.082zm7.546 3.734c.015-.7-.005-1.406.003-2.107.002-.124-.002-.25.002-.374-1.632-.019-3.294-.003-4.928-.003h-1.32c-.143 0-.513.012-.627-.005-.012.83.007 1.67-.002 2.5L7.743 5H8.9c.067 0 .423.005.466-.007l.005-.006zM7.437 14.379a.624.624 0 11.124 1.242.624.624 0 01-.124-1.242z"/></svg><svg viewBox="0 0 20 20" id="komod" xmlns="http://www.w3.org/2000/svg"><path d="M3.525 1.254c.25-.009.516-.005.767-.005H15.48l.866.001c.452 0 .86.138 1.214.425.386.314.63.77.677 1.265.017.164.013.341.013.506V5.086c0 .767.031 1.157-.49 1.792.272.295.44.671.477 1.07.018.172.013.369.013.544V10.12c0 .76.022 1.132-.49 1.758a1.856 1.856 0 01.47 1.015c.025.205.02.412.02.618v1.694c0 .197.005.41-.014.604a1.778 1.778 0 01-.112.479c-.211.553-.596.87-1.12 1.102-.028.356.076.846-.138 1.117a.619.619 0 01-.878.107.585.585 0 01-.235-.434c-.01-.204-.004-.468-.002-.674-.648-.008-1.308-.003-1.957-.003H4.942c-.165 0-.547.014-.691-.004v.408c.003.255.01.458-.18.652a.617.617 0 01-.89.005c-.212-.21-.182-.453-.181-.726l-.001-.446c-.24-.11-.396-.18-.601-.357a1.856 1.856 0 01-.642-1.29c-.022-.343-.005-.857-.006-1.21v-.89c0-.325-.018-.665.06-.979.046-.187.12-.343.212-.506.014-.037.21-.269.193-.29-.243-.325-.422-.652-.455-1.065-.015-.192-.01-.384-.01-.575V8.517c0-.483-.003-.939.274-1.36.249-.378.248-.178.026-.52a1.883 1.883 0 01-.293-.872c-.01-.155-.007-.33-.007-.486V3.6c0-.29-.014-.619.049-.898.07-.305.216-.588.424-.824.337-.386.796-.588 1.302-.624zm12.843 14.994c.319-.024.56-.193.619-.528.025-.145.014-.32.014-.47v-1.642c0-.418.068-.99-.516-1.09-.19-.033-.448-.016-.645-.016l-1.054.001H7.247c-.284 0-1.127.034-1.345-.044a.625.625 0 01-.253-.992c.137-.163.297-.212.503-.216.168-.003.337-.002.506-.002h8.336l.915.001c.28 0 .61.046.841-.132.292-.224.25-.525.25-.852V8.605c0-.152.007-.395-.007-.54a.627.627 0 00-.223-.422c-.185-.152-.344-.115-.547-.165a.608.608 0 01-.467-.523.648.648 0 01.14-.484c.24-.295.491-.157.776-.301a.637.637 0 00.296-.36c.05-.202.032-.516.033-.732V3.52c0-.328.045-.653-.235-.88-.215-.175-.546-.138-.807-.138h-.731l-2.294.001H4.251c-.19 0-.415-.005-.604.001-.109.008-.196.013-.295.06-.396.188-.353.571-.352.934l.001.8-.001.89c0 .32-.057.68.221.91.248.205.596.152.905.152h8.642c.278 0 1.11-.032 1.317.039a.617.617 0 01.27.982.612.612 0 01-.453.228c-.19.008-.388.005-.579.005H5.04l-.936-.002c-.393 0-.874-.07-1.056.385-.066.164-.048.4-.048.578v1.653c0 .18-.003.367.004.544a.6.6 0 00.214.434c.185.16.347.133.559.178a.613.613 0 01.47.562.6.6 0 01-.15.443c-.275.328-.567.134-.864.357a.624.624 0 00-.21.33c-.034.177-.023.407-.023.59l.001.856v.799c-.001.145-.003.29.001.434.009.32.264.582.583.6.128.006.252.005.38.005h10.423c.655 0 1.327.007 1.98-.002z"/><path d="M9.326 13.753c.364-.015.737.003 1.102-.004.214-.004.397-.003.575.13a.619.619 0 01.119.869.62.62 0 01-.443.25c-.334.013-.672.002-1.007.006-.129.002-.293.007-.418-.018A.604.604 0 019 14.873a.592.592 0 01-.242-.4.645.645 0 01.128-.489c.119-.152.254-.207.44-.23zM9.326 8.753c.364-.015.737.003 1.102-.004.206-.004.389-.004.563.122a.62.62 0 01.133.874.62.62 0 01-.445.253c-.335.013-.675.002-1.011.006-.128.002-.29.006-.414-.018A.605.605 0 019 9.873a.592.592 0 01-.242-.4.645.645 0 01.128-.489c.119-.152.254-.207.44-.23zM9.326 3.753c.364-.015.737.003 1.102-.004.214-.004.397-.003.575.13a.619.619 0 01.119.869.62.62 0 01-.443.25c-.335.013-.675.002-1.011.006-.128.002-.29.006-.414-.018A.604.604 0 019 4.873a.592.592 0 01-.242-.4.645.645 0 01.128-.489c.119-.152.254-.207.44-.23z"/></svg><svg viewBox="0 0 20 20" id="krovat" xmlns="http://www.w3.org/2000/svg"><path d="M5.464 3.754c.094-.003.189-.005.283-.004H13.604c.448 0 .97-.025 1.4.064.598.124 1.147.42 1.578.852.528.526.85 1.224.907 1.968.021.249.012.576.012.831V8.86c.336.145.588.294.824.584.198.241.332.528.39.834.05.273.036.693.036.986V13.825c0 .204.006.416-.008.618a.629.629 0 01-.456.536c-.14.037-.294.023-.436.027-.11.002-.242.007-.35-.006v.407c.001.255.01.463-.184.658a.618.618 0 01-.895-.01c-.191-.197-.174-.402-.173-.655l.003-.393c-.887-.01-1.789-.003-2.677-.003H6.651l-.667.001c-.134 0-.266.002-.399-.007a.618.618 0 01-.583-.643.611.611 0 01.554-.597c.254-.017.534-.008.794-.008h11.148c.008-.713.002-1.437.002-2.151l.001-.638c0-.273.031-.547-.172-.761-.162-.17-.332-.196-.56-.196H3.654c-.33-.001-.738-.061-.98.19-.204.21-.175.47-.174.737l.001.598v2.22l.389.001c.249.001.48-.01.675.18.144.142.184.328.186.524v.662c0 .175.013.514-.025.666a.618.618 0 01-1.055.272c-.186-.191-.173-.393-.172-.64l.003-.406C2.29 15 2.073 15.01 1.86 15a.623.623 0 01-.607-.6c-.004-.251-.003-.5-.003-.75V11.15c0-.204-.007-.477.01-.678.013-.196.06-.388.138-.57.227-.525.578-.83 1.1-1.038.01-.478-.003-.967.002-1.445.003-.282-.01-.569.016-.848.063-.649.327-1.26.754-1.752.57-.656 1.334-1.006 2.194-1.065zM4.489 8.75c-.165-.376-.134-.923.013-1.303A1.858 1.858 0 015.984 6.27c.248-.035.649-.02.914-.02.235-.002.619-.01.84.017a1.876 1.876 0 011.489 1.13c.174.418.201.927.031 1.35.494.004.987.005 1.48.003-.16-.37-.138-.948.02-1.316.225-.528.535-.825 1.047-1.053.136-.047.3-.1.444-.113.466-.04.941-.01 1.409-.018.128-.003.268.006.393.026A1.871 1.871 0 0115.52 7.51c.132.38.145.861-.012 1.237.247.002.494.003.74.001l.003-1.169c0-.358.022-.836-.062-1.169a1.855 1.855 0 00-.485-.854c-.44-.444-.904-.553-1.502-.554H6.637c-.327 0-.685-.007-1.01.001-.544.022-1.001.191-1.378.597-.219.236-.373.525-.446.839-.071.3-.053.71-.053 1.029v1.28c.244 0 .496.004.739.001zm3.004-.002c.204-.016.344-.065.481-.225a.614.614 0 00-.076-.876c-.185-.153-.398-.148-.626-.145-.332.005-.67-.008-1 .002-.21.016-.356.05-.499.218a.629.629 0 00-.144.468.607.607 0 00.228.418c.073.06.16.1.252.121.092.02.193.023.288.022.365-.004.731.004 1.096-.003zm6.25 0c.203-.016.342-.064.479-.222a.607.607 0 00.148-.45.614.614 0 00-.214-.423c-.183-.155-.39-.154-.616-.15-.337.005-.681-.009-1.018.001-.21.016-.356.05-.499.218a.63.63 0 00-.144.468.606.606 0 00.228.418c.073.06.16.1.252.121.092.02.193.023.288.022.365-.004.732.004 1.096-.003z"/></svg><svg viewBox="0 0 16 16" id="mail" xmlns="http://www.w3.org/2000/svg"><path d="M4.666 6l3.333 2.333L11.333 6"/><path d="M1.334 11.333V4.667c0-.737.597-1.334 1.333-1.334h10.667c.736 0 1.333.597 1.333 1.334v6.666c0 .737-.597 1.334-1.333 1.334H2.667a1.333 1.333 0 01-1.333-1.334z"/></svg><svg viewBox="0 0 16 16" id="message" xmlns="http://www.w3.org/2000/svg"><g clip-path="url(#axclip0_10_5769)"><path d="M5.333 6.667h5.334M5.333 9.333H8M8 14.667a6.667 6.667 0 10-5.775-3.334l-.558 3 3-.558c.98.567 2.119.892 3.333.892z"/></g><defs><clipPath id="axclip0_10_5769"><path d="M0 0h16v16H0z"/></clipPath></defs></svg><svg viewBox="0 0 20 20" id="money" xmlns="http://www.w3.org/2000/svg"><path d="M.833 13.333v-10h15"/><path d="M10 16.667v-10m3.334 0h5.333a.5.5 0 01.5.5v9a.5.5 0 01-.5.5h-5.333v-10zm0 0v10-10zm0 0H10h3.334zm0 10H10h3.334zm-3.334 0H4.667a.5.5 0 01-.5-.5v-9a.5.5 0 01.5-.5H10v10z"/></svg><svg viewBox="0 0 20 20" id="nav-arrow-next" xmlns="http://www.w3.org/2000/svg"><path d="M7.5 5l5 5-5 5"/></svg><svg viewBox="0 0 20 20" id="nav-arrow-prev" xmlns="http://www.w3.org/2000/svg"><path d="M12.5 5l-5 5 5 5"/></svg><svg viewBox="0 0 20 20" id="office" xmlns="http://www.w3.org/2000/svg"><path d="M1.826 1.253l.117-.003H10.345c.115 0 .232-.002.348.007a.618.618 0 01.546.524c.02.189.012.388.012.58v4.377c0 .068.001.136-.007.202-.045.353-.322.567-.672.563-.756-.008-1.515.01-2.27 0 .016.057.03.118.044.175.084.354.183.707.263 1.062.119.017.39.01.519.01h7.053c.252 0 .603-.01.847.009.178.013.354.053.521.117a1.87 1.87 0 011.076 2.413c-.216.554-.592.868-1.12 1.101-.012.143-.005.371-.005.521v4.772c0 .18.009.366-.014.544a.618.618 0 01-1.057.334.58.58 0 01-.167-.322c-.02-.243-.012-.5-.012-.744v-4.17c0-.466-.001-.933.001-1.398 0-.064.014-.205.033-.262a.613.613 0 01.437-.394c.077-.016.16-.022.238-.033.312-.045.539-.3.538-.617a.625.625 0 00-.185-.439.553.553 0 00-.367-.169c-.147-.014-.29-.01-.438-.01H3.53c-.16 0-.318-.004-.478.009a.605.605 0 00-.546.544.613.613 0 00.134.46.613.613 0 00.375.22c.157.025.643.014.832.014H14.067c.311 0 .582-.032.796.238a.622.622 0 01-.487 1.012c-.257.003-.513.004-.77.004H4.22c-.125 0-.351.01-.47-.005v3.948l.001 1.14c0 .193.014.41-.008.6-.083.721-1.096.755-1.23.05-.032-.167-.013-.455-.013-.63v-1.142L2.5 12.392c-.268-.122-.458-.213-.675-.424a1.863 1.863 0 01-.572-1.322 1.887 1.887 0 01.549-1.354c.62-.622 1.29-.543 2.08-.542.045-.143.084-.317.12-.464l.197-.782H2.592c-.27 0-.57.011-.838-.016-.213-.022-.473-.274-.491-.49-.022-.25-.013-.523-.013-.777V2.149c0-.108-.006-.233.006-.338.037-.327.255-.517.57-.558zM2.5 6.248l5.7.002h1.294c.066 0 .455.005.498-.007l.005-.006c.025-1.24-.023-2.492.005-3.73-.66-.009-1.33-.004-1.99-.004H3.16c-.147 0-.544.012-.658-.005-.02 1.242.01 2.506-.002 3.75zm2.987 1.257l-.206.826c-.026.104-.073.322-.109.417l1.669.002h.485a7.23 7.23 0 01-.139-.539c-.048-.208-.134-.498-.167-.7a3.454 3.454 0 00-.374-.008c-.329.004-.66-.006-.989.002-.059.001-.11.002-.17 0z"/></svg><svg viewBox="0 0 16 16" id="phone" xmlns="http://www.w3.org/2000/svg"><path d="M12.08 9.801l-2.746.532c-1.854-.93-3-2-3.666-3.666l.513-2.754-.97-2.58H2.71c-.752 0-1.344.622-1.231 1.365.28 1.855 1.106 5.22 3.522 7.635 2.537 2.537 6.19 3.638 8.201 4.075.777.17 1.466-.436 1.466-1.231v-2.39l-2.588-.986z"/></svg><svg viewBox="0 0 24 24" id="popular_sort" xmlns="http://www.w3.org/2000/svg"><path d="M8.587 8.236l2.598-5.232a.911.911 0 011.63 0l2.598 5.232 5.808.844a.902.902 0 01.503 1.542l-4.202 4.07.992 5.75c.127.738-.653 1.3-1.32.952L12 18.678l-5.195 2.716c-.666.349-1.446-.214-1.319-.953l.992-5.75-4.202-4.07a.902.902 0 01.503-1.54l5.808-.845z"/></svg><svg viewBox="0 0 24 24" id="price_sort" xmlns="http://www.w3.org/2000/svg"><path d="M1 16V4h18"/><path d="M12 20V8m4 0h6.4a.6.6 0 01.6.6v10.8a.6.6 0 01-.6.6H16V8zm0 0v12V8zm0 0h-4 4zm0 12h-4 4zm-4 0H5.6a.6.6 0 01-.6-.6V8.6a.6.6 0 01.6-.6H12v12z"/></svg><svg viewBox="0 0 20 20" id="prihozh" xmlns="http://www.w3.org/2000/svg"><path d="M3.025 1.254c.295-.016.692-.005.992-.004H16.354c.68 0 1.156-.031 1.72.435.386.32.627.784.667 1.284.022.248.01.647.01.902V16.296c0 .223.01.571-.015.784-.04.37-.19.72-.432 1.005-.337.4-.794.62-1.311.663-.367.013-.77.005-1.138.005H3.589c-.214 0-.495.008-.702-.018a1.863 1.863 0 01-.98-.436 1.85 1.85 0 01-.649-1.269c-.02-.266-.008-.677-.008-.951V3.652c0-.232-.01-.548.018-.772.048-.372.206-.721.455-1.002.337-.386.796-.588 1.302-.624zM8.755 17.5c.203 0 .416.003.618 0l.002-10.514V4.04c0-.497-.011-1.042.002-1.534-1.234-.015-2.493-.003-3.728-.003H4.013c-.28 0-.587-.006-.865.001-.214.016-.345.048-.498.212a.645.645 0 00-.147.375c-.005.272-.002.552-.002.825v12.298c0 .24-.006.487.005.726.012.266.264.522.527.549.203.02.44.011.647.011H8.755zm1.872-15.002c-.007.417.003.834-.002 1.25l4.494.002h1.571c.246 0 .57.01.808-.002l.003-.39c.001-.256.01-.471-.182-.67-.18-.185-.383-.185-.629-.186l-4.337.001h-1.175c-.118 0-.458.01-.55-.005zm4.374 2.5c0 .684.064 1.345-.413 1.902-.163.19-.39.431-.578.596.386.017.781-.006 1.168.003.331.008.658-.064.907.207.112.12.171.282.163.447-.014.261-.214.53-.483.583-.155.031-.388.017-.55.017h-2.079c-.21 0-.43-.003-.637-.004a.624.624 0 01-.527-.956c.106-.166.351-.384.498-.53l.851-.85c.1-.1.342-.321.381-.446.082-.262.041-.672.05-.96-.731-.01-1.472-.005-2.204-.004l-.584.001c-.092 0-.251.008-.337-.006-.015.987-.002 2.006-.002 2.994v7.006l3.591.002h.983c.123 0 .414-.007.52.01.134.02.257.083.352.178.116.12.18.281.176.447a.587.587 0 01-.2.445c-.064.062-.194.146-.282.155-.245.028-.52.018-.768.018h-4.008c-.113 0-.255.011-.363-.004v1.25h4.354l1.3.001c.172 0 .535.01.685-.011a.603.603 0 00.345-.174.623.623 0 00.163-.27c.042-.232.028-.5.028-.736V6.202c0-.384-.01-.814.001-1.196-.578-.004-1.157-.005-1.735-.003l-.452.002c-.096 0-.222.006-.314-.006z"/><path d="M7.449 8.753c.327-.02.632.205.667.541.02.194.015.455.01.652-.007.23.025.573-.015.793a.622.622 0 01-.553.51c-.325.014-.637-.191-.674-.535a5.593 5.593 0 01-.008-.66c.006-.232-.027-.587.016-.807a.624.624 0 01.118-.263c.117-.151.255-.206.439-.23z"/></svg><svg viewBox="0 0 24 24" id="product_type" xmlns="http://www.w3.org/2000/svg"><path d="M2 16v3M12 13V7a2 2 0 012-2h4a2 2 0 012 2v2M12 13V7a2 2 0 00-2-2H6a2 2 0 00-2 2v2"/><path d="M20 9a2 2 0 00-2 2v2H6v-2a2 2 0 10-4 0v6h20v-6a2 2 0 00-2-2zM22 16v3"/></svg><svg viewBox="0 0 24 24" id="remove" xmlns="http://www.w3.org/2000/svg"><path d="M16 8l-8 8M8 8l8 8"/></svg><svg viewBox="0 0 20 20" id="room" xmlns="http://www.w3.org/2000/svg"><path d="M5.464 3.754c.094-.003.189-.005.283-.004H13.604c.448 0 .97-.025 1.4.064.598.124 1.147.42 1.578.852.528.526.85 1.224.907 1.968.021.249.012.576.012.831V8.86c.336.145.588.294.824.584.198.241.332.528.39.834.05.273.036.693.036.986V13.825c0 .204.006.416-.008.618a.629.629 0 01-.456.536c-.14.037-.294.023-.436.027-.11.002-.242.007-.35-.006v.407c.001.255.01.463-.184.658a.618.618 0 01-.895-.01c-.191-.197-.174-.402-.173-.655l.003-.393c-.887-.01-1.789-.003-2.677-.003H6.651l-.667.001c-.134 0-.266.002-.399-.007a.618.618 0 01-.583-.643.611.611 0 01.554-.597c.254-.017.534-.008.794-.008h11.148c.008-.713.002-1.437.002-2.151l.001-.638c0-.273.031-.547-.172-.761-.162-.17-.332-.196-.56-.196H3.654c-.33-.001-.738-.061-.98.19-.204.21-.175.47-.174.737l.001.598v2.22l.389.001c.249.001.48-.01.675.18.144.142.184.328.186.524v.662c0 .175.013.514-.025.666a.618.618 0 01-1.055.272c-.186-.191-.173-.393-.172-.64l.003-.406C2.29 15 2.073 15.01 1.86 15a.623.623 0 01-.607-.6c-.004-.251-.003-.5-.003-.75V11.15c0-.204-.007-.477.01-.678.013-.196.06-.388.138-.57.227-.525.578-.83 1.1-1.038.01-.478-.003-.967.002-1.445.003-.282-.01-.569.016-.848.063-.649.327-1.26.754-1.752.57-.656 1.334-1.006 2.194-1.065zM4.489 8.75c-.165-.376-.134-.923.013-1.303A1.858 1.858 0 015.984 6.27c.248-.035.649-.02.914-.02.235-.002.619-.01.84.017a1.876 1.876 0 011.489 1.13c.174.418.201.927.031 1.35.494.004.987.005 1.48.003-.16-.37-.138-.948.02-1.316.225-.528.535-.825 1.047-1.053.136-.047.3-.1.444-.113.466-.04.941-.01 1.409-.018.128-.003.268.006.393.026A1.871 1.871 0 0115.52 7.51c.132.38.145.861-.012 1.237.247.002.494.003.74.001l.003-1.169c0-.358.022-.836-.062-1.169a1.855 1.855 0 00-.485-.854c-.44-.444-.904-.553-1.502-.554H6.637c-.327 0-.685-.007-1.01.001-.544.022-1.001.191-1.378.597-.219.236-.373.525-.446.839-.071.3-.053.71-.053 1.029v1.28c.244 0 .496.004.739.001zm3.004-.002c.204-.016.344-.065.481-.225a.614.614 0 00-.076-.876c-.185-.153-.398-.148-.626-.145-.332.005-.67-.008-1 .002-.21.016-.356.05-.499.218a.629.629 0 00-.144.468.607.607 0 00.228.418c.073.06.16.1.252.121.092.02.193.023.288.022.365-.004.731.004 1.096-.003zm6.25 0c.203-.016.342-.064.479-.222a.607.607 0 00.148-.45.614.614 0 00-.214-.423c-.183-.155-.39-.154-.616-.15-.337.005-.681-.009-1.018.001-.21.016-.356.05-.499.218a.63.63 0 00-.144.468.606.606 0 00.228.418c.073.06.16.1.252.121.092.02.193.023.288.022.365-.004.732.004 1.096-.003z"/></svg><svg viewBox="0 0 24 24" id="room_type" xmlns="http://www.w3.org/2000/svg"><path d="M18 12h2.4a.6.6 0 01.6.6v7.8a.6.6 0 01-.6.6H15"/><path d="M14 3h7v17.4a.6.6 0 01-.6.6H3.6a.6.6 0 01-.6-.6V3.6a.6.6 0 01.6-.6H8l3.33 2.5M11 12v9M8 12h5"/></svg><svg viewBox="0 0 24 24" id="rooms" xmlns="http://www.w3.org/2000/svg"><path d="M18 12h2.4a.6.6 0 01.6.6v7.8a.6.6 0 01-.6.6H15"/><path d="M14 3h7v17.4a.6.6 0 01-.6.6H3.6a.6.6 0 01-.6-.6V3.6a.6.6 0 01.6-.6H8l3.33 2.5M11 12v9M8 12h5"/></svg><svg viewBox="0 0 20 20" id="search" xmlns="http://www.w3.org/2000/svg"><path d="M12.917 12.916l2.916 2.917zM12.917 12.916l2.916 2.917M4.167 9.166a5 5 0 1010 0 5 5 0 00-10 0z"/></svg><svg viewBox="0 0 20 20" id="share" xmlns="http://www.w3.org/2000/svg"><path d="M17.326 10.506c.204-.174.305-.261.343-.365a.417.417 0 000-.282c-.038-.104-.14-.19-.343-.365l-7.059-6.05c-.35-.3-.525-.45-.673-.455a.417.417 0 00-.334.154c-.093.115-.093.345-.093.806v3.58a8.055 8.055 0 00-6.667 7.93v.51a9.5 9.5 0 016.667-3.41v3.492c0 .46 0 .691.093.806.082.1.205.157.334.154.148-.004.323-.154.673-.454l7.06-6.05z"/></svg><svg viewBox="0 0 20 20" id="shkaf" xmlns="http://www.w3.org/2000/svg"><path d="M3.025 1.254c.298-.016.7-.005 1.003-.005h12.347c.673 0 1.141-.025 1.7.436.385.32.626.784.666 1.284.022.248.01.649.01.905v12.422c0 .223.01.571-.015.784-.04.37-.19.72-.432 1.005-.337.4-.794.62-1.311.663-.366.013-.766.005-1.133.005H3.589c-.214 0-.495.008-.702-.018a1.862 1.862 0 01-.98-.436 1.85 1.85 0 01-.65-1.269c-.02-.27-.007-.687-.007-.964V3.643c0-.229-.009-.542.018-.763.048-.372.206-.72.455-1.002.337-.386.796-.588 1.302-.624zm7.6 16.244l1.245.002h4.539c.184 0 .397.01.577-.015.258-.034.492-.293.507-.552.01-.178.008-.357.008-.534V3.25c-.003-.237-.019-.394-.192-.57-.218-.221-.549-.178-.837-.178l-.763.001h-4.603c-.111.001-.387.01-.479-.005-.003.432-.003.864-.002 1.297v9.953l3.57.002h.99c.304 0 .648-.05.882.184.117.118.182.28.18.447-.004.262-.198.547-.47.603-.182.037-.482.02-.674.02h-3.366c-.346 0-.693-.002-1.039.002a.567.567 0 01-.072-.007v2.499zM2.5 13.748l6.255.002c.203 0 .416.003.618 0l.002-7.86V3.685c0-.38-.008-.802.002-1.179-1.235-.015-2.494-.003-3.73-.003H4.011c-.28 0-.587-.006-.865.001-.345.026-.597.184-.64.56-.016.138-.007.29-.007.431v10.253zm6.872 3.74c.017-.819-.018-1.67.005-2.482-1.635-.02-3.303-.003-4.94-.003H3.123c-.14 0-.508.012-.622-.005-.006.435 0 .878-.002 1.313 0 .151-.008.584.016.701.025.11.08.212.159.293.247.25.585.195.923.195h5.084c.073 0 .665.009.69-.013z"/><path d="M12.449 6.878c.327-.02.632.204.667.541.02.192.016.452.01.646-.008.234.026.577-.015.8a.621.621 0 01-.553.51c-.325.013-.637-.192-.674-.536a5.598 5.598 0 01-.008-.66c.006-.232-.027-.587.016-.807a.625.625 0 01.118-.263c.117-.151.255-.206.439-.23zM7.449 6.878c.327-.02.632.204.667.541.02.194.015.455.01.652-.007.23.025.573-.015.793a.621.621 0 01-.553.51c-.325.014-.637-.191-.674-.535a5.594 5.594 0 01-.008-.66c.006-.232-.027-.587.016-.807a.624.624 0 01.118-.263c.117-.151.255-.206.439-.23z"/></svg><svg viewBox="0 0 20 20" id="shops" xmlns="http://www.w3.org/2000/svg"><path d="M2.5 7.5v8.333c0 .92.746 1.667 1.667 1.667h11.666c.92 0 1.667-.746 1.667-1.667V7.5"/><path d="M2.5 7.5v8.333c0 .92.746 1.667 1.667 1.667h11.666c.92 0 1.667-.746 1.667-1.667V7.5"/><path d="M17.07 2.5h-3.326l.417 4.167s.833.833 2.083.833a2.69 2.69 0 001.782-.672.419.419 0 00.125-.387l-.587-3.523a.5.5 0 00-.493-.418z"/><path d="M13.744 2.5l.417 4.167s-.833.833-2.083.833c-1.25 0-2.084-.833-2.084-.833V2.5h3.75zM9.994 2.5v4.167s-.833.833-2.083.833c-1.25 0-2.083-.833-2.083-.833L6.244 2.5h3.75z"/><path d="M6.245 2.5H2.918a.5.5 0 00-.493.418L1.838 6.44a.419.419 0 00.125.387 2.69 2.69 0 001.781.672c1.25 0 2.084-.833 2.084-.833L6.245 2.5z"/></svg><svg viewBox="0 0 20 20" id="sort" xmlns="http://www.w3.org/2000/svg"><path d="M8.334 11.667H1.667M6.667 8.333h-5M5 5H1.667M10 15H1.667M15.833 3.333l-2.5 2.5m2.5 10.834V3.333v13.334zm0 0l2.5-2.5-2.5 2.5zm0 0l-2.5-2.5 2.5 2.5zm0-13.334l2.5 2.5-2.5-2.5z"/></svg><svg viewBox="0 0 20 20" id="star" xmlns="http://www.w3.org/2000/svg"><path d="M7.156 6.863l2.165-4.36a.76.76 0 011.359 0l2.164 4.36 4.84.704c.622.09.87.85.42 1.285l-3.502 3.391.826 4.792c.106.615-.543 1.084-1.099.793L10 15.565l-4.328 2.263c-.556.291-1.206-.178-1.1-.793l.827-4.792-3.502-3.391a.752.752 0 01.419-1.285l4.84-.704z"/></svg><svg viewBox="0 0 20 20" id="stel" xmlns="http://www.w3.org/2000/svg"><path d="M5.525 1.254c.255-.01.53-.005.786-.005h7.177c.279 0 .559.002.837 0a1.89 1.89 0 011.248.435c.386.32.627.782.668 1.282.022.255.01.642.01.909v12.423c0 .227.01.57-.015.785a1.86 1.86 0 01-.432 1.002c-.337.4-.794.62-1.311.663-.263.01-.538.005-.802.005H6.49c-.292 0-.884.016-1.146-.024a1.878 1.878 0 01-1.585-1.707c-.02-.273-.008-.677-.008-.957V3.649c0-.23-.009-.547.018-.769.048-.372.206-.72.455-1.002.337-.386.796-.588 1.302-.624zM5 7.498c.409.002.84.008 1.248.001l.002-1.264c0-.22-.007-.445.007-.663a.608.608 0 01.629-.57.624.624 0 01.444.197c.242.256.154.582.17.9.004.052 0 .11 0 .164v1.235c.409.002.84.008 1.248.001l.002-1.264c0-.22-.007-.445.007-.663a.608.608 0 01.629-.57.624.624 0 01.444.197c.242.256.154.582.17.9.004.052 0 .11 0 .164v1.235c.409.002.84.008 1.248.001l.002-1.254c0-.223-.007-.451.007-.673a.608.608 0 01.629-.57.624.624 0 01.444.197c.242.256.153.582.17.9.004.052 0 .11 0 .164v1.235h.38c.259 0 .483-.015.683.183a.62.62 0 01-.002.887c-.217.215-.434.184-.715.185H5.63c-.169 0-.47.018-.63-.004v4.999l.6.002c.625 0 1.277.01 1.898 0l.002-1.255c0-.223-.007-.451.007-.673a.608.608 0 01.629-.57.624.624 0 01.444.197c.242.256.154.582.17.9.004.052 0 .11 0 .164v1.235c.409.002.84.008 1.248.001L10 12.485c0-.22-.007-.445.007-.663a.608.608 0 01.629-.57.623.623 0 01.444.197c.242.256.154.582.17.9.004.052 0 .11 0 .164v1.235c.409.002.84.008 1.248.001l.002-1.254c0-.223-.007-.451.007-.673a.608.608 0 01.629-.57.624.624 0 01.444.197c.242.256.154.582.17.9.004.052 0 .11 0 .164v1.235c.409.002.84.008 1.248.001L15 6.44V3.504c.001-.14.006-.316-.009-.451a.61.61 0 00-.173-.365c-.18-.183-.372-.185-.613-.186l-5.542.001H6.685c-.336 0-.705-.008-1.038.001a.714.714 0 00-.334.081C4.94 2.792 5 3.18 5 3.545v3.953zm.002 7.5c-.006.434 0 .877-.002 1.311 0 .142-.008.578.014.693.023.116.08.223.164.306.242.246.576.192.908.192h7.97c.316-.002.517.037.76-.192.196-.22.18-.346.185-.626.008-.557-.013-1.12.001-1.676-.855-.01-1.722-.003-2.578-.003H5.847c-.168 0-.337 0-.506.002-.097 0-.247.007-.339-.007z"/></svg><svg viewBox="0 0 20 20" id="stol" xmlns="http://www.w3.org/2000/svg"><path d="M0 3.427c.027-.046.04-.087.063-.134a.548.548 0 01.357-.32c.191-.049.456-.033.66-.033l.768.001H19.062c.302 0 .586-.034.795.222.08.098.092.17.143.275v.194c-.023.057-.056.157-.084.207-.094.163-.239.334-.36.478a5.99 5.99 0 01-3.75 2.066c-.491.067-.863.057-1.354.057H11.37c-.222 0-.556.012-.767.003v4.504c0 .18.008.438-.003.61a7 7 0 00.4.005c.26-.003.501-.01.692.2a.598.598 0 01.15.447.598.598 0 01-.21.414c-.188.16-.374.15-.61.15l-.345-.001c.057.233.1.407.188.633a3.863 3.863 0 001.61 1.904 3.77 3.77 0 001.582.522c.19.017.45.004.622.076.17.072.296.22.34.399a.61.61 0 01-.072.469c-.218.35-.61.297-.964.264a5.061 5.061 0 01-2.256-.773 5.123 5.123 0 01-1.587-1.622c-.038-.062-.094-.162-.14-.213-.01.005-.341.516-.39.583a5.073 5.073 0 01-3.203 1.975c-.227.04-.445.056-.674.072-.298.022-.602-.066-.725-.367a.609.609 0 01.323-.797c.168-.06.411-.047.592-.065.126-.012.253-.03.377-.053a3.865 3.865 0 002.717-2.104 3.9 3.9 0 00.304-.904l-.364.001c-.23.004-.444-.005-.62-.172a.616.616 0 01-.003-.867c.187-.19.426-.173.674-.172l.386.002.001-5.12C8.37 6.43 7.321 6.44 6.294 6.44h-1.01c-.21 0-.422.003-.631-.01A6.022 6.022 0 01.107 3.887C.06 3.82.039 3.714 0 3.651v-.224zM17.358 4.6c.114-.07.236-.144.346-.22.108-.075.213-.158.323-.234-1.084.017-2.205.003-3.293.003H2.804c-.256 0-.544.006-.798-.004l.003.024a4.753 4.753 0 002.152.983c.45.082.873.078 1.327.078h9.118c.309 0 .617 0 .926-.034a4.788 4.788 0 001.826-.596z"/></svg><svg viewBox="0 0 20 20" id="stul" xmlns="http://www.w3.org/2000/svg"><path d="M7.413 2.504c.056-.003.12-.004.177-.004h4.444c.218 0 .52-.012.726.029.236.05.452.167.622.338.426.426.37.871.369 1.422v5.506c.226.076.512.26.68.425.387.383.564.84.57 1.379v.76c0 .17.008.373-.011.541-.029.24-.072.486-.11.726l-.218 1.37-.16 1.017c-.067.42-.086.797-.412 1.113-.306.295-.584.373-.997.378-.46.005-.814-.021-1.16-.365a1.245 1.245 0 01-.332-.58c-.056-.222-.038-.655-.038-.9v-1.21c-.002-.336-.001-.67.002-1.005-.727-.01-1.467-.003-2.195-.003h-.552c-.112.002-.272.008-.38-.005v1.927c0 .38.043 1.012-.092 1.35a1.267 1.267 0 01-.686.694c-.329.14-1.012.134-1.34-.003a1.26 1.26 0 01-.678-.683c-.076-.186-.131-.622-.165-.836l-.187-1.187-.188-1.18c-.034-.217-.088-.476-.098-.69-.015-.34.002-.694-.004-1.035-.003-.17 0-.355.025-.522.022-.155.065-.305.128-.448.221-.515.586-.823 1.095-1.028.008-.17.002-.373.002-.545V4.207c0-.195-.009-.489.02-.671.036-.214.127-.415.265-.582.234-.282.518-.414.878-.45zM7.5 9.685l3.775.002c.119 0 1.163.012 1.219-.008l.003-.004c.01-.534.003-1.091.003-1.626V5.13c0-.45-.007-.925.002-1.374-1.19-.014-2.402-.003-3.594-.003l-.947.001c-.107 0-.37.008-.459-.006-.03 1.975.02 3.961-.002 5.937zm-1.14 3.753c.057.492.168 1.08.247 1.578l.123.777c.02.128.043.309.071.43.064.005.349.034.385.014.012-.924-.016-1.874.004-2.793-.232-.003-.618.01-.83-.006zm6.453 2.81c.127 0 .259.004.385.002.018-.125.038-.25.059-.374l.385-2.432c-.229-.008-.458-.001-.687 0-.049 0-.092 0-.14-.008-.014.932.005 1.879-.002 2.813zm.297-4.06c.21-.001.43.002.638-.001l.003-.383c.001-.258.012-.479-.182-.678-.195-.199-.408-.184-.665-.186h-5.75c-.084 0-.172 0-.255.002-.148.01-.244.02-.374.104-.347.226-.267.627-.275.98v.16l6.86.001z"/></svg></svg>