<svg width="659" height="387" viewBox="0 0 659 387" fill="none" xmlns="http://www.w3.org/2000/svg">
<path d="M497.129 62.5135C499.212 61.7785 501.497 62.8714 502.232 64.9547L654.416 496.296C655.151 498.38 654.058 500.664 651.975 501.399L219.854 653.859C217.771 654.594 215.486 653.501 214.751 651.417L62.5664 220.076C61.8314 217.993 62.9244 215.708 65.0077 214.973L497.129 62.5135ZM532.096 2.67024C531.361 0.586958 529.077 -0.506035 526.993 0.22898L2.67029 185.219C0.587013 185.954 -0.505959 188.239 0.229056 190.322L184.886 713.702C185.621 715.785 187.906 716.878 189.989 716.143L714.312 531.153C716.396 530.418 717.489 528.134 716.754 526.05L532.096 2.67024Z" fill="#E2E6EA"/>
</svg>
