<svg width="166" height="154" viewBox="0 0 166 154" fill="none" xmlns="http://www.w3.org/2000/svg">
<path d="M167.244 23.4116C169.326 22.6736 171.607 23.7649 172.339 25.8493L222.439 168.518C223.171 170.602 222.076 172.89 219.994 173.628L77.7565 224.048C75.6743 224.787 73.393 223.695 72.661 221.611L22.5613 78.9423C21.8294 76.858 22.924 74.5699 25.0062 73.8318L167.244 23.4116ZM182.513 4.53128C181.781 2.44692 179.499 1.35556 177.417 2.09365L3.77013 63.6479C1.68794 64.386 0.59336 66.6741 1.32531 68.7584L62.4873 242.929C63.2192 245.013 65.5005 246.105 67.5827 245.366L241.23 183.812C243.312 183.074 244.407 180.786 243.675 178.702L182.513 4.53128Z" fill="#FE5A11"/>
<path d="M208.271 16.7288C210.48 16.7288 212.271 18.5196 212.271 20.7288V172.271C212.271 174.48 210.48 176.271 208.271 176.271H56.7288C54.5196 176.271 52.7288 174.48 52.7288 172.271V20.7288C52.7288 18.5196 54.5196 16.7288 56.7288 16.7288H208.271ZM229 4C229 1.79086 227.209 0 225 0H40C37.7909 0 36 1.79086 36 4V189C36 191.209 37.7909 193 40 193H225C227.209 193 229 191.209 229 189V4Z" fill="#FE5A11"/>
</svg>
