<svg width="41" height="40" viewBox="0 0 41 40" fill="none" xmlns="http://www.w3.org/2000/svg">
<path d="M36.6209 3.46711V36.5329H3.47546V3.46711H36.6209ZM40.0964 0H0V40H40.0964V0Z" fill="#2C2D2E"/>
<path d="M14.6081 11.0152C14.9915 11.6769 15.419 12.4853 15.8899 13.4416C16.3608 14.3986 16.8405 15.4034 17.3288 16.4557C17.8165 17.5085 18.3007 18.5787 18.7803 19.6657C19.2594 20.7532 19.7002 21.7575 20.101 22.6797C20.5019 21.7575 20.938 20.7532 21.409 19.6657C21.8799 18.5787 22.3595 17.5091 22.8472 16.4557C23.3355 15.4034 23.8151 14.3986 24.2861 13.4416C24.757 12.4853 25.1839 11.6763 25.5673 11.0152H28.5371C28.697 12.3374 28.8476 13.7421 28.9901 15.2295C29.132 16.7169 29.2606 18.2395 29.3759 19.7957C29.4911 21.3524 29.5977 22.9184 29.6956 24.4925C29.7935 26.0677 29.8775 27.6024 29.9493 29.0985H26.7056C26.6343 26.9934 26.5497 24.8276 26.4518 22.6012C26.354 20.3747 26.2074 18.2176 26.0122 16.1298C25.8199 16.5302 25.5934 17.0087 25.3316 17.5652C25.0704 18.1216 24.7906 18.7261 24.4952 19.3785C24.198 20.0309 23.8974 20.7052 23.5921 21.4009C23.2869 22.0967 22.9909 22.771 22.703 23.4234C22.4151 24.0758 22.1492 24.6849 21.9054 25.2494C21.6609 25.8152 21.4518 26.2977 21.2775 26.6981H18.8186C18.6442 26.2982 18.4351 25.8111 18.1913 25.2367C17.9462 24.6629 17.6809 24.0492 17.3931 23.3968C17.1058 22.7445 16.8086 22.0707 16.5039 21.375C16.1987 20.6792 15.8975 20.0095 15.6015 19.3652C15.3043 18.722 15.0257 18.1176 14.7645 17.5513C14.5032 16.9862 14.2762 16.5123 14.0844 16.1292C13.8886 18.217 13.7415 20.3741 13.6442 22.6006C13.5463 24.8276 13.4623 26.9934 13.3905 29.0979H10.1467C10.218 27.6019 10.3025 26.0538 10.4004 24.4532C10.4978 22.8525 10.6049 21.2652 10.7202 19.6911C10.8349 18.117 10.964 16.5903 11.1059 15.1116C11.2479 13.6329 11.3991 12.2674 11.5589 11.0146H14.6081V11.0152Z" fill="#FE5A11"/>
</svg>
