<svg width="48" height="48" viewBox="0 0 48 48" fill="none" xmlns="http://www.w3.org/2000/svg">
<path d="M29.2641 17.1278C29.3603 17.1723 30.6365 18.4797 30.8167 18.6598C30.3485 19.1524 29.8246 19.659 29.3419 20.1414L26.6926 22.7905L18.6036 30.8797C18.5291 30.8288 18.2278 30.5156 18.1518 30.441C17.7847 30.0815 17.4257 29.7002 17.0537 29.3469C17.169 29.194 17.4609 28.9152 17.6033 28.773L18.5775 27.7998L21.8873 24.4911L26.8402 19.5368L28.3997 17.977C28.6446 17.7323 29.0095 17.3468 29.2641 17.1278Z" fill="#E61C8B"/>
<path d="M28.504 25.433C30.3152 25.3175 31.8774 26.692 31.9933 28.5034C32.1092 30.3146 30.735 31.877 28.9236 31.9932C27.112 32.1095 25.549 30.7348 25.4331 28.923C25.3172 27.1112 26.6922 25.5487 28.504 25.433ZM28.8418 29.7982C29.444 29.7263 29.8724 29.178 29.7964 28.5764C29.7203 27.9748 29.169 27.5502 28.568 27.6304C27.9728 27.7098 27.5533 28.2546 27.6285 28.8503C27.7038 29.446 28.2457 29.8693 28.8418 29.7982Z" fill="#E61C8B"/>
<path d="M19.0776 16.0068C20.8889 15.8912 22.4511 17.2657 22.567 19.077C22.6829 20.8883 21.3086 22.4507 19.4974 22.5669C17.6856 22.6832 16.1227 21.3085 16.0068 19.4968C15.8909 17.685 17.2658 16.1224 19.0776 16.0068ZM19.4156 20.3719C20.0177 20.3 20.446 19.7516 20.37 19.1501C20.294 18.5485 19.7427 18.1239 19.1417 18.2041C18.5465 18.2835 18.1269 18.8283 18.2022 19.424C18.2775 20.0197 18.8194 20.443 19.4156 20.3719Z" fill="#E61C8B"/>
<rect x="8" y="8" width="32" height="32" rx="15" stroke="#E61C8B" stroke-width="2"/>
</svg>
