<svg width="48" height="48" viewBox="0 0 48 48" fill="none" xmlns="http://www.w3.org/2000/svg">
<path d="M9 9H39V39H9V9ZM10.7618 37.2324C11.2186 37.2167 11.7807 37.2318 12.2439 37.2319H15.2482H18.0826C18.5523 37.2319 19.1151 37.2177 19.5805 37.236C19.6051 36.0152 19.6141 35.278 18.9965 34.1525C17.9934 34.868 17.1123 35.292 15.8645 35.4374C15.5081 35.479 15.1113 35.4983 14.7565 35.4379C14.0513 35.3232 13.4221 34.9292 13.011 34.3447C12.6034 33.7661 12.4459 33.0476 12.5741 32.3514C12.6988 31.6548 13.0971 31.0371 13.6802 30.6363C14.4929 30.0816 15.4119 30.1106 16.3392 30.2865C17.3892 30.4854 18.145 30.8843 19.0002 31.4969C19.1353 31.2337 19.2369 31.0333 19.3356 30.7518C19.6513 29.8507 19.6662 28.8718 19.3782 27.9617C19.3618 27.9119 19.3444 27.8624 19.3262 27.8131C19.2324 27.5394 19.1277 27.3472 18.9997 27.0916C18.757 27.2626 18.5359 27.4213 18.2795 27.5719C17.4753 28.0469 16.5722 28.3293 15.6407 28.3972C15.3252 28.4174 15.0366 28.4249 14.7215 28.3718C14.0341 28.251 13.4221 27.8643 13.0177 27.2953C12.6089 26.7204 12.4479 26.0052 12.5709 25.3104C12.6924 24.6144 13.0856 23.995 13.664 23.5889C14.4713 23.029 15.3897 23.0529 16.3171 23.2234C17.369 23.4169 18.1457 23.8229 19.001 24.4384C19.1353 24.1731 19.2391 23.9685 19.3384 23.6846C19.6564 22.7716 19.6656 21.7794 19.3646 20.8606C19.2613 20.5461 19.1527 20.3223 18.9974 20.038C18.6677 20.2549 18.442 20.4218 18.0917 20.6183C17.1779 21.1311 15.6784 21.5141 14.6447 21.2992C13.953 21.1566 13.3467 20.7439 12.9603 20.1527C12.5748 19.5627 12.4414 18.8429 12.5896 18.1539C12.7335 17.4691 13.1435 16.8694 13.7294 16.4868C14.5741 15.9374 15.5365 16.0016 16.4818 16.1977C17.45 16.3987 18.2083 16.8056 19.0002 17.3799C19.4245 16.55 19.5943 15.9506 19.589 15.0043C19.5877 14.7824 19.6003 14.5271 19.5824 14.3066C17.4873 14.282 15.3595 14.3005 13.2621 14.3009L11.5425 14.302C11.3789 14.3023 10.8963 14.3158 10.7682 14.2959C10.7472 15.0653 10.7631 15.9119 10.763 16.6867L10.763 21.106L10.7618 37.2324ZM24.8815 12.5266C28.9893 12.571 33.127 12.493 37.2349 12.5318C37.247 11.95 37.2299 11.3597 37.2401 10.7769C36.8285 10.7626 36.4005 10.7686 35.9874 10.7686L34.0261 10.7686L28.0578 10.7686L25.851 10.7684C25.6771 10.7687 25.0201 10.7832 24.9003 10.7631C24.865 10.8257 24.8824 12.3271 24.8815 12.5266ZM10.762 12.5278L23.1148 12.5323C23.1427 11.99 23.1113 11.3321 23.1213 10.7748C22.0657 10.7551 20.9753 10.7685 19.9176 10.7685L14.1583 10.7685L11.8164 10.7685C11.6348 10.7689 10.905 10.7842 10.7634 10.7626L10.762 12.5278ZM16.7621 26.3443C17.0055 26.2603 17.2423 26.1319 17.4618 25.9979C17.5737 25.9296 17.7021 25.8357 17.816 25.7774C17.1554 25.2139 15.998 24.8515 15.1238 24.8941C15.1117 24.8956 15.0997 24.8969 15.0877 24.8984C14.8375 24.9267 14.6432 25.0207 14.484 25.2212C14.3368 25.4086 14.2714 25.6474 14.3027 25.8836C14.3353 26.1166 14.4603 26.3265 14.6495 26.4662C14.9981 26.7224 15.4979 26.6499 15.9069 26.5822C16.1998 26.5342 16.4865 26.4545 16.7621 26.3443ZM31.9311 25.7748C31.7682 25.6397 31.5995 25.5344 31.4142 25.4312C30.8043 25.0913 30.1162 24.9101 29.4193 24.8915C29.3521 24.8897 29.2708 24.8892 29.2043 24.8985C28.9553 24.9265 28.7646 25.0185 28.6059 25.2167C28.4581 25.4027 28.3912 25.6405 28.4205 25.8763C28.4512 26.1092 28.5734 26.3203 28.76 26.4631C29.1155 26.7333 29.5469 26.635 29.9638 26.591C30.1843 26.5676 30.641 26.4485 30.8533 26.355C31.3458 26.1766 31.5209 26.0174 31.9311 25.7748ZM23.1158 37.2338L23.1188 14.3063C22.737 14.3026 22.3552 14.3012 21.9733 14.3023C21.8535 14.3026 21.4665 14.3106 21.368 14.2909C21.3351 14.5184 21.3499 14.8913 21.3532 15.1302C21.372 16.4986 20.9556 17.5742 20.2421 18.7113C21.1698 19.9685 21.5066 21.663 21.2755 23.1969C21.1686 23.8884 20.9422 24.5559 20.6064 25.1698C20.4995 25.3642 20.3358 25.5983 20.2458 25.7711C21.2055 27.1844 21.5524 28.7763 21.2393 30.4667C21.0682 31.3906 20.7377 32.0492 20.2431 32.8304C20.85 33.6939 21.2214 34.7008 21.3209 35.7516C21.3578 36.0861 21.3704 36.8745 21.3506 37.2312C21.9104 37.228 22.5589 37.2189 23.1158 37.2338ZM17.8161 32.8209C16.9705 32.244 16.181 31.9326 15.1463 31.9619C14.8928 31.9673 14.7122 32.0347 14.5341 32.222C14.3743 32.3914 14.2886 32.6175 14.2961 32.8503C14.3021 33.0836 14.4028 33.3045 14.575 33.4623C14.8156 33.686 15.0686 33.7137 15.3811 33.6977C15.8043 33.6762 16.3096 33.587 16.7013 33.4274C17.0484 33.3117 17.5167 33.0463 17.8161 32.8209ZM31.9348 18.7003C31.1689 18.1896 30.3064 17.8014 29.3613 17.8399C29.0651 17.8432 28.8715 17.8774 28.6554 18.1016C28.4946 18.2702 28.4074 18.4959 28.4131 18.7289C28.4187 18.9605 28.5166 19.1802 28.6847 19.3395C28.915 19.5577 29.1577 19.5929 29.4634 19.5802C29.8208 19.5653 30.4066 19.4806 30.7271 19.3449C31.1361 19.1952 31.5888 18.9703 31.9348 18.7003ZM31.9336 32.821C31.1071 32.2554 30.2865 31.925 29.2674 31.9619C29.0149 31.9671 28.8423 32.0271 28.6619 32.2122C28.4972 32.3821 28.4077 32.6111 28.4137 32.8477C28.4203 33.0845 28.5226 33.3086 28.6972 33.4688C28.931 33.6848 29.1842 33.7143 29.4879 33.6977C29.9 33.675 30.4036 33.5946 30.7834 33.4409C31.1481 33.3139 31.6197 33.062 31.9336 32.821ZM15.2458 17.8399C14.9533 17.8431 14.7556 17.8773 14.5406 18.0985C14.3765 18.2677 14.2881 18.4962 14.2953 18.7318C14.3011 18.9631 14.3999 19.1822 14.5695 19.3397C14.8036 19.5601 15.0475 19.593 15.3562 19.5803C15.7428 19.5645 16.2974 19.4761 16.6564 19.3265C16.9978 19.2093 17.527 18.9351 17.8158 18.7007C17.0526 18.1866 16.1885 17.8044 15.2458 17.8399ZM35.4943 14.2939C35.4555 14.3636 35.4684 15.3562 35.4589 15.5465C35.4478 15.7352 35.4278 15.9232 35.399 16.11C35.244 17.128 34.9083 17.8559 34.3595 18.709C35.3137 20.1247 35.6833 21.7279 35.3563 23.4162C35.2336 24.0491 35.0101 24.658 34.6939 25.2198C34.5886 25.4098 34.465 25.5873 34.3627 25.7733C35.625 27.6655 35.8459 29.921 34.8467 31.9893C34.7023 32.2882 34.5375 32.5484 34.3594 32.8288C34.9471 33.6772 35.3435 34.6834 35.4353 35.7151C35.4694 36.0576 35.4907 36.8747 35.4658 37.2305C36.0492 37.2328 36.6523 37.2227 37.2334 37.2334L37.2374 32.113V22.6752V17.085L37.2375 15.2641C37.2375 14.973 37.2485 14.5904 37.2353 14.3055C36.867 14.3026 36.4988 14.3016 36.1305 14.3024C35.9777 14.3029 35.6344 14.3133 35.4943 14.2939ZM24.8861 14.2947C24.866 15.1124 24.8814 15.9949 24.8814 16.8187V21.4783L24.8811 37.2334C25.2826 37.2135 25.8741 37.2318 26.2874 37.2319H29.1179H32.1119C32.5982 37.2319 33.2193 37.2151 33.6989 37.2369C33.7122 35.9729 33.7437 35.3285 33.117 34.1537C32.7785 34.38 32.5311 34.5608 32.1688 34.7591C31.2668 35.2528 29.8037 35.6232 28.7911 35.4229C28.0945 35.2869 27.4813 34.8776 27.0886 34.2864C26.6999 33.7005 26.5608 32.9837 26.7025 32.2951C26.8408 31.608 27.2459 31.0039 27.8292 30.6151C28.6531 30.07 29.6215 30.1119 30.5495 30.3051C31.2549 30.4521 31.9292 30.7222 32.5412 31.1027C32.7415 31.2272 32.9259 31.3649 33.121 31.4965C33.2578 31.2243 33.3604 31.0216 33.4611 30.7305C33.7712 29.8305 33.7819 28.8543 33.4915 27.9478C33.48 27.913 33.468 27.8786 33.4554 27.8443C33.3552 27.5502 33.2549 27.3665 33.1189 27.0929C32.8091 27.3045 32.548 27.4901 32.2185 27.6744C31.3014 28.1875 29.839 28.5583 28.798 28.3648C28.1084 28.2312 27.4997 27.8307 27.1043 27.2503C26.7053 26.6635 26.5598 25.9406 26.7007 25.2451C26.8383 24.5583 27.2411 23.9533 27.8218 23.5613C28.6444 23.0128 29.5956 23.0579 30.526 23.2414C31.5564 23.4446 32.28 23.8443 33.1219 24.439C33.2454 24.1743 33.3568 23.9716 33.4551 23.6915C33.7885 22.7342 33.7833 21.6915 33.4399 20.7377C33.3482 20.4838 33.2455 20.2736 33.1154 20.0383C32.8049 20.2409 32.5762 20.4113 32.2472 20.5985C31.322 21.1249 29.8012 21.5193 28.749 21.2964C28.0582 21.1502 27.4542 20.7345 27.0709 20.1416C26.6884 19.5495 26.5585 18.829 26.71 18.1406C26.8578 17.4564 27.2709 16.8587 27.8587 16.4786C28.7096 15.9316 29.6881 16.0038 30.6362 16.2058C31.5923 16.4094 32.337 16.8155 33.1206 17.3808C33.7047 16.211 33.7415 15.5898 33.6983 14.305L27.3119 14.3008L25.6711 14.3013C25.5026 14.3018 25.0233 14.3181 24.8861 14.2947Z" fill="#551586"/>
</svg>
