<svg width="298" height="111" viewBox="0 0 298 111" fill="none" xmlns="http://www.w3.org/2000/svg">
<path d="M75.354 110.437V72.807H84.981L88.071 92.254H88.962L92.052 72.807H101.679V110.437H96.985V77.56H95.975L92.826 96.948H84.21L81.06 77.56H80.05V110.437H75.354Z" fill="#E61C8B"/>
<path d="M126.348 97.619V103.899C126.348 107.584 123.317 110.733 119.633 110.733H113.632C110.007 110.733 107.036 107.821 107.036 104.137V79.105C107.036 75.42 110.007 72.509 113.632 72.509H119.752C123.436 72.509 126.348 75.421 126.348 79.105V92.23H111.79V103.305C111.79 104.849 113.038 106.098 114.583 106.098H118.861C120.466 106.098 121.654 104.85 121.654 103.305V97.618H126.348V97.619ZM111.79 87.596H121.595V79.937C121.595 78.391 120.406 77.144 118.802 77.144H114.583C113.038 77.144 111.79 78.392 111.79 79.937V87.596Z" fill="#E61C8B"/>
<path d="M176.387 97.619V103.899C176.387 107.584 173.356 110.733 169.672 110.733H163.671C160.046 110.733 157.075 107.821 157.075 104.137V79.105C157.075 75.42 160.046 72.509 163.671 72.509H169.791C173.475 72.509 176.387 75.421 176.387 79.105V92.23H161.829V103.305C161.829 104.849 163.077 106.098 164.622 106.098H168.9C170.505 106.098 171.693 104.85 171.693 103.305V97.618H176.387V97.619ZM161.829 87.596H171.634V79.937C171.634 78.391 170.445 77.144 168.841 77.144H164.622C163.077 77.144 161.829 78.392 161.829 79.937V87.596Z" fill="#E61C8B"/>
<path d="M181.013 106.396L183.033 105.801L185.014 72.806H199.719V110.436H194.965V77.559H189.233L187.193 110.436H181.013V106.396Z" fill="#E61C8B"/>
<path d="M223.873 103.9C223.873 107.585 220.902 110.438 217.277 110.438H204.96V72.808H209.714V86.35H217.277C220.902 86.35 223.873 89.201 223.873 92.886V103.9ZM209.714 105.801H216.326C217.871 105.801 219.119 104.553 219.119 103.008V93.836C219.119 92.291 217.871 91.043 216.326 91.043H209.714V105.801Z" fill="#E61C8B"/>
<path d="M128.201 20.7149V57.2369C128.201 62.0919 124.291 66.002 119.436 66.002H113.95C109.157 66.002 105.185 62.0919 105.185 57.2369V20.7149C105.185 15.8589 109.158 11.95 113.95 11.95H119.436C124.291 11.95 128.201 15.8589 128.201 20.7149ZM123.156 20.7149C123.156 18.6329 121.517 16.994 119.436 16.994H113.95C111.932 16.994 110.229 18.6329 110.229 20.7149V57.2369C110.229 59.3179 111.932 60.9569 113.95 60.9569H119.436C121.517 60.9569 123.156 59.3179 123.156 57.2369V20.7149Z" fill="#551586"/>
<path d="M139.002 59.397C139.002 59.397 137.576 60.089 136.398 60.553C135.288 60.991 134.07 62.118 134.07 62.118L133.958 12.265H144.174L148.273 40.599H149.535L153.634 12.265H163.85V65.687H158.805V17.31H157.733L153.697 45.644H144.112L140.076 17.31H139.004V59.397H139.002Z" fill="#551586"/>
<path d="M192.838 20.7149V57.2369C192.838 62.0919 188.928 66.002 184.073 66.002H178.587C173.794 66.002 169.822 62.0919 169.822 57.2369V20.7149C169.822 15.8589 173.795 11.95 178.587 11.95H184.073C188.928 11.95 192.838 15.8589 192.838 20.7149ZM187.793 20.7149C187.793 18.6329 186.154 16.994 184.073 16.994H178.587C176.569 16.994 174.866 18.6329 174.866 20.7149V57.2369C174.866 59.3179 176.569 60.9569 178.587 60.9569H184.073C186.154 60.9569 187.793 59.3179 187.793 57.2369V20.7149Z" fill="#551586"/>
<path d="M77.163 17.31H81.252L78.326 60.643H75.425V68.149H80.028L80.407 65.688H96.652L97.03 68.149H101.659V60.643H99.136V12.265H77.164H67.058C33.123 12.265 23.113 16.726 23.113 34.83C23.113 34.83 24.129 34.908 25.611 35.242C27.128 35.584 28.171 35.95 28.171 35.95C28.171 21.357 34.809 17.302 67.059 17.302L77.165 17.334L77.163 17.31ZM94.09 60.642H83.243L86.169 17.309H94.089V60.642H94.09Z" fill="#551586"/>
<path d="M269.47 35.95C269.47 35.95 270.513 35.584 272.03 35.242C273.512 34.908 274.528 34.83 274.528 34.83C274.528 16.725 264.518 12.244 230.583 12.244V17.301C262.832 17.302 269.47 21.357 269.47 35.95Z" fill="#551586"/>
<path d="M144.575 72.692C142.652 72.692 139.875 73.774 138.253 75.216H137.483V74.915C137.543 72.632 138.331 70.247 142.475 68.847C146.821 67.379 149.811 63.764 150.72 62.121C151.598 60.533 151.918 59.358 151.918 59.358H147.33C146.56 60.683 144.806 63.507 140.422 65.008C135.784 66.596 132.676 70.65 132.676 74.795V103.884C132.676 107.609 135.86 110.734 139.525 110.734H144.214C147.939 110.734 151.063 107.61 151.063 103.884V79.361C151.064 75.636 148.42 72.692 144.575 72.692ZM146.257 103.164C146.257 104.725 145.056 105.987 143.433 105.987H140.306C138.744 105.987 137.482 104.725 137.482 103.164V80.323C138.143 79.663 141.215 77.5 142.537 77.5H143.433C145.055 77.5 146.257 78.762 146.257 80.323V103.164Z" fill="#E61C8B"/>
<path d="M40.029 68.423L40.172 71.658L43.275 70.735C47.736 69.409 57.618 67.49 67.056 66.746V61.689C58.259 62.331 50.855 63.653 44.763 65.116C43.58 57.763 39.213 46.518 29.88 42.551C26.828 41.256 23.587 40.599 20.248 40.599C9.084 40.599 0 49.682 0 60.847C0 70.057 7.49401 77.551 16.704 77.551C16.708 77.551 16.713 77.55 16.717 77.55C16.732 77.55 16.747 77.549 16.762 77.549C17.165 77.547 17.563 77.525 17.96 77.488C18.131 77.473 18.3 77.449 18.469 77.428C18.698 77.398 18.925 77.364 19.151 77.324C19.36 77.287 19.568 77.247 19.775 77.201C19.931 77.165 20.084 77.123 20.238 77.082C21.103 76.854 21.934 76.547 22.724 76.165C22.763 76.146 22.802 76.127 22.842 76.108L29.776 110.434H67.057V105.377H33.591L27.323 72.585C27.415 72.477 27.508 72.371 27.596 72.259C27.694 72.136 27.785 72.008 27.879 71.881C28.381 71.2 28.82 70.473 29.192 69.705C29.248 69.588 29.308 69.473 29.361 69.355C29.471 69.111 29.57 68.861 29.667 68.61C29.689 68.551 29.717 68.495 29.738 68.436L29.731 68.434C30.275 66.949 30.587 65.354 30.587 63.683H25.53C25.53 64.75 25.33 65.769 24.981 66.716C24.669 67.567 24.231 68.349 23.695 69.045C23.685 69.058 23.676 69.071 23.666 69.083C22.848 70.132 21.805 70.982 20.621 71.571C20.615 71.574 20.609 71.577 20.603 71.579C19.839 71.957 19.016 72.221 18.16 72.365C18.095 72.376 18.03 72.386 17.964 72.395C17.55 72.455 17.131 72.494 16.705 72.494C10.283 72.494 5.05801 67.269 5.05801 60.847C5.05801 52.471 11.872 45.657 20.248 45.657C22.901 45.657 25.475 46.177 27.896 47.202V47.203C38.606 51.75 39.891 65.294 40.029 68.423Z" fill="#551586"/>
<path d="M210.501 7.564C214.175 7.564 217.272 5.18699 218.209 1.80099L214.823 0C214.319 2.016 212.662 3.53 210.501 3.53C208.34 3.53 206.827 2.017 206.251 0L202.794 1.80099C203.802 5.18699 206.756 7.564 210.501 7.564Z" fill="#551586"/>
<path d="M277.391 40.599C274.052 40.599 270.811 41.255 267.759 42.55C258.426 46.517 254.059 57.762 252.876 65.116C247.424 63.807 235.924 61.254 221.853 60.731V12.265H211.763L204.953 60.643H203.944V12.265H198.899V65.687H209.241L215.988 17.31H216.808V65.687C232.719 65.687 249.903 69.409 254.364 70.735L257.467 71.658L257.61 68.423C257.748 65.294 259.033 51.75 269.743 47.202C272.164 46.177 274.737 45.656 277.391 45.656C285.767 45.656 292.581 52.47 292.581 60.846C292.581 67.268 287.356 72.493 280.934 72.493C280.508 72.493 280.088 72.455 279.675 72.394C279.609 72.385 279.544 72.375 279.479 72.364C278.623 72.22 277.8 71.956 277.036 71.578C277.03 71.575 277.024 71.572 277.018 71.57C275.834 70.981 274.791 70.131 273.973 69.082C273.963 69.069 273.954 69.056 273.944 69.044C273.408 68.348 272.97 67.566 272.658 66.715C272.309 65.768 272.109 64.749 272.109 63.682H267.052C267.052 65.353 267.364 66.949 267.908 68.433L267.901 68.435C267.923 68.494 267.95 68.55 267.972 68.609C268.068 68.861 268.167 69.11 268.278 69.354C268.331 69.473 268.391 69.587 268.447 69.704C268.819 70.472 269.258 71.199 269.76 71.88C269.853 72.007 269.945 72.135 270.043 72.258C270.131 72.369 270.224 72.476 270.316 72.584V72.586C270.688 73.016 271.43 73.813 272.466 74.609C273.538 75.432 274.568 75.982 275.087 76.237C275.827 76.582 276.598 76.87 277.402 77.081C277.556 77.122 277.709 77.165 277.865 77.2C278.071 77.247 278.279 77.286 278.489 77.323C278.715 77.364 278.942 77.398 279.171 77.427C279.34 77.448 279.509 77.472 279.68 77.487C280.076 77.523 280.475 77.546 280.878 77.548C280.893 77.548 280.907 77.55 280.923 77.55V77.549C280.927 77.549 280.932 77.55 280.936 77.55C290.146 77.55 297.64 70.056 297.64 60.846C297.639 49.682 288.555 40.599 277.391 40.599Z" fill="#551586"/>
<path d="M268.909 79.907L264.049 105.375H230.583V110.433H267.864L273.349 83.337L268.909 79.907Z" fill="#551586"/>
</svg>
